<svg height='100px' width='100px'  fill="#970000" xmlns="http://www.w3.org/2000/svg" xmlns:xlink="http://www.w3.org/1999/xlink" version="1.1" x="0px" y="0px" viewBox="0 0 65 65" enable-background="new 0 0 65 65" xml:space="preserve"><g><path d="M-0.2,4.2v56.5h65.5V4.2H-0.2z M63.8,5.7v6.2H1.3V5.7H63.8z M1.3,59.3V13.4h62.5v45.8H1.3z"></path><rect x="53.1" y="8.1" width="1.5" height="1.5"></rect><rect x="56.9" y="8.1" width="1.5" height="1.5"></rect><rect x="49.3" y="8.1" width="1.5" height="1.5"></rect><rect x="6.1" y="8.1" width="38.5" height="1.5"></rect><path d="M4.3,30.9h56.5V16.6H4.3V30.9z M35.8,23.8l23.5-5.5v11L35.8,23.8z M53.5,29.4h-42l21-4.9L53.5,29.4z M32.5,23l-21-4.9h42   L32.5,23z M29.2,23.8L5.8,29.2v-11L29.2,23.8z"></path><path d="M4.3,42.9h8v-8h-8V42.9z M5.8,36.4h5v5h-5V36.4z"></path><rect x="14.8" y="36.2" width="7.5" height="1.5"></rect><rect x="14.8" y="40.1" width="12.5" height="1.5"></rect><path d="M4.3,54.4h8v-8h-8V54.4z M5.8,47.9h5v5h-5V47.9z"></path><rect x="14.8" y="47.7" width="7.5" height="1.5"></rect><rect x="14.8" y="51.6" width="12.5" height="1.5"></rect><rect x="40.5" y="34.9" width="20.3" height="1.5"></rect><rect x="37.3" y="40.9" width="23.5" height="1.5"></rect><rect x="45.3" y="46.9" width="15.5" height="1.5"></rect><rect x="37.3" y="52.9" width="23.5" height="1.5"></rect></g></svg>