<svg height='100px' width='100px'  fill="#970000" xmlns="http://www.w3.org/2000/svg" xmlns:xlink="http://www.w3.org/1999/xlink" version="1.1" x="0px" y="0px" viewBox="0 0 100 100" enable-background="new 0 0 100 100" xml:space="preserve"><g><path d="M67.583,27.069c-0.329,0-0.658-0.128-0.907-0.382c-0.489-0.501-0.48-1.303,0.021-1.792   c1.878-1.836,2.913-4.293,2.913-6.919c0-5.334-4.34-9.674-9.674-9.674s-9.673,4.34-9.673,9.674c0,2.584,1.006,5.014,2.834,6.841   c0.495,0.495,0.495,1.298,0,1.793c-0.495,0.494-1.298,0.494-1.793,0c-2.306-2.307-3.576-5.373-3.576-8.634   c0-6.732,5.477-12.209,12.208-12.209s12.209,5.477,12.209,12.209c0,3.314-1.306,6.415-3.677,8.731   C68.222,26.948,67.902,27.069,67.583,27.069z"></path><path d="M14.731,58.17c-0.571,0-1.089-0.388-1.23-0.967c-0.23-0.943-0.347-1.921-0.347-2.903c0-1.333,0.214-2.645,0.636-3.897   c0.224-0.663,0.941-1.02,1.605-0.797c0.664,0.224,1.021,0.942,0.797,1.605c-0.333,0.992-0.503,2.031-0.503,3.089   c0,0.78,0.092,1.555,0.275,2.302c0.166,0.681-0.251,1.366-0.931,1.532C14.932,58.158,14.831,58.17,14.731,58.17z"></path><path d="M23.832,66.403c-0.059,0-0.118-0.004-0.177-0.013c-2.515-0.352-4.824-1.464-6.676-3.215   c-0.509-0.48-0.531-1.283-0.05-1.792s1.284-0.53,1.792-0.05c1.467,1.387,3.295,2.268,5.286,2.547   c0.693,0.097,1.177,0.737,1.08,1.431C24.997,65.944,24.454,66.403,23.832,66.403z"></path><path d="M31.33,64.74c-0.414,0-0.82-0.202-1.063-0.575c-0.382-0.587-0.217-1.372,0.37-1.754c1.793-1.169,3.167-2.922,3.866-4.935   c0.23-0.661,0.954-1.01,1.613-0.781c0.662,0.229,1.011,0.952,0.781,1.613c-0.883,2.541-2.615,4.752-4.876,6.226   C31.808,64.674,31.567,64.74,31.33,64.74z"></path><path d="M35.545,51.557c-0.505,0-0.983-0.304-1.18-0.803c-0.748-1.896-2.112-3.543-3.841-4.637   c-0.591-0.374-0.768-1.157-0.394-1.749s1.157-0.768,1.749-0.394c2.181,1.38,3.901,3.457,4.844,5.85   c0.257,0.651-0.063,1.388-0.714,1.645C35.857,51.528,35.7,51.557,35.545,51.557z"></path><path d="M17.567,47.89c-0.321,0-0.643-0.121-0.89-0.364c-0.499-0.491-0.505-1.294-0.013-1.793c1.683-1.708,3.806-2.875,6.141-3.372   c0.68-0.151,1.358,0.289,1.504,0.975c0.146,0.685-0.291,1.358-0.976,1.504c-1.848,0.395-3.53,1.318-4.864,2.673   C18.222,47.764,17.895,47.89,17.567,47.89z"></path><path d="M35.428,44.626c-0.29,0-0.582-0.099-0.82-0.302c-0.533-0.453-0.599-1.253-0.145-1.786l3.468-4.083   c0.454-0.535,1.252-0.6,1.787-0.146c0.533,0.453,0.599,1.253,0.146,1.786l-3.468,4.083C36.143,44.475,35.787,44.626,35.428,44.626z   "></path><path d="M41.875,37.035c-0.29,0-0.582-0.099-0.82-0.302c-0.533-0.453-0.599-1.253-0.146-1.786l2.562-3.016   c0.454-0.535,1.253-0.6,1.787-0.146c0.533,0.453,0.599,1.253,0.146,1.786l-2.562,3.016C42.591,36.884,42.234,37.035,41.875,37.035z   "></path><path d="M46.771,31.271c-0.29,0-0.582-0.099-0.82-0.302c-0.534-0.453-0.599-1.253-0.146-1.786l2.224-2.618   c0.454-0.535,1.253-0.6,1.787-0.146c0.534,0.453,0.599,1.253,0.146,1.786l-2.224,2.618C47.487,31.119,47.13,31.271,46.771,31.271z"></path><path d="M80.53,94.233c-0.188,0-19.376-0.016-19.452-0.016c-1.851,0-3.166-0.788-3.518-2.107c-0.122-0.458-0.06-6.348-0.423-6.983   c-7.133-9.103-12.212-28.237-12.425-29.048c-0.02-0.077-0.034-0.154-0.042-0.233l-1.624-15.771   c-0.044-0.433-0.131-1.342,0.462-1.438c7.357-1.193,11.204,4.37,11.45,11.841c0.24-8.001,0.493-20.865,0.645-30.367   c0.318-5.725,3.002-6.57,4.574-6.57c2.021,0,4.257,1.574,4.696,5.089c0.006,0.05,0.01,0.101,0.011,0.151l0.571,22.285   c0.587-0.258,1.217-0.405,1.847-0.405c2.122,0,3.654,0.899,4.537,2.124c0.725-0.435,1.593-0.682,2.542-0.682   c2.813,0,5.189,2.128,5.189,4.646v0.411c0.612-0.24,1.261-0.37,1.89-0.37c2.629,0,4.613,1.912,4.934,4.758   c1.045,9.234,0.244,21.683-2.089,32.489c-0.094,0.44-0.23,6.508-0.317,7.479C83.844,93.167,82.486,94.233,80.53,94.233z    M60.401,91.137c0,0,20.691,0.004,20.755,0.013c0-0.632-0.007-7.07,0.143-7.762c2.232-10.343,3.032-22.704,2.038-31.494   c-0.069-0.609-0.39-2.026-1.877-2.026c-0.807,0-1.89,0.659-1.89,1.332c0,0.85-0.689,1.539-1.539,1.539   c-0.849,0-1.539-0.689-1.539-1.539v-4.451c0-0.711-0.942-1.569-2.112-1.569c-1.227,0-1.662,0.845-1.662,1.569   c0,0.85-0.689,1.539-1.539,1.539s-1.539-0.689-1.539-1.539v-1.288c0-0.856-0.803-1.723-2.34-1.723c-0.708,0-1.655,0.746-1.777,1.4   c-0.145,0.774-0.867,1.311-1.635,1.251c-0.785-0.063-1.395-0.707-1.415-1.494L61.812,18.94c-0.193-1.413-0.83-2.322-1.634-2.322   c-1.205,0-1.451,2.758-1.499,3.603c-0.269,16.811-0.682,37.186-1.109,38.438c-0.212,0.624-0.826,1.136-1.482,1.068   c-1.735-0.18-4.196-8.768-4.199-8.915c-0.041-1.986-0.589-8.041-5.588-9.173l1.417,13.769C48.148,57,53.09,74.972,59.582,83.261   C60.519,84.458,60.394,90.148,60.401,91.137z"></path><path d="M63.97,48.605c-0.849,0-1.539-0.689-1.539-1.539v-2.163c0-0.85,0.689-1.539,1.539-1.539c0.849,0,1.539,0.689,1.539,1.539   v2.163C65.509,47.917,64.82,48.605,63.97,48.605z"></path><path d="M71.181,50.769c-0.849,0-1.539-0.689-1.539-1.539v-2.163c0-0.85,0.689-1.539,1.539-1.539s1.539,0.689,1.539,1.539v2.163   C72.72,50.08,72.031,50.769,71.181,50.769z"></path><path d="M78.032,55.456c-0.849,0-1.539-0.689-1.539-1.539v-2.524c0-0.85,0.689-1.539,1.539-1.539c0.849,0,1.539,0.689,1.539,1.539   v2.524C79.571,54.767,78.881,55.456,78.032,55.456z"></path></g></svg>