<?xml version="1.0" encoding="UTF-8" standalone="no"?>
<!DOCTYPE svg PUBLIC "-//W3C//DTD SVG 1.1//EN" "http://www.w3.org/Graphics/SVG/1.1/DTD/svg11.dtd">
<svg width="100%" height="100%" viewBox="0 0 748 399" version="1.1" xmlns="http://www.w3.org/2000/svg" xmlns:xlink="http://www.w3.org/1999/xlink" xml:space="preserve" xmlns:serif="http://www.serif.com/" style="fill-rule:evenodd;clip-rule:evenodd;stroke-linecap:round;stroke-linejoin:round;">
    <g transform="matrix(1,0,0,1,0,-21)">
        <g>
            <path id="rect2206" d="M746.496,151.834C746.496,94.782 700.177,48.463 643.124,48.463L105.375,48.463C48.322,48.463 2.003,94.782 2.003,151.834L2.003,288.586C2.003,345.639 48.322,391.958 105.375,391.958L643.124,391.958C700.177,391.958 746.496,345.639 746.496,288.586L746.496,151.834Z" style="fill:white;stroke:black;stroke-width:4px;"/>
            <path id="path2208" d="M413.062,217.489C413.062,238.592 396.352,255.699 375.74,255.699C355.128,255.699 338.419,238.592 338.419,217.489C338.419,196.386 355.128,179.279 375.74,179.279C396.352,179.279 413.062,196.386 413.062,217.489Z" style="fill:none;fill-rule:nonzero;stroke:rgb(68,102,187);stroke-width:3.01px;"/>
            <path id="path2210" d="M253.288,129.63C253.29,132.575 250.93,134.964 248.019,134.964C245.108,134.964 242.749,132.575 242.75,129.63C242.749,126.684 245.108,124.295 248.019,124.295C250.93,124.295 253.29,126.684 253.288,129.63Z" style="fill:rgb(204,51,51);fill-rule:nonzero;stroke:rgb(226,75,90);stroke-width:0.5px;"/>
            <path id="path2212" d="M253.288,305.873C253.29,308.818 250.93,311.207 248.019,311.207C245.108,311.207 242.749,308.818 242.75,305.873C242.749,302.927 245.108,300.538 248.019,300.538C250.93,300.538 253.29,302.927 253.288,305.873Z" style="fill:rgb(204,51,51);fill-rule:nonzero;stroke:rgb(226,75,90);stroke-width:0.5px;"/>
            <path id="path2214" d="M508.288,305.873C508.29,308.818 505.93,311.207 503.019,311.207C500.108,311.207 497.749,308.818 497.75,305.873C497.749,302.927 500.108,300.538 503.019,300.538C505.93,300.538 508.29,302.927 508.288,305.873Z" style="fill:rgb(204,51,51);fill-rule:nonzero;stroke:rgb(226,75,90);stroke-width:0.5px;"/>
            <path id="path2216" d="M508.289,129.63C508.29,132.575 505.931,134.964 503.02,134.964C500.109,134.964 497.749,132.575 497.751,129.63C497.749,126.684 500.109,124.295 503.02,124.295C505.931,124.295 508.29,126.684 508.289,129.63Z" style="fill:rgb(204,51,51);fill-rule:nonzero;stroke:rgb(226,75,90);stroke-width:0.5px;"/>
            <path id="center-redline" d="M375.998,55.341L376.345,393.458" style="fill:none;stroke:rgb(204,51,51);stroke-width:3px;stroke-linejoin:miter;stroke-dasharray:8.99,8.99;"/>
            <path id="blueline1" d="M226.512,51.043L226.771,390.945" style="fill:none;stroke:rgb(68,102,187);stroke-width:8.03px;stroke-linecap:butt;stroke-linejoin:miter;"/>
            <path id="blueline2" d="M525.633,51.454L525.637,390.945" style="fill:none;stroke:rgb(68,102,187);stroke-width:8.03px;stroke-linecap:butt;stroke-linejoin:miter;"/>
            <path id="path3970" d="M169.672,304.19C169.672,326.263 151.378,344.177 128.838,344.177C106.298,344.177 88.004,326.263 88.004,304.19C88.004,282.117 106.298,264.203 128.838,264.203C151.378,264.203 169.672,282.117 169.672,304.19ZM119.618,264.203L119.618,254.428M137.18,254.428L137.18,265.091M138.937,344.177L138.937,353.952M118.739,345.066L118.739,353.952" style="fill:none;fill-rule:nonzero;stroke:rgb(204,51,51);stroke-width:3.01px;"/>
            <path id="path24203" d="M135.587,305.402C135.587,308.744 132.907,311.457 129.604,311.457C126.301,311.457 123.62,308.744 123.62,305.402C123.62,302.06 126.301,299.347 129.604,299.347C132.899,299.347 135.576,302.046 135.587,305.381" style="fill:rgb(204,51,51);fill-rule:nonzero;"/>
            <path id="path4868" d="M169.672,129.19C169.672,151.263 151.378,169.177 128.838,169.177C106.298,169.177 88.004,151.263 88.004,129.19C88.004,107.117 106.298,89.203 128.838,89.203C151.378,89.203 169.672,107.117 169.672,129.19ZM119.618,89.203L119.618,79.428M137.18,79.428L137.18,90.091M138.937,169.177L138.937,178.952M118.739,170.066L118.739,178.952" style="fill:none;fill-rule:nonzero;stroke:rgb(204,51,51);stroke-width:3.01px;"/>
            <path id="path24191" d="M135.284,129.159C135.284,132.502 132.604,135.214 129.3,135.214C125.997,135.214 123.317,132.502 123.317,129.159C123.317,125.817 125.997,123.104 129.3,123.104C132.596,123.104 135.273,125.803 135.284,129.139" style="fill:rgb(204,51,51);fill-rule:nonzero;"/>
            <path id="path4870" d="M655.672,129.19C655.672,151.263 637.378,169.177 614.838,169.177C592.298,169.177 574.004,151.263 574.004,129.19C574.004,107.117 592.298,89.203 614.838,89.203C637.378,89.203 655.672,107.117 655.672,129.19ZM605.618,89.203L605.618,79.428M623.18,79.428L623.18,90.091M624.937,169.177L624.937,178.952M604.739,170.066L604.739,178.952" style="fill:none;fill-rule:nonzero;stroke:rgb(204,51,51);stroke-width:3.01px;"/>
            <path id="path24179" d="M621.468,129.159C621.468,132.502 618.787,135.214 615.484,135.214C612.181,135.214 609.5,132.502 609.5,129.159C609.5,125.817 612.181,123.104 615.484,123.104C618.78,123.104 621.456,125.803 621.468,129.139" style="fill:rgb(204,51,51);fill-rule:nonzero;"/>
            <path id="path4872" d="M655.672,304.19C655.672,326.263 637.378,344.177 614.838,344.177C592.298,344.177 574.004,326.263 574.004,304.19C574.004,282.117 592.298,264.203 614.838,264.203C637.378,264.203 655.672,282.117 655.672,304.19ZM605.618,264.203L605.618,254.428M623.18,254.428L623.18,265.091M624.937,344.177L624.937,353.952M604.739,345.066L604.739,353.952" style="fill:none;fill-rule:nonzero;stroke:rgb(204,51,51);stroke-width:3.01px;"/>
            <path id="path24167" d="M621.467,305.402C621.467,308.744 618.786,311.457 615.483,311.457C612.18,311.457 609.5,308.744 609.5,305.402C609.5,302.06 612.18,299.347 615.483,299.347C618.779,299.347 621.456,302.046 621.467,305.381" style="fill:rgb(204,51,51);fill-rule:nonzero;"/>
            <path id="path14545" d="M65.484,240.384C65.484,240.384 53.261,240.268 52.762,240.001C42.57,234.555 52.297,225.581 51.967,225.265C44.231,217.881 50.476,209.757 54.066,210.05L65.277,209.923" style="fill:none;stroke:rgb(204,51,51);stroke-width:3.01px;stroke-linecap:butt;stroke-linejoin:miter;"/>
            <path id="bottom-redline1" d="M64.601,60.047L64.556,382.634M65.246,194.57C107.858,194.47 109.272,255.477 64.823,255.219M65.159,206.723C66.17,206.87 80.392,206.626 80.392,206.626L80.669,242.569L64.706,242.569" style="fill:none;stroke:rgb(204,51,51);stroke-width:3.01px;stroke-linejoin:miter;"/>
            <path id="path15433" d="M678.979,207.134C678.979,207.134 691.2,207.344 691.698,207.615C701.848,213.141 692.053,222.039 692.381,222.357C700.06,229.801 693.754,237.876 690.166,237.555L678.955,237.596" style="fill:none;stroke:rgb(204,51,51);stroke-width:3.01px;stroke-linecap:butt;stroke-linejoin:miter;"/>
            <path id="bottom-redline2" d="M678.857,383.4L679.044,58.907M678.869,252.949C635.528,252.746 633.698,192.412 678.93,192.298M678.928,241.148C672.633,240.716 663.815,240.775 663.815,240.775L663.458,204.827L678.951,204.948" style="fill:none;stroke:rgb(204,51,51);stroke-width:3.01px;stroke-linejoin:miter;"/>
            <path id="path29529" d="M380.22,217.438C380.221,218.873 379.486,220.2 378.291,220.918C377.096,221.637 375.623,221.637 374.428,220.918C373.233,220.2 372.498,218.873 372.5,217.438C372.498,216.003 373.233,214.676 374.428,213.958C375.623,213.239 377.096,213.239 378.291,213.958C379.486,214.676 380.221,216.003 380.22,217.438Z" style="fill:rgb(85,103,176);fill-rule:nonzero;"/>
            <path id="rect1341" d="M306.504,394.956L306.504,417.965L223.495,417.965L223.495,394.956" style="fill:rgb(238,238,238);fill-rule:nonzero;stroke:black;stroke-width:1.5px;stroke-linecap:butt;stroke-linejoin:miter;"/>
            <path id="text2217" d="M240.361,396.685L240.361,399.972L241.849,399.972C242.4,399.972 242.826,399.83 243.126,399.544C243.427,399.259 243.578,398.853 243.578,398.326C243.578,397.802 243.427,397.398 243.126,397.113C242.826,396.828 242.4,396.685 241.849,396.685L240.361,396.685M239.177,395.712L241.849,395.712C242.83,395.712 243.57,395.935 244.07,396.38C244.574,396.822 244.826,397.47 244.826,398.326C244.826,399.189 244.574,399.841 244.07,400.283C243.57,400.724 242.83,400.945 241.849,400.945L240.361,400.945L240.361,404.46L239.177,404.46L239.177,395.712M246.419,395.712L251.951,395.712L251.951,396.708L247.603,396.708L247.603,399.298L251.769,399.298L251.769,400.294L247.603,400.294L247.603,403.464L252.056,403.464L252.056,404.46L246.419,404.46L246.419,395.712M254.013,395.712L255.607,395.712L259.486,403.031L259.486,395.712L260.634,395.712L260.634,404.46L259.041,404.46L255.162,397.142L255.162,404.46L254.013,404.46L254.013,395.712M265.914,396.878L264.308,401.232L267.525,401.232L265.914,396.878M265.246,395.712L266.587,395.712L269.921,404.46L268.691,404.46L267.894,402.216L263.951,402.216L263.154,404.46L261.906,404.46L265.246,395.712M271.193,395.712L272.376,395.712L272.376,403.464L276.636,403.464L276.636,404.46L271.193,404.46L271.193,395.712M275.019,395.712L282.419,395.712L282.419,396.708L279.314,396.708L279.314,404.46L278.125,404.46L278.125,396.708L275.019,396.708L275.019,395.712M282.367,395.712L283.638,395.712L286.064,399.31L288.472,395.712L289.744,395.712L286.65,400.294L286.65,404.46L285.46,404.46L285.46,400.294L282.367,395.712" style="fill:rgb(170,102,0);fill-rule:nonzero;"/>
            <path id="text2221" d="M244.361,410.783L244.361,413.988L246.259,413.988C246.896,413.988 247.367,413.857 247.671,413.595C247.98,413.33 248.134,412.925 248.134,412.382C248.134,411.835 247.98,411.433 247.671,411.175C247.367,410.914 246.896,410.783 246.259,410.783L244.361,410.783M244.361,407.185L244.361,409.822L246.113,409.822C246.691,409.822 247.121,409.714 247.402,409.499C247.687,409.281 247.83,408.949 247.83,408.503C247.83,408.062 247.687,407.732 247.402,407.513C247.121,407.294 246.691,407.185 246.113,407.185L244.361,407.185M243.177,406.212L246.201,406.212C247.103,406.212 247.798,406.4 248.287,406.775C248.775,407.15 249.019,407.683 249.019,408.374C249.019,408.91 248.894,409.335 248.644,409.652C248.394,409.968 248.027,410.165 247.542,410.244C248.125,410.369 248.576,410.63 248.896,411.029C249.22,411.423 249.382,411.917 249.382,412.511C249.382,413.292 249.117,413.896 248.585,414.322C248.054,414.748 247.298,414.96 246.318,414.96L243.177,414.96L243.177,406.212M251.404,406.212L256.935,406.212L256.935,407.208L252.587,407.208L252.587,409.798L256.753,409.798L256.753,410.794L252.587,410.794L252.587,413.964L257.041,413.964L257.041,414.96L251.404,414.96L251.404,406.212M258.998,406.212L260.591,406.212L264.47,413.531L264.47,406.212L265.619,406.212L265.619,414.96L264.025,414.96L260.146,407.642L260.146,414.96L258.998,414.96L258.998,406.212M274.525,406.886L274.525,408.134C274.126,407.763 273.701,407.486 273.248,407.302C272.798,407.119 272.32,407.027 271.812,407.027C270.812,407.027 270.046,407.333 269.515,407.947C268.984,408.556 268.718,409.439 268.718,410.595C268.718,411.748 268.984,412.63 269.515,413.244C270.046,413.853 270.812,414.158 271.812,414.158C272.32,414.158 272.798,414.066 273.248,413.882C273.701,413.699 274.126,413.421 274.525,413.05L274.525,414.287C274.111,414.568 273.671,414.779 273.207,414.919C272.746,415.06 272.257,415.13 271.742,415.13C270.418,415.13 269.375,414.726 268.613,413.917C267.851,413.105 267.47,411.998 267.47,410.595C267.47,409.189 267.851,408.082 268.613,407.273C269.375,406.46 270.418,406.054 271.742,406.054C272.265,406.054 272.757,406.124 273.218,406.265C273.683,406.402 274.119,406.609 274.525,406.886M276.365,406.212L277.548,406.212L277.548,409.798L281.849,409.798L281.849,406.212L283.033,406.212L283.033,414.96L281.849,414.96L281.849,410.794L277.548,410.794L277.548,414.96L276.365,414.96L276.365,406.212" style="fill:rgb(170,102,0);fill-rule:nonzero;"/>
            <path id="path3971" d="M529.004,394.956L529.004,417.965L445.995,417.965L445.995,394.956" style="fill:rgb(238,238,238);fill-rule:nonzero;stroke:black;stroke-width:1.5px;stroke-linecap:butt;stroke-linejoin:miter;"/>
            <path id="text3973" d="M461.861,397.185L461.861,400.472L463.349,400.472C463.9,400.472 464.326,400.33 464.627,400.044C464.927,399.759 465.078,399.353 465.078,398.826C465.078,398.302 464.927,397.898 464.627,397.613C464.326,397.328 463.9,397.185 463.349,397.185L461.861,397.185M460.677,396.212L463.349,396.212C464.33,396.212 465.07,396.435 465.57,396.88C466.074,397.322 466.326,397.97 466.326,398.826C466.326,399.689 466.074,400.341 465.57,400.783C465.07,401.224 464.33,401.445 463.349,401.445L461.861,401.445L461.861,404.96L460.677,404.96L460.677,396.212M467.919,396.212L473.451,396.212L473.451,397.208L469.103,397.208L469.103,399.798L473.269,399.798L473.269,400.794L469.103,400.794L469.103,403.964L473.556,403.964L473.556,404.96L467.919,404.96L467.919,396.212M475.513,396.212L477.107,396.212L480.986,403.531L480.986,396.212L482.134,396.212L482.134,404.96L480.541,404.96L476.662,397.642L476.662,404.96L475.513,404.96L475.513,396.212M487.414,397.378L485.808,401.732L489.025,401.732L487.414,397.378M486.746,396.212L488.087,396.212L491.421,404.96L490.191,404.96L489.394,402.716L485.451,402.716L484.654,404.96L483.406,404.96L486.746,396.212M492.693,396.212L493.877,396.212L493.877,403.964L498.136,403.964L498.136,404.96L492.693,404.96L492.693,396.212M496.519,396.212L503.919,396.212L503.919,397.208L500.814,397.208L500.814,404.96L499.625,404.96L499.625,397.208L496.519,397.208L496.519,396.212M503.867,396.212L505.138,396.212L507.564,399.81L509.972,396.212L511.244,396.212L508.15,400.794L508.15,404.96L506.961,404.96L506.961,400.794L503.867,396.212" style="fill:rgb(170,102,0);fill-rule:nonzero;"/>
            <path id="text3977" d="M466.861,411.283L466.861,414.488L468.759,414.488C469.396,414.488 469.867,414.357 470.171,414.095C470.48,413.83 470.634,413.425 470.634,412.882C470.634,412.335 470.48,411.933 470.171,411.675C469.867,411.414 469.396,411.283 468.759,411.283L466.861,411.283M466.861,407.685L466.861,410.322L468.613,410.322C469.191,410.322 469.621,410.214 469.902,409.999C470.187,409.781 470.33,409.449 470.33,409.003C470.33,408.562 470.187,408.232 469.902,408.013C469.621,407.794 469.191,407.685 468.613,407.685L466.861,407.685M465.677,406.712L468.701,406.712C469.603,406.712 470.298,406.9 470.787,407.275C471.275,407.65 471.519,408.183 471.519,408.874C471.519,409.41 471.394,409.835 471.144,410.152C470.894,410.468 470.527,410.665 470.043,410.744C470.625,410.869 471.076,411.13 471.396,411.529C471.72,411.923 471.882,412.417 471.882,413.011C471.882,413.792 471.617,414.396 471.086,414.822C470.554,415.248 469.798,415.46 468.818,415.46L465.677,415.46L465.677,406.712M473.904,406.712L479.435,406.712L479.435,407.708L475.087,407.708L475.087,410.298L479.253,410.298L479.253,411.294L475.087,411.294L475.087,414.464L479.541,414.464L479.541,415.46L473.904,415.46L473.904,406.712M481.498,406.712L483.091,406.712L486.97,414.031L486.97,406.712L488.119,406.712L488.119,415.46L486.525,415.46L482.646,408.142L482.646,415.46L481.498,415.46L481.498,406.712M497.025,407.386L497.025,408.634C496.627,408.263 496.201,407.986 495.748,407.802C495.298,407.619 494.82,407.527 494.312,407.527C493.312,407.527 492.546,407.833 492.015,408.447C491.484,409.056 491.218,409.939 491.218,411.095C491.218,412.248 491.484,413.13 492.015,413.744C492.546,414.353 493.312,414.658 494.312,414.658C494.82,414.658 495.298,414.566 495.748,414.382C496.201,414.199 496.627,413.921 497.025,413.55L497.025,414.787C496.611,415.068 496.171,415.279 495.707,415.419C495.246,415.56 494.757,415.63 494.242,415.63C492.918,415.63 491.875,415.226 491.113,414.417C490.351,413.605 489.97,412.498 489.97,411.095C489.97,409.689 490.351,408.582 491.113,407.773C491.875,406.96 492.918,406.554 494.242,406.554C494.765,406.554 495.257,406.624 495.718,406.765C496.183,406.902 496.619,407.109 497.025,407.386M498.865,406.712L500.048,406.712L500.048,410.298L504.349,410.298L504.349,406.712L505.533,406.712L505.533,415.46L504.349,415.46L504.349,411.294L500.048,411.294L500.048,415.46L498.865,415.46L498.865,406.712" style="fill:rgb(170,102,0);fill-rule:nonzero;"/>
            <path id="path3981" d="M437.797,395.1L437.797,417.82L315.202,417.82L315.202,395.1" style="fill:rgb(238,238,238);fill-rule:nonzero;stroke:black;stroke-width:1.5px;stroke-linecap:butt;stroke-linejoin:miter;"/>
            <path id="text4856" d="M334.812,396.725L334.812,397.879C334.362,397.664 333.939,397.504 333.54,397.398C333.142,397.293 332.757,397.24 332.386,397.24C331.741,397.24 331.243,397.365 330.892,397.615C330.544,397.865 330.37,398.221 330.37,398.682C330.37,399.068 330.485,399.361 330.716,399.56C330.95,399.756 331.392,399.914 332.04,400.035L332.755,400.182C333.638,400.35 334.288,400.646 334.706,401.072C335.128,401.494 335.339,402.06 335.339,402.771C335.339,403.619 335.054,404.262 334.483,404.699C333.917,405.137 333.085,405.355 331.987,405.355C331.573,405.355 331.132,405.308 330.663,405.215C330.198,405.121 329.716,404.982 329.216,404.799L329.216,403.58C329.696,403.85 330.167,404.053 330.628,404.189C331.089,404.326 331.542,404.394 331.987,404.394C332.663,404.394 333.185,404.262 333.552,403.996C333.919,403.73 334.103,403.351 334.103,402.859C334.103,402.43 333.97,402.094 333.704,401.851C333.442,401.609 333.011,401.428 332.409,401.307L331.689,401.166C330.806,400.99 330.167,400.715 329.773,400.34C329.378,399.965 329.181,399.443 329.181,398.775C329.181,398.002 329.452,397.392 329.995,396.947C330.542,396.502 331.294,396.279 332.251,396.279C332.661,396.279 333.079,396.316 333.505,396.391C333.931,396.465 334.366,396.576 334.812,396.725M343.735,397.111L343.735,398.359C343.337,397.988 342.911,397.711 342.458,397.527C342.009,397.344 341.53,397.252 341.023,397.252C340.023,397.252 339.257,397.559 338.726,398.172C338.194,398.781 337.929,399.664 337.929,400.82C337.929,401.973 338.194,402.855 338.726,403.469C339.257,404.078 340.023,404.383 341.023,404.383C341.53,404.383 342.009,404.291 342.458,404.107C342.911,403.924 343.337,403.646 343.735,403.275L343.735,404.512C343.321,404.793 342.882,405.004 342.417,405.144C341.956,405.285 341.468,405.355 340.952,405.355C339.628,405.355 338.585,404.951 337.823,404.142C337.062,403.33 336.681,402.223 336.681,400.82C336.681,399.414 337.062,398.307 337.823,397.498C338.585,396.685 339.628,396.279 340.952,396.279C341.476,396.279 341.968,396.35 342.429,396.49C342.894,396.627 343.329,396.834 343.735,397.111M349.126,397.24C348.267,397.24 347.583,397.56 347.075,398.201C346.571,398.842 346.319,399.715 346.319,400.82C346.319,401.922 346.571,402.793 347.075,403.433C347.583,404.074 348.267,404.394 349.126,404.394C349.985,404.394 350.665,404.074 351.165,403.433C351.669,402.793 351.921,401.922 351.921,400.82C351.921,399.715 351.669,398.842 351.165,398.201C350.665,397.56 349.985,397.24 349.126,397.24M349.126,396.279C350.353,396.279 351.333,396.691 352.067,397.516C352.802,398.336 353.169,399.437 353.169,400.82C353.169,402.199 352.802,403.301 352.067,404.125C351.333,404.945 350.353,405.355 349.126,405.355C347.896,405.355 346.911,404.945 346.173,404.125C345.439,403.305 345.071,402.203 345.071,400.82C345.071,399.437 345.439,398.336 346.173,397.516C346.911,396.691 347.896,396.279 349.126,396.279M359.169,401.084C359.423,401.17 359.669,401.353 359.907,401.635C360.149,401.916 360.392,402.303 360.634,402.795L361.835,405.185L360.564,405.185L359.444,402.941C359.155,402.355 358.874,401.967 358.601,401.775C358.331,401.584 357.962,401.488 357.493,401.488L356.204,401.488L356.204,405.185L355.021,405.185L355.021,396.437L357.692,396.437C358.692,396.437 359.439,396.646 359.931,397.064C360.423,397.482 360.669,398.113 360.669,398.957C360.669,399.508 360.54,399.965 360.282,400.328C360.028,400.691 359.657,400.943 359.169,401.084M356.204,397.41L356.204,400.516L357.692,400.516C358.263,400.516 358.692,400.385 358.982,400.123C359.274,399.857 359.421,399.469 359.421,398.957C359.421,398.445 359.274,398.06 358.982,397.803C358.692,397.541 358.263,397.41 357.692,397.41L356.204,397.41M363.364,396.437L368.896,396.437L368.896,397.433L364.548,397.433L364.548,400.023L368.714,400.023L368.714,401.019L364.548,401.019L364.548,404.189L369.001,404.189L369.001,405.185L363.364,405.185L363.364,396.437M370.958,396.437L372.142,396.437L372.142,400.135L376.067,396.437L377.591,396.437L373.249,400.516L377.901,405.185L376.343,405.185L372.142,400.973L372.142,405.185L370.958,405.185L370.958,396.437M378.833,396.437L384.364,396.437L384.364,397.433L380.017,397.433L380.017,400.023L384.183,400.023L384.183,401.019L380.017,401.019L380.017,404.189L384.47,404.189L384.47,405.185L378.833,405.185L378.833,396.437M386.427,396.437L391.958,396.437L391.958,397.433L387.61,397.433L387.61,400.023L391.776,400.023L391.776,401.019L387.61,401.019L387.61,404.189L392.064,404.189L392.064,405.185L386.427,405.185L386.427,396.437M395.204,397.41L395.204,400.697L396.692,400.697C397.243,400.697 397.669,400.555 397.97,400.269C398.271,399.984 398.421,399.578 398.421,399.051C398.421,398.527 398.271,398.123 397.97,397.838C397.669,397.553 397.243,397.41 396.692,397.41L395.204,397.41M394.021,396.437L396.692,396.437C397.673,396.437 398.413,396.66 398.913,397.105C399.417,397.547 399.669,398.195 399.669,399.051C399.669,399.914 399.417,400.566 398.913,401.008C398.413,401.449 397.673,401.67 396.692,401.67L395.204,401.67L395.204,405.185L394.021,405.185L394.021,396.437M401.263,396.437L406.794,396.437L406.794,397.433L402.446,397.433L402.446,400.023L406.612,400.023L406.612,401.019L402.446,401.019L402.446,404.189L406.899,404.189L406.899,405.185L401.263,405.185L401.263,396.437M413.005,401.084C413.259,401.17 413.505,401.353 413.743,401.635C413.985,401.916 414.228,402.303 414.47,402.795L415.671,405.185L414.399,405.185L413.28,402.941C412.991,402.355 412.71,401.967 412.437,401.775C412.167,401.584 411.798,401.488 411.329,401.488L410.04,401.488L410.04,405.185L408.857,405.185L408.857,396.437L411.528,396.437C412.528,396.437 413.274,396.646 413.767,397.064C414.259,397.482 414.505,398.113 414.505,398.957C414.505,399.508 414.376,399.965 414.118,400.328C413.864,400.691 413.493,400.943 413.005,401.084M410.04,397.41L410.04,400.515L411.528,400.515C412.099,400.516 412.528,400.385 412.817,400.123C413.11,399.857 413.257,399.469 413.257,398.957C413.257,398.445 413.11,398.06 412.817,397.803C412.528,397.541 412.099,397.41 411.528,397.41L410.04,397.41M422.444,396.725L422.444,397.879C421.995,397.664 421.571,397.504 421.173,397.398C420.774,397.293 420.39,397.24 420.019,397.24C419.374,397.24 418.876,397.365 418.524,397.615C418.177,397.865 418.003,398.221 418.003,398.682C418.003,399.068 418.118,399.361 418.349,399.56C418.583,399.756 419.024,399.914 419.673,400.035L420.388,400.182C421.271,400.35 421.921,400.646 422.339,401.072C422.761,401.494 422.972,402.06 422.972,402.771C422.972,403.619 422.687,404.262 422.116,404.699C421.55,405.137 420.718,405.355 419.62,405.355C419.206,405.355 418.765,405.308 418.296,405.215C417.831,405.121 417.349,404.982 416.849,404.799L416.849,403.58C417.329,403.85 417.8,404.053 418.261,404.189C418.722,404.326 419.175,404.394 419.62,404.394C420.296,404.394 420.817,404.262 421.185,403.996C421.552,403.73 421.735,403.351 421.735,402.859C421.735,402.43 421.603,402.094 421.337,401.851C421.075,401.609 420.644,401.428 420.042,401.307L419.321,401.166C418.439,400.99 417.8,400.715 417.405,400.34C417.011,399.965 416.814,399.443 416.814,398.775C416.814,398.002 417.085,397.392 417.628,396.947C418.175,396.502 418.927,396.279 419.884,396.279C420.294,396.279 420.712,396.316 421.138,396.39C421.564,396.465 421.999,396.576 422.444,396.725" style="fill:rgb(170,102,0);fill-rule:nonzero;"/>
            <path id="text4860" d="M357.209,411.316L357.209,414.521L359.107,414.521C359.744,414.521 360.214,414.39 360.519,414.128C360.828,413.863 360.982,413.458 360.982,412.915C360.982,412.369 360.828,411.966 360.519,411.708C360.214,411.447 359.744,411.316 359.107,411.316L357.209,411.316M357.209,407.718L357.209,410.355L358.96,410.355C359.539,410.355 359.968,410.247 360.25,410.033C360.535,409.814 360.677,409.482 360.677,409.036C360.677,408.595 360.535,408.265 360.25,408.046C359.968,407.828 359.539,407.718 358.96,407.718L357.209,407.718M356.025,406.746L359.048,406.746C359.951,406.746 360.646,406.933 361.134,407.308C361.623,407.683 361.867,408.216 361.867,408.908C361.867,409.443 361.742,409.869 361.492,410.185C361.242,410.501 360.875,410.699 360.39,410.777C360.972,410.902 361.423,411.163 361.744,411.562C362.068,411.956 362.23,412.451 362.23,413.044C362.23,413.826 361.964,414.429 361.433,414.855C360.902,415.281 360.146,415.494 359.166,415.494L356.025,415.494L356.025,406.746M364.251,406.746L369.783,406.746L369.783,407.742L365.435,407.742L365.435,410.331L369.601,410.331L369.601,411.328L365.435,411.328L365.435,414.497L369.888,414.497L369.888,415.494L364.251,415.494L364.251,406.746M371.845,406.746L373.439,406.746L377.318,414.064L377.318,406.746L378.466,406.746L378.466,415.494L376.873,415.494L372.994,408.175L372.994,415.494L371.845,415.494L371.845,406.746M387.373,407.419L387.373,408.667C386.974,408.296 386.548,408.019 386.095,407.835C385.646,407.652 385.168,407.56 384.66,407.56C383.66,407.56 382.894,407.867 382.363,408.48C381.832,409.089 381.566,409.972 381.566,411.128C381.566,412.281 381.832,413.163 382.363,413.777C382.894,414.386 383.66,414.691 384.66,414.691C385.168,414.691 385.646,414.599 386.095,414.415C386.548,414.232 386.974,413.954 387.373,413.583L387.373,414.82C386.959,415.101 386.519,415.312 386.054,415.453C385.593,415.593 385.105,415.663 384.589,415.663C383.265,415.663 382.222,415.259 381.46,414.451C380.699,413.638 380.318,412.531 380.318,411.128C380.318,409.722 380.699,408.615 381.46,407.806C382.222,406.994 383.265,406.587 384.589,406.587C385.113,406.587 385.605,406.658 386.066,406.798C386.531,406.935 386.966,407.142 387.373,407.419M389.212,406.746L390.396,406.746L390.396,410.331L394.697,410.331L394.697,406.746L395.88,406.746L395.88,415.494L394.697,415.494L394.697,411.328L390.396,411.328L390.396,415.494L389.212,415.494L389.212,406.746" style="fill:rgb(170,102,0);fill-rule:nonzero;"/>
            <path id="path4864" d="M168.067,47.861L168.067,24.06L341.932,24.06L341.932,47.861" style="fill:rgb(238,238,238);fill-rule:nonzero;stroke:black;stroke-width:1.2px;stroke-linecap:butt;stroke-linejoin:miter;"/>
            <path id="text4866" d="M185.903,30.692L185.903,35.623L188.136,35.623C188.962,35.623 189.6,35.409 190.052,34.981C190.503,34.554 190.728,33.944 190.728,33.153C190.728,32.368 190.503,31.762 190.052,31.334C189.6,30.906 188.962,30.692 188.136,30.692L185.903,30.692M184.128,29.233L188.136,29.233C189.606,29.233 190.717,29.567 191.467,30.235C192.222,30.897 192.6,31.87 192.6,33.153C192.6,34.448 192.222,35.427 191.467,36.089C190.717,36.751 189.606,37.082 188.136,37.082L185.903,37.082L185.903,42.355L184.128,42.355L184.128,29.233M194.991,29.233L196.766,29.233L196.766,40.861L203.156,40.861L203.156,42.355L194.991,42.355L194.991,29.233M209.818,30.982L207.41,37.513L212.235,37.513L209.818,30.982M208.816,29.233L210.829,29.233L215.83,42.355L213.984,42.355L212.789,38.989L206.874,38.989L205.678,42.355L203.806,42.355L208.816,29.233M214.529,29.233L216.436,29.233L220.075,34.63L223.687,29.233L225.594,29.233L220.954,36.106L220.954,42.355L219.17,42.355L219.17,36.106L214.529,29.233M227.335,29.233L235.632,29.233L235.632,30.727L229.11,30.727L229.11,34.612L235.359,34.612L235.359,36.106L229.11,36.106L229.11,40.861L235.79,40.861L235.79,42.355L227.335,42.355L227.335,29.233M244.948,36.203C245.329,36.332 245.698,36.607 246.055,37.029C246.419,37.451 246.782,38.031 247.145,38.769L248.947,42.355L247.04,42.355L245.361,38.989C244.928,38.11 244.506,37.527 244.095,37.24C243.691,36.953 243.137,36.81 242.434,36.81L240.501,36.81L240.501,42.355L238.725,42.355L238.725,29.233L242.733,29.233C244.233,29.233 245.352,29.547 246.091,30.174C246.829,30.801 247.198,31.747 247.198,33.013C247.198,33.839 247.005,34.524 246.618,35.069C246.237,35.614 245.68,35.992 244.948,36.203M240.501,30.692L240.501,35.351L242.733,35.351C243.589,35.351 244.233,35.154 244.667,34.762C245.106,34.363 245.326,33.78 245.326,33.013C245.326,32.245 245.106,31.668 244.667,31.281C244.233,30.889 243.589,30.692 242.733,30.692L240.501,30.692M259.107,29.664L259.107,31.395C258.433,31.073 257.798,30.833 257.2,30.675C256.602,30.517 256.025,30.437 255.469,30.437C254.502,30.437 253.755,30.625 253.227,31C252.706,31.375 252.445,31.908 252.445,32.6C252.445,33.18 252.618,33.619 252.964,33.918C253.315,34.211 253.977,34.448 254.95,34.63L256.022,34.85C257.346,35.102 258.322,35.547 258.949,36.186C259.582,36.818 259.898,37.668 259.898,38.734C259.898,40.006 259.47,40.97 258.615,41.626C257.765,42.282 256.517,42.61 254.871,42.61C254.25,42.61 253.588,42.54 252.885,42.399C252.187,42.259 251.464,42.051 250.714,41.775L250.714,39.947C251.434,40.352 252.14,40.656 252.832,40.861C253.523,41.066 254.203,41.169 254.871,41.169C255.885,41.169 256.667,40.97 257.218,40.571C257.768,40.173 258.044,39.604 258.044,38.866C258.044,38.222 257.845,37.718 257.446,37.354C257.054,36.991 256.406,36.719 255.504,36.537L254.423,36.326C253.098,36.062 252.14,35.649 251.549,35.087C250.957,34.524 250.661,33.742 250.661,32.74C250.661,31.58 251.068,30.666 251.883,29.998C252.703,29.33 253.831,28.996 255.266,28.996C255.882,28.996 256.509,29.052 257.147,29.163C257.786,29.274 258.439,29.441 259.107,29.664M270.173,36.089L270.173,40.896L273.02,40.896C273.975,40.896 274.681,40.7 275.138,40.308C275.601,39.909 275.833,39.303 275.833,38.488C275.833,37.668 275.601,37.064 275.138,36.678C274.681,36.285 273.975,36.089 273.02,36.089L270.173,36.089M270.173,30.692L270.173,34.647L272.801,34.647C273.668,34.647 274.312,34.486 274.734,34.164C275.162,33.836 275.376,33.338 275.376,32.67C275.376,32.008 275.162,31.513 274.734,31.185C274.312,30.856 273.668,30.692 272.801,30.692L270.173,30.692M268.397,29.233L272.932,29.233C274.286,29.233 275.329,29.515 276.061,30.077C276.794,30.64 277.16,31.439 277.16,32.477C277.16,33.279 276.972,33.918 276.597,34.393C276.222,34.867 275.672,35.163 274.945,35.28C275.818,35.468 276.495,35.86 276.975,36.458C277.462,37.05 277.705,37.791 277.705,38.682C277.705,39.853 277.306,40.759 276.51,41.397C275.713,42.036 274.579,42.355 273.108,42.355L268.397,42.355L268.397,29.233M280.737,29.233L289.034,29.233L289.034,30.727L282.512,30.727L282.512,34.612L288.762,34.612L288.762,36.106L282.512,36.106L282.512,40.861L289.192,40.861L289.192,42.355L280.737,42.355L280.737,29.233M292.128,29.233L294.518,29.233L300.337,40.211L300.337,29.233L302.059,29.233L302.059,42.355L299.669,42.355L293.85,31.378L293.85,42.355L292.128,42.355L292.128,29.233M315.419,30.244L315.419,32.116C314.821,31.56 314.182,31.144 313.503,30.868C312.829,30.593 312.111,30.455 311.349,30.455C309.849,30.455 308.701,30.915 307.904,31.835C307.107,32.749 306.709,34.073 306.709,35.808C306.709,37.536 307.107,38.86 307.904,39.78C308.701,40.694 309.849,41.151 311.349,41.151C312.111,41.151 312.829,41.014 313.503,40.738C314.182,40.463 314.821,40.047 315.419,39.49L315.419,41.345C314.798,41.767 314.138,42.083 313.441,42.294C312.75,42.505 312.017,42.61 311.244,42.61C309.258,42.61 307.693,42.004 306.551,40.791C305.408,39.572 304.837,37.911 304.837,35.808C304.837,33.698 305.408,32.037 306.551,30.824C307.693,29.605 309.258,28.996 311.244,28.996C312.029,28.996 312.767,29.102 313.459,29.312C314.156,29.518 314.809,29.828 315.419,30.244M318.179,29.233L319.954,29.233L319.954,34.612L326.405,34.612L326.405,29.233L328.18,29.233L328.18,42.355L326.405,42.355L326.405,36.106L319.954,36.106L319.954,42.355L318.179,42.355L318.179,29.233" style="fill:rgb(170,102,0);fill-rule:nonzero;"/>
            <path id="path5743" d="M398.099,47.861L398.099,24.059L571.966,24.059L571.966,47.861" style="fill:rgb(238,238,238);fill-rule:nonzero;stroke:black;stroke-width:1.2px;stroke-linecap:butt;stroke-linejoin:miter;"/>
            <path id="text5745" d="M415.935,30.692L415.935,35.623L418.168,35.623C418.994,35.623 419.633,35.409 420.084,34.981C420.535,34.554 420.76,33.944 420.76,33.153C420.76,32.368 420.535,31.762 420.084,31.334C419.633,30.906 418.994,30.692 418.168,30.692L415.935,30.692M414.16,29.233L418.168,29.233C419.638,29.233 420.749,29.567 421.499,30.235C422.255,30.897 422.633,31.87 422.633,33.153C422.633,34.448 422.255,35.427 421.499,36.089C420.749,36.751 419.638,37.082 418.168,37.082L415.935,37.082L415.935,42.355L414.16,42.355L414.16,29.233M425.023,29.233L426.799,29.233L426.799,40.861L433.188,40.861L433.188,42.355L425.023,42.355L425.023,29.233M439.85,30.982L437.442,37.513L442.268,37.513L439.85,30.982M438.849,29.233L440.861,29.233L445.862,42.355L444.017,42.355L442.821,38.989L436.906,38.989L435.711,42.355L433.839,42.355L438.849,29.233M444.561,29.233L446.469,29.233L450.107,34.63L453.72,29.233L455.627,29.233L450.986,36.106L450.986,42.355L449.202,42.355L449.202,36.106L444.561,29.233M457.367,29.233L465.664,29.233L465.664,30.727L459.143,30.727L459.143,34.612L465.392,34.612L465.392,36.106L459.143,36.106L459.143,40.861L465.822,40.861L465.822,42.355L457.367,42.355L457.367,29.233M474.981,36.203C475.362,36.332 475.731,36.607 476.088,37.029C476.451,37.451 476.815,38.031 477.178,38.769L478.98,42.355L477.073,42.355L475.394,38.989C474.96,38.11 474.538,37.527 474.128,37.24C473.724,36.953 473.17,36.809 472.467,36.809L470.533,36.809L470.533,42.355L468.758,42.355L468.758,29.233L472.766,29.233C474.266,29.233 475.385,29.547 476.123,30.174C476.862,30.801 477.231,31.747 477.231,33.013C477.231,33.839 477.037,34.524 476.651,35.069C476.27,35.614 475.713,35.992 474.981,36.203M470.533,30.692L470.533,35.35L472.766,35.35C473.621,35.35 474.266,35.154 474.699,34.762C475.139,34.363 475.359,33.78 475.359,33.013C475.359,32.245 475.139,31.668 474.699,31.281C474.266,30.888 473.621,30.692 472.766,30.692L470.533,30.692M489.14,29.664L489.14,31.395C488.466,31.073 487.83,30.833 487.233,30.675C486.635,30.516 486.058,30.437 485.501,30.437C484.534,30.437 483.787,30.625 483.26,31C482.739,31.375 482.478,31.908 482.478,32.599C482.478,33.18 482.651,33.619 482.996,33.918C483.348,34.211 484.01,34.448 484.983,34.63L486.055,34.849C487.379,35.101 488.355,35.547 488.982,36.185C489.615,36.818 489.931,37.668 489.931,38.734C489.931,40.006 489.503,40.97 488.648,41.626C487.798,42.282 486.55,42.61 484.904,42.61C484.283,42.61 483.62,42.54 482.917,42.399C482.22,42.259 481.496,42.051 480.746,41.775L480.746,39.947C481.467,40.351 482.173,40.656 482.865,40.861C483.556,41.066 484.236,41.169 484.904,41.169C485.917,41.169 486.7,40.97 487.25,40.571C487.801,40.173 488.076,39.604 488.077,38.866C488.076,38.222 487.877,37.718 487.479,37.354C487.086,36.991 486.439,36.719 485.536,36.537L484.455,36.326C483.131,36.062 482.173,35.649 481.581,35.087C480.99,34.524 480.694,33.742 480.694,32.74C480.694,31.58 481.101,30.666 481.915,29.998C482.736,29.33 483.864,28.996 485.299,28.996C485.914,28.996 486.541,29.052 487.18,29.163C487.819,29.274 488.472,29.441 489.14,29.664M500.206,36.089L500.206,40.896L503.053,40.896C504.008,40.896 504.714,40.7 505.171,40.308C505.634,39.909 505.866,39.303 505.866,38.488C505.866,37.668 505.634,37.064 505.171,36.678C504.714,36.285 504.008,36.089 503.053,36.089L500.206,36.089M500.206,30.692L500.206,34.647L502.833,34.647C503.701,34.647 504.345,34.486 504.767,34.164C505.195,33.836 505.409,33.338 505.409,32.67C505.409,32.008 505.195,31.513 504.767,31.184C504.345,30.856 503.701,30.692 502.833,30.692L500.206,30.692M498.43,29.233L502.965,29.233C504.319,29.233 505.362,29.514 506.094,30.077C506.827,30.639 507.193,31.439 507.193,32.476C507.193,33.279 507.005,33.918 506.63,34.392C506.255,34.867 505.705,35.163 504.978,35.28C505.851,35.468 506.528,35.86 507.008,36.458C507.495,37.05 507.738,37.791 507.738,38.682C507.738,39.853 507.339,40.759 506.542,41.397C505.746,42.036 504.612,42.355 503.141,42.355L498.43,42.355L498.43,29.233M510.77,29.233L519.067,29.233L519.067,30.727L512.545,30.727L512.545,34.612L518.795,34.612L518.795,36.106L512.545,36.106L512.545,40.861L519.225,40.861L519.225,42.355L510.77,42.355L510.77,29.233M522.161,29.233L524.551,29.233L530.37,40.211L530.37,29.233L532.093,29.233L532.093,42.355L529.702,42.355L523.883,31.378L523.883,42.355L522.161,42.355L522.161,29.233M545.452,30.244L545.452,32.116C544.854,31.559 544.216,31.143 543.536,30.868C542.862,30.593 542.144,30.455 541.383,30.455C539.883,30.455 538.734,30.915 537.937,31.835C537.14,32.749 536.742,34.073 536.742,35.807C536.742,37.536 537.14,38.86 537.937,39.78C538.734,40.694 539.883,41.151 541.383,41.151C542.144,41.151 542.862,41.014 543.536,40.738C544.216,40.463 544.854,40.047 545.452,39.49L545.452,41.345C544.831,41.766 544.172,42.083 543.474,42.294C542.783,42.505 542.051,42.61 541.277,42.61C539.291,42.61 537.726,42.004 536.584,40.791C535.441,39.572 534.87,37.911 534.87,35.807C534.87,33.698 535.441,32.037 536.584,30.824C537.726,29.605 539.291,28.996 541.277,28.996C542.062,28.996 542.801,29.101 543.492,29.312C544.189,29.517 544.843,29.828 545.452,30.244M548.212,29.233L549.987,29.233L549.987,34.612L556.438,34.612L556.438,29.233L558.214,29.233L558.214,42.355L556.438,42.355L556.438,36.106L549.987,36.106L549.987,42.355L548.212,42.355L548.212,29.233" style="fill:rgb(170,102,0);fill-rule:nonzero;"/>
            <g id="svg_7">
                <g id="svg_4" transform="matrix(2.25,0,0,2.25,225.829,123.5)">
                    <rect x="-44.368" y="-44.667" width="16" height="10" style="fill:rgb(0,82,147);"/>
                </g>
                <g id="svg_5" transform="matrix(2.25,0,0,2.25,225.829,123.5)">
                    <rect x="-39.368" y="-44.667" width="2" height="10" style="fill:rgb(254,203,0);"/>
                </g>
                <g id="svg_6" transform="matrix(2.25,0,0,2.25,225.829,123.5)">
                    <rect x="-44.368" y="-40.667" width="16" height="2" style="fill:rgb(254,203,0);"/>
                </g>
            </g>
            <g id="svg_14">
                <g id="svg_11" transform="matrix(1.125,0,0,0.71875,103.509,111.64)">
                    <rect x="420.881" y="-123.325" width="32" height="32" style="fill:rgb(255,0,0);"/>
                </g>
                <g id="svg_12" transform="matrix(1.125,0,0,0.71875,103.509,111.64)">
                    <rect x="426.881" y="-110.325" width="20" height="6" style="fill:white;"/>
                </g>
                <g id="svg_13" transform="matrix(1.125,0,0,0.71875,103.509,111.64)">
                    <rect x="433.881" y="-117.325" width="6" height="20" style="fill:white;"/>
                </g>
            </g>
        </g>
    </g>
</svg>
