<?xml version="1.0" encoding="UTF-8" standalone="no"?>
<!DOCTYPE svg PUBLIC "-//W3C//DTD SVG 1.1//EN" "http://www.w3.org/Graphics/SVG/1.1/DTD/svg11.dtd">
<svg width="100%" height="100%" viewBox="0 0 1000 115" version="1.1" xmlns="http://www.w3.org/2000/svg" xmlns:xlink="http://www.w3.org/1999/xlink" xml:space="preserve" xmlns:serif="http://www.serif.com/" style="fill-rule:evenodd;clip-rule:evenodd;stroke-linejoin:round;stroke-miterlimit:2;">
    <g transform="matrix(1,0,0,1,0,-200)">
        <g transform="matrix(1.03785,0,0,0.59375,-33.9285,108.779)">
            <path d="M67.052,234.403L67.052,267.763L37.69,216.439L67.052,165.116L67.052,198.476L961.817,198.476L961.817,165.116L991.179,216.439L961.817,267.763L961.817,234.403L67.052,234.403Z"/>
        </g>
        <g transform="matrix(1,0,0,1,-5.2077,197.594)">
            <g transform="matrix(36,0,0,36,35.2847,102.809)">
                <path d="M0.707,-0.336C0.707,-0.526 0.572,-0.683 0.401,-0.683L0.035,-0.683L0.035,-0.652L0.059,-0.652C0.136,-0.652 0.138,-0.641 0.138,-0.605L0.138,-0.078C0.138,-0.042 0.136,-0.031 0.059,-0.031L0.035,-0.031L0.035,-0L0.401,-0C0.569,-0 0.707,-0.148 0.707,-0.336ZM0.607,-0.336C0.607,-0.225 0.588,-0.165 0.552,-0.116C0.532,-0.089 0.475,-0.031 0.374,-0.031L0.273,-0.031C0.226,-0.031 0.224,-0.038 0.224,-0.071L0.224,-0.612C0.224,-0.645 0.226,-0.652 0.273,-0.652L0.373,-0.652C0.435,-0.652 0.504,-0.63 0.555,-0.559C0.598,-0.5 0.607,-0.414 0.607,-0.336Z" style="fill-rule:nonzero;"/>
            </g>
            <g transform="matrix(36,0,0,36,62.7887,102.809)">
                <path d="M0.415,-0.119C0.415,-0.129 0.407,-0.131 0.402,-0.131C0.393,-0.131 0.391,-0.125 0.389,-0.117C0.354,-0.014 0.264,-0.014 0.254,-0.014C0.204,-0.014 0.164,-0.044 0.141,-0.081C0.111,-0.129 0.111,-0.195 0.111,-0.231L0.39,-0.231C0.412,-0.231 0.415,-0.231 0.415,-0.252C0.415,-0.351 0.361,-0.448 0.236,-0.448C0.12,-0.448 0.028,-0.345 0.028,-0.22C0.028,-0.086 0.133,0.011 0.248,0.011C0.37,0.011 0.415,-0.1 0.415,-0.119ZM0.349,-0.252L0.112,-0.252C0.118,-0.401 0.202,-0.426 0.236,-0.426C0.339,-0.426 0.349,-0.291 0.349,-0.252ZM0.346,-0.662C0.346,-0.68 0.328,-0.698 0.31,-0.698C0.295,-0.698 0.284,-0.687 0.28,-0.681L0.16,-0.528L0.177,-0.51L0.329,-0.632C0.338,-0.639 0.346,-0.65 0.346,-0.662Z" style="fill-rule:nonzero;"/>
            </g>
            <g transform="matrix(36,0,0,36,78.7727,102.809)">
                <path d="M0.36,-0.128C0.36,-0.181 0.33,-0.211 0.318,-0.223C0.285,-0.255 0.246,-0.263 0.204,-0.271C0.148,-0.282 0.081,-0.295 0.081,-0.353C0.081,-0.388 0.107,-0.429 0.193,-0.429C0.303,-0.429 0.308,-0.339 0.31,-0.308C0.311,-0.299 0.322,-0.299 0.322,-0.299C0.335,-0.299 0.335,-0.304 0.335,-0.323L0.335,-0.424C0.335,-0.441 0.335,-0.448 0.324,-0.448C0.319,-0.448 0.317,-0.448 0.304,-0.436C0.301,-0.432 0.291,-0.423 0.287,-0.42C0.249,-0.448 0.208,-0.448 0.193,-0.448C0.071,-0.448 0.033,-0.381 0.033,-0.325C0.033,-0.29 0.049,-0.262 0.076,-0.24C0.108,-0.214 0.136,-0.208 0.208,-0.194C0.23,-0.19 0.312,-0.174 0.312,-0.102C0.312,-0.051 0.277,-0.011 0.199,-0.011C0.115,-0.011 0.079,-0.068 0.06,-0.153C0.057,-0.166 0.056,-0.17 0.046,-0.17C0.033,-0.17 0.033,-0.163 0.033,-0.145L0.033,-0.013C0.033,0.004 0.033,0.011 0.044,0.011C0.049,0.011 0.05,0.01 0.069,-0.009C0.071,-0.011 0.071,-0.013 0.089,-0.032C0.133,0.01 0.178,0.011 0.199,0.011C0.314,0.011 0.36,-0.056 0.36,-0.128L0.36,-0.128Z" style="fill-rule:nonzero;"/>
            </g>
            <g transform="matrix(36,0,0,36,92.9567,102.809)">
                <path d="M0.535,-0L0.535,-0.031C0.465,-0.031 0.457,-0.038 0.457,-0.087L0.457,-0.442L0.31,-0.431L0.31,-0.4C0.38,-0.4 0.388,-0.393 0.388,-0.344L0.388,-0.166C0.388,-0.079 0.34,-0.011 0.267,-0.011C0.183,-0.011 0.179,-0.058 0.179,-0.11L0.179,-0.442L0.032,-0.431L0.032,-0.4C0.11,-0.4 0.11,-0.397 0.11,-0.308L0.11,-0.158C0.11,-0.08 0.11,0.011 0.262,0.011C0.318,0.011 0.362,-0.017 0.391,-0.079L0.391,0.011L0.535,-0Z" style="fill-rule:nonzero;"/>
            </g>
            <g transform="matrix(36,0,0,36,112.973,102.809)">
                <path d="M0.415,-0.119C0.415,-0.129 0.407,-0.131 0.402,-0.131C0.393,-0.131 0.391,-0.125 0.389,-0.117C0.354,-0.014 0.264,-0.014 0.254,-0.014C0.204,-0.014 0.164,-0.044 0.141,-0.081C0.111,-0.129 0.111,-0.195 0.111,-0.231L0.39,-0.231C0.412,-0.231 0.415,-0.231 0.415,-0.252C0.415,-0.351 0.361,-0.448 0.236,-0.448C0.12,-0.448 0.028,-0.345 0.028,-0.22C0.028,-0.086 0.133,0.011 0.248,0.011C0.37,0.011 0.415,-0.1 0.415,-0.119ZM0.349,-0.252L0.112,-0.252C0.118,-0.401 0.202,-0.426 0.236,-0.426C0.339,-0.426 0.349,-0.291 0.349,-0.252Z" style="fill-rule:nonzero;"/>
            </g>
            <g transform="matrix(36,0,0,36,128.957,102.809)">
                <path d="M0.332,-0.124L0.332,-0.181L0.307,-0.181L0.307,-0.126C0.307,-0.052 0.277,-0.014 0.24,-0.014C0.173,-0.014 0.173,-0.105 0.173,-0.122L0.173,-0.4L0.316,-0.4L0.316,-0.431L0.173,-0.431L0.173,-0.615L0.148,-0.615C0.147,-0.533 0.117,-0.426 0.019,-0.422L0.019,-0.4L0.104,-0.4L0.104,-0.124C0.104,-0.001 0.197,0.011 0.233,0.011C0.304,0.011 0.332,-0.06 0.332,-0.124L0.332,-0.124Z" style="fill-rule:nonzero;"/>
            </g>
            <g transform="matrix(36,0,0,36,142.961,102.809)">
                <path d="M0.36,-0.128C0.36,-0.181 0.33,-0.211 0.318,-0.223C0.285,-0.255 0.246,-0.263 0.204,-0.271C0.148,-0.282 0.081,-0.295 0.081,-0.353C0.081,-0.388 0.107,-0.429 0.193,-0.429C0.303,-0.429 0.308,-0.339 0.31,-0.308C0.311,-0.299 0.322,-0.299 0.322,-0.299C0.335,-0.299 0.335,-0.304 0.335,-0.323L0.335,-0.424C0.335,-0.441 0.335,-0.448 0.324,-0.448C0.319,-0.448 0.317,-0.448 0.304,-0.436C0.301,-0.432 0.291,-0.423 0.287,-0.42C0.249,-0.448 0.208,-0.448 0.193,-0.448C0.071,-0.448 0.033,-0.381 0.033,-0.325C0.033,-0.29 0.049,-0.262 0.076,-0.24C0.108,-0.214 0.136,-0.208 0.208,-0.194C0.23,-0.19 0.312,-0.174 0.312,-0.102C0.312,-0.051 0.277,-0.011 0.199,-0.011C0.115,-0.011 0.079,-0.068 0.06,-0.153C0.057,-0.166 0.056,-0.17 0.046,-0.17C0.033,-0.17 0.033,-0.163 0.033,-0.145L0.033,-0.013C0.033,0.004 0.033,0.011 0.044,0.011C0.049,0.011 0.05,0.01 0.069,-0.009C0.071,-0.011 0.071,-0.013 0.089,-0.032C0.133,0.01 0.178,0.011 0.199,0.011C0.314,0.011 0.36,-0.056 0.36,-0.128L0.36,-0.128Z" style="fill-rule:nonzero;"/>
            </g>
        </g>
        <g transform="matrix(1,0,0,1,742.988,197.594)">
            <g transform="matrix(36,0,0,36,35.2847,102.809)">
                <path d="M0.685,-0.452L0.666,-0.677L0.055,-0.677L0.036,-0.452L0.061,-0.452C0.075,-0.613 0.09,-0.646 0.241,-0.646C0.259,-0.646 0.285,-0.646 0.295,-0.644C0.316,-0.64 0.316,-0.629 0.316,-0.606L0.316,-0.079C0.316,-0.045 0.316,-0.031 0.211,-0.031L0.171,-0.031L0.171,-0C0.212,-0.003 0.314,-0.003 0.36,-0.003C0.406,-0.003 0.509,-0.003 0.55,-0L0.55,-0.031L0.51,-0.031C0.405,-0.031 0.405,-0.045 0.405,-0.079L0.405,-0.606C0.405,-0.626 0.405,-0.64 0.423,-0.644C0.434,-0.646 0.461,-0.646 0.48,-0.646C0.631,-0.646 0.646,-0.613 0.66,-0.452L0.685,-0.452Z" style="fill-rule:nonzero;"/>
            </g>
            <g transform="matrix(36,0,0,36,58.2887,102.809)">
                <path d="M0.364,-0.381C0.364,-0.413 0.333,-0.442 0.29,-0.442C0.217,-0.442 0.181,-0.375 0.167,-0.332L0.167,-0.442L0.028,-0.431L0.028,-0.4C0.098,-0.4 0.106,-0.393 0.106,-0.344L0.106,-0.076C0.106,-0.031 0.095,-0.031 0.028,-0.031L0.028,-0L0.142,-0.003C0.182,-0.003 0.229,-0.003 0.269,-0L0.269,-0.031L0.248,-0.031C0.174,-0.031 0.172,-0.042 0.172,-0.078L0.172,-0.232C0.172,-0.331 0.214,-0.42 0.29,-0.42C0.297,-0.42 0.299,-0.42 0.301,-0.419C0.298,-0.418 0.278,-0.406 0.278,-0.38C0.278,-0.352 0.299,-0.337 0.321,-0.337C0.339,-0.337 0.364,-0.349 0.364,-0.381L0.364,-0.381Z" style="fill-rule:nonzero;"/>
            </g>
            <g transform="matrix(36,0,0,36,72.4007,102.809)">
                <path d="M0.415,-0.119C0.415,-0.129 0.407,-0.131 0.402,-0.131C0.393,-0.131 0.391,-0.125 0.389,-0.117C0.354,-0.014 0.264,-0.014 0.254,-0.014C0.204,-0.014 0.164,-0.044 0.141,-0.081C0.111,-0.129 0.111,-0.195 0.111,-0.231L0.39,-0.231C0.412,-0.231 0.415,-0.231 0.415,-0.252C0.415,-0.351 0.361,-0.448 0.236,-0.448C0.12,-0.448 0.028,-0.345 0.028,-0.22C0.028,-0.086 0.133,0.011 0.248,0.011C0.37,0.011 0.415,-0.1 0.415,-0.119ZM0.349,-0.252L0.112,-0.252C0.118,-0.401 0.202,-0.426 0.236,-0.426C0.339,-0.426 0.349,-0.291 0.349,-0.252ZM0.346,-0.662C0.346,-0.68 0.328,-0.698 0.31,-0.698C0.295,-0.698 0.284,-0.687 0.28,-0.681L0.16,-0.528L0.177,-0.51L0.329,-0.632C0.338,-0.639 0.346,-0.65 0.346,-0.662Z" style="fill-rule:nonzero;"/>
            </g>
            <g transform="matrix(36,0,0,36,88.3847,102.809)">
                <path d="M0.36,-0.128C0.36,-0.181 0.33,-0.211 0.318,-0.223C0.285,-0.255 0.246,-0.263 0.204,-0.271C0.148,-0.282 0.081,-0.295 0.081,-0.353C0.081,-0.388 0.107,-0.429 0.193,-0.429C0.303,-0.429 0.308,-0.339 0.31,-0.308C0.311,-0.299 0.322,-0.299 0.322,-0.299C0.335,-0.299 0.335,-0.304 0.335,-0.323L0.335,-0.424C0.335,-0.441 0.335,-0.448 0.324,-0.448C0.319,-0.448 0.317,-0.448 0.304,-0.436C0.301,-0.432 0.291,-0.423 0.287,-0.42C0.249,-0.448 0.208,-0.448 0.193,-0.448C0.071,-0.448 0.033,-0.381 0.033,-0.325C0.033,-0.29 0.049,-0.262 0.076,-0.24C0.108,-0.214 0.136,-0.208 0.208,-0.194C0.23,-0.19 0.312,-0.174 0.312,-0.102C0.312,-0.051 0.277,-0.011 0.199,-0.011C0.115,-0.011 0.079,-0.068 0.06,-0.153C0.057,-0.166 0.056,-0.17 0.046,-0.17C0.033,-0.17 0.033,-0.163 0.033,-0.145L0.033,-0.013C0.033,0.004 0.033,0.011 0.044,0.011C0.049,0.011 0.05,0.01 0.069,-0.009C0.071,-0.011 0.071,-0.013 0.089,-0.032C0.133,0.01 0.178,0.011 0.199,0.011C0.314,0.011 0.36,-0.056 0.36,-0.128L0.36,-0.128Z" style="fill-rule:nonzero;"/>
            </g>
            <g transform="matrix(36,0,0,36,114.557,102.809)">
                <path d="M0.535,-0L0.535,-0.031C0.465,-0.031 0.457,-0.038 0.457,-0.087L0.457,-0.442L0.31,-0.431L0.31,-0.4C0.38,-0.4 0.388,-0.393 0.388,-0.344L0.388,-0.166C0.388,-0.079 0.34,-0.011 0.267,-0.011C0.183,-0.011 0.179,-0.058 0.179,-0.11L0.179,-0.442L0.032,-0.431L0.032,-0.4C0.11,-0.4 0.11,-0.397 0.11,-0.308L0.11,-0.158C0.11,-0.08 0.11,0.011 0.262,0.011C0.318,0.011 0.362,-0.017 0.391,-0.079L0.391,0.011L0.535,-0Z" style="fill-rule:nonzero;"/>
            </g>
            <g transform="matrix(36,0,0,36,134.573,102.809)">
                <path d="M0.332,-0.124L0.332,-0.181L0.307,-0.181L0.307,-0.126C0.307,-0.052 0.277,-0.014 0.24,-0.014C0.173,-0.014 0.173,-0.105 0.173,-0.122L0.173,-0.4L0.316,-0.4L0.316,-0.431L0.173,-0.431L0.173,-0.615L0.148,-0.615C0.147,-0.533 0.117,-0.426 0.019,-0.422L0.019,-0.4L0.104,-0.4L0.104,-0.124C0.104,-0.001 0.197,0.011 0.233,0.011C0.304,0.011 0.332,-0.06 0.332,-0.124L0.332,-0.124Z" style="fill-rule:nonzero;"/>
            </g>
            <g transform="matrix(36,0,0,36,148.577,102.809)">
                <path d="M0.247,-0L0.247,-0.031C0.181,-0.031 0.177,-0.036 0.177,-0.075L0.177,-0.442L0.037,-0.431L0.037,-0.4C0.102,-0.4 0.111,-0.394 0.111,-0.345L0.111,-0.076C0.111,-0.031 0.1,-0.031 0.033,-0.031L0.033,-0L0.143,-0.003C0.178,-0.003 0.213,-0.001 0.247,-0ZM0.192,-0.604C0.192,-0.631 0.169,-0.657 0.139,-0.657C0.105,-0.657 0.085,-0.629 0.085,-0.604C0.085,-0.577 0.108,-0.551 0.138,-0.551C0.172,-0.551 0.192,-0.579 0.192,-0.604Z" style="fill-rule:nonzero;"/>
            </g>
            <g transform="matrix(36,0,0,36,158.585,102.809)">
                <path d="M0.255,-0L0.255,-0.031C0.188,-0.031 0.177,-0.031 0.177,-0.076L0.177,-0.694L0.033,-0.683L0.033,-0.652C0.103,-0.652 0.111,-0.645 0.111,-0.596L0.111,-0.076C0.111,-0.031 0.1,-0.031 0.033,-0.031L0.033,-0L0.144,-0.003L0.255,-0Z" style="fill-rule:nonzero;"/>
            </g>
            <g transform="matrix(36,0,0,36,168.593,102.809)">
                <path d="M0.247,-0L0.247,-0.031C0.181,-0.031 0.177,-0.036 0.177,-0.075L0.177,-0.442L0.037,-0.431L0.037,-0.4C0.102,-0.4 0.111,-0.394 0.111,-0.345L0.111,-0.076C0.111,-0.031 0.1,-0.031 0.033,-0.031L0.033,-0L0.143,-0.003C0.178,-0.003 0.213,-0.001 0.247,-0ZM0.192,-0.604C0.192,-0.631 0.169,-0.657 0.139,-0.657C0.105,-0.657 0.085,-0.629 0.085,-0.604C0.085,-0.577 0.108,-0.551 0.138,-0.551C0.172,-0.551 0.192,-0.579 0.192,-0.604Z" style="fill-rule:nonzero;"/>
            </g>
            <g transform="matrix(36,0,0,36,178.601,102.809)">
                <path d="M0.36,-0.128C0.36,-0.181 0.33,-0.211 0.318,-0.223C0.285,-0.255 0.246,-0.263 0.204,-0.271C0.148,-0.282 0.081,-0.295 0.081,-0.353C0.081,-0.388 0.107,-0.429 0.193,-0.429C0.303,-0.429 0.308,-0.339 0.31,-0.308C0.311,-0.299 0.322,-0.299 0.322,-0.299C0.335,-0.299 0.335,-0.304 0.335,-0.323L0.335,-0.424C0.335,-0.441 0.335,-0.448 0.324,-0.448C0.319,-0.448 0.317,-0.448 0.304,-0.436C0.301,-0.432 0.291,-0.423 0.287,-0.42C0.249,-0.448 0.208,-0.448 0.193,-0.448C0.071,-0.448 0.033,-0.381 0.033,-0.325C0.033,-0.29 0.049,-0.262 0.076,-0.24C0.108,-0.214 0.136,-0.208 0.208,-0.194C0.23,-0.19 0.312,-0.174 0.312,-0.102C0.312,-0.051 0.277,-0.011 0.199,-0.011C0.115,-0.011 0.079,-0.068 0.06,-0.153C0.057,-0.166 0.056,-0.17 0.046,-0.17C0.033,-0.17 0.033,-0.163 0.033,-0.145L0.033,-0.013C0.033,0.004 0.033,0.011 0.044,0.011C0.049,0.011 0.05,0.01 0.069,-0.009C0.071,-0.011 0.071,-0.013 0.089,-0.032C0.133,0.01 0.178,0.011 0.199,0.011C0.314,0.011 0.36,-0.056 0.36,-0.128L0.36,-0.128Z" style="fill-rule:nonzero;"/>
            </g>
            <g transform="matrix(36,0,0,36,192.785,102.809)">
                <path d="M0.415,-0.119C0.415,-0.129 0.407,-0.131 0.402,-0.131C0.393,-0.131 0.391,-0.125 0.389,-0.117C0.354,-0.014 0.264,-0.014 0.254,-0.014C0.204,-0.014 0.164,-0.044 0.141,-0.081C0.111,-0.129 0.111,-0.195 0.111,-0.231L0.39,-0.231C0.412,-0.231 0.415,-0.231 0.415,-0.252C0.415,-0.351 0.361,-0.448 0.236,-0.448C0.12,-0.448 0.028,-0.345 0.028,-0.22C0.028,-0.086 0.133,0.011 0.248,0.011C0.37,0.011 0.415,-0.1 0.415,-0.119ZM0.349,-0.252L0.112,-0.252C0.118,-0.401 0.202,-0.426 0.236,-0.426C0.339,-0.426 0.349,-0.291 0.349,-0.252ZM0.346,-0.662C0.346,-0.68 0.328,-0.698 0.31,-0.698C0.295,-0.698 0.284,-0.687 0.28,-0.681L0.16,-0.528L0.177,-0.51L0.329,-0.632C0.338,-0.639 0.346,-0.65 0.346,-0.662Z" style="fill-rule:nonzero;"/>
            </g>
            <g transform="matrix(36,0,0,36,208.769,102.809)">
                <path d="M0.36,-0.128C0.36,-0.181 0.33,-0.211 0.318,-0.223C0.285,-0.255 0.246,-0.263 0.204,-0.271C0.148,-0.282 0.081,-0.295 0.081,-0.353C0.081,-0.388 0.107,-0.429 0.193,-0.429C0.303,-0.429 0.308,-0.339 0.31,-0.308C0.311,-0.299 0.322,-0.299 0.322,-0.299C0.335,-0.299 0.335,-0.304 0.335,-0.323L0.335,-0.424C0.335,-0.441 0.335,-0.448 0.324,-0.448C0.319,-0.448 0.317,-0.448 0.304,-0.436C0.301,-0.432 0.291,-0.423 0.287,-0.42C0.249,-0.448 0.208,-0.448 0.193,-0.448C0.071,-0.448 0.033,-0.381 0.033,-0.325C0.033,-0.29 0.049,-0.262 0.076,-0.24C0.108,-0.214 0.136,-0.208 0.208,-0.194C0.23,-0.19 0.312,-0.174 0.312,-0.102C0.312,-0.051 0.277,-0.011 0.199,-0.011C0.115,-0.011 0.079,-0.068 0.06,-0.153C0.057,-0.166 0.056,-0.17 0.046,-0.17C0.033,-0.17 0.033,-0.163 0.033,-0.145L0.033,-0.013C0.033,0.004 0.033,0.011 0.044,0.011C0.049,0.011 0.05,0.01 0.069,-0.009C0.071,-0.011 0.071,-0.013 0.089,-0.032C0.133,0.01 0.178,0.011 0.199,0.011C0.314,0.011 0.36,-0.056 0.36,-0.128L0.36,-0.128Z" style="fill-rule:nonzero;"/>
            </g>
        </g>
    </g>
</svg>
