<?xml version="1.0" encoding="UTF-8"?>
<svg width="1200pt" height="1200pt" version="1.1" viewBox="0 0 1200 1200" xmlns="http://www.w3.org/2000/svg">
 <path d="m517.78 754.11c0-30.133 24.516-54.648 54.648-54.648 30.133 0 54.648 24.516 54.648 54.648 0 30.133-24.516 54.648-54.648 54.648-30.137 0-54.648-24.512-54.648-54.648zm641.97-219.18v143.95c0 6.2188-3.5039 11.902-9.0625 14.707-2.3398 1.1758-4.875 1.7617-7.4062 1.7617-3.4648 0-6.9062-1.0898-9.7969-3.2344l-58.297-43.176-58.297 43.176c-4.9961 3.6992-11.645 4.2734-17.203 1.4688-5.5586-2.793-9.0625-8.4844-9.0625-14.707v-143.95c0-5.4492 2.6953-10.543 7.1992-13.617l60.883-41.398v-140.54l-131.09 55.543v211.74c0 6.4883-3.8086 12.367-9.7344 15.023-29.375 13.164-61.371 24.488-95.301 33.871 6.9922 12.809 19.641 20.34 34.691 20.34h38.398c20.707 0 37.543 16.836 37.543 37.543v81.391c0 20.707-16.836 37.543-37.543 37.543h-38.398c-16.641 0-30.367 9.1719-36.734 24.539-6.3672 15.367-3.1484 31.566 8.6211 43.324l27.148 27.148c14.645 14.645 14.633 38.461 0 53.094l-57.551 57.551c-7.0781 7.0781-16.508 10.973-26.547 10.973-10.039 0-19.469-3.8945-26.547-10.973l-27.148-27.148c-11.766-11.766-27.969-14.988-43.324-8.6211-15.367 6.3672-24.539 20.094-24.539 36.734v38.398c0 20.707-16.836 37.543-37.543 37.543h-81.391c-20.707 0-37.543-16.836-37.543-37.543v-38.398c0-16.629-9.1719-30.367-24.539-36.734-15.379-6.3672-31.566-3.1484-43.324 8.6211l-27.148 27.148c-14.645 14.633-38.461 14.645-53.094 0l-57.551-57.551c-7.0781-7.0781-10.973-16.508-10.973-26.547 0-10.039 3.8945-19.469 10.973-26.547l27.16-27.148c0.92969-0.92969 1.8008-1.9102 2.6211-2.9023h-24.43l-81.871 88.262c-3.1211 3.3555-7.4922 5.2656-12.074 5.2656h-31.25c-7.3086 28.039-32.852 48.809-63.16 48.809-35.988 0-65.266-29.277-65.266-65.266 0-35.988 29.277-65.266 65.266-65.266 30.305 0 55.848 20.754 63.16 48.809h24.062l81.871-88.262c3.1211-3.3555 7.4922-5.2656 12.074-5.2656h39.918c-0.52734-2.5117-1.2852-5.0195-2.3125-7.5078-6.3672-15.367-20.094-24.539-36.734-24.539h-38.398c-20.707 0-37.543-16.836-37.543-37.543v-24.234h-42.941c-7.3086 28.039-32.852 48.809-63.16 48.809-35.988 0-65.266-29.277-65.266-65.266s29.277-65.266 65.266-65.266c30.305 0 55.848 20.754 63.16 48.809h42.941v-24.234c0-20.707 16.836-37.543 37.543-37.543h38.398c15.051 0 27.699-7.5312 34.691-20.34-33.93-9.3789-65.914-20.719-95.301-33.871-5.9258-2.6562-9.7344-8.5352-9.7344-15.023v-29.965l-24.477-26.387h-24.062c-7.3086 28.039-32.852 48.809-63.16 48.809-35.988 0-65.266-29.277-65.266-65.266s29.277-65.266 65.266-65.266c30.305 0 55.836 20.754 63.16 48.797h31.25c4.5781 0 8.9492 1.9102 12.074 5.2656l5.2148 5.6328-0.007812-133.38-153.98-65.23c-6.0859-2.582-10.039-8.5469-10.039-15.16s3.957-12.574 10.039-15.16l502.78-212.99c4.1016-1.7383 8.7422-1.7383 12.844 0l502.78 212.99c6.0859 2.582 10.039 8.5469 10.039 15.16v165.39l60.883 41.398c4.5195 3.0664 7.2109 8.1719 7.2109 13.621zm-740.91 219.18c0 84.688 68.902 153.59 153.59 153.59 84.688 0 153.59-68.902 153.59-153.59 0-26.496-6.7578-52.25-19.605-75.121-43.359 5.8164-88.359 8.8398-133.97 8.8398-45.625 0-90.625-3.0234-133.98-8.8398-12.848 22.875-19.609 48.637-19.609 75.121zm371.3-90.172c-0.011719-0.050781-0.035156-0.085937-0.050781-0.13281-16.102 3.7344-32.582 7.0547-49.359 9.9414 11.938 24.969 18.195 52.336 18.195 80.375 0 102.84-83.668 186.52-186.52 186.52-102.84 0-186.52-83.668-186.52-186.52 0-28.039 6.2578-55.406 18.195-80.375-16.777-2.8906-33.246-6.1953-49.359-9.9414-0.011719 0.035156-0.035157 0.085937-0.050781 0.12109-11.461 27.672-37.199 44.867-67.152 44.867h-38.398c-2.4961 0-4.6172 2.1172-4.6172 4.6172v81.391c0 2.4961 2.1172 4.6172 4.6172 4.6172h38.398c29.949 0 55.691 17.191 67.152 44.867 11.461 27.672 5.4258 58.027-15.758 79.211l-27.16 27.148c-1.1523 1.1523-1.3242 2.5469-1.3242 3.2695 0 0.72266 0.17188 2.1055 1.3242 3.2695l57.551 57.551c1.7617 1.7773 4.7617 1.7773 6.5391 0l27.148-27.148c21.184-21.184 51.539-27.219 79.211-15.758 27.672 11.461 44.867 37.199 44.867 67.152v38.398c0 2.4961 2.1172 4.6172 4.6172 4.6172h81.391c2.4961 0 4.6172-2.1172 4.6172-4.6172v-38.398c0-29.949 17.191-55.691 44.867-67.152 27.688-11.461 58.027-5.4258 79.211 15.758l27.148 27.148c1.1523 1.1523 2.5352 1.3242 3.2695 1.3242 0.72266 0 2.1055-0.17188 3.2695-1.3242l57.551-57.551c1.7773-1.7773 1.7773-4.7617 0-6.5391l-27.148-27.148c-21.184-21.184-27.219-51.539-15.758-79.211 11.461-27.672 37.199-44.867 67.152-44.867h38.398c2.4961 0 4.6172-2.1172 4.6172-4.6172v-81.391c0-2.4961-2.1172-4.6172-4.6172-4.6172h-38.398c-29.926 0.011719-55.664-17.18-67.125-44.855zm-140.38-349.42c0-9.0977 7.3711-16.469 16.469-16.469h327.89l-421.7-178.64-460.57 195.11 460.57 195.11 421.7-178.65h-327.89c-9.1016 0-16.473-7.3594-16.473-16.457z" fill="#960000"/>
</svg>
