<svg height='100px' width='100px'  fill="#970000" xmlns="http://www.w3.org/2000/svg" viewBox="0 0 64 64" x="0px" y="0px"><g><path d="M40,62H20a1,1,0,0,1-1-1V56a1,1,0,0,0-1-1H11a3,3,0,0,1-3-3V47H3a1,1,0,0,1-.97-1.242l3.89-15.57A2.731,2.731,0,0,0,6,29.55,24.114,24.114,0,0,1,26.865,6.213,1,1,0,0,1,27.122,8.2,22.1,22.1,0,0,0,8,29.569a4.657,4.657,0,0,1-.138,1.1L4.281,45H9a1,1,0,0,1,1,1v6a1,1,0,0,0,1,1h7a3,3,0,0,1,3,3v4H39V55.23a9.006,9.006,0,0,1,3.769-7.313,22.128,22.128,0,0,0,6.576-7.43,1,1,0,1,1,1.758.953,24.1,24.1,0,0,1-7.174,8.105A7,7,0,0,0,41,55.23V61A1,1,0,0,1,40,62Z"></path><path d="M41.794,39.96c-.023,0-.045,0-.067,0-.347-.023-.692-.055-1.033-.1a1,1,0,1,1,.239-1.985c.307.037.615.066.926.087a1,1,0,0,1-.065,2Zm3.918-.163a1,1,0,0,1-.148-1.989c.308-.046.612-.1.914-.163a1,1,0,1,1,.406,1.958q-.506.1-1.023.183A1.078,1.078,0,0,1,45.712,39.8Zm-8.719-.823a1.008,1.008,0,0,1-.334-.058q-.49-.174-.97-.374a1,1,0,0,1,.77-1.846q.427.178.868.334a1,1,0,0,1-.334,1.944Zm13.419-.565A1,1,0,0,1,50,36.5q.423-.191.832-.4a1,1,0,0,1,.924,1.774q-.461.24-.934.453A1,1,0,0,1,50.412,38.409ZM32.638,36.721a.991.991,0,0,1-.575-.183q-.425-.3-.832-.621a1,1,0,0,1,1.241-1.569q.363.288.743.555a1,1,0,0,1-.577,1.818ZM54.557,35.8a1,1,0,0,1-.642-1.768q.357-.3.694-.613a1,1,0,0,1,1.366,1.461q-.38.355-.779.688A1,1,0,0,1,54.557,35.8Zm-25.5-2.419a1,1,0,0,1-.775-.367c-.218-.268-.43-.541-.633-.82a1,1,0,1,1,1.615-1.18q.273.375.567.734a1,1,0,0,1-.774,1.633Zm28.8-1.207a1,1,0,0,1-.823-1.569q.264-.381.5-.777a1,1,0,1,1,1.707,1.041c-.18.3-.368.588-.565.873A1,1,0,0,1,57.849,32.174ZM26.5,29.2a1,1,0,0,1-.917-.6q-.207-.474-.389-.96a1,1,0,1,1,1.873-.7c.109.289.225.576.348.858a1,1,0,0,1-.915,1.4Zm33.547-1.41A1,1,0,0,1,59.1,26.47q.149-.438.274-.887a1,1,0,0,1,1.926.542c-.094.333-.2.664-.308.99A1,1,0,0,1,60.047,27.793Zm-34.878-3.3a1,1,0,0,1-.989-.863c-.047-.341-.085-.684-.114-1.031a1,1,0,0,1,1.993-.166q.039.466.1.924a1,1,0,0,1-.854,1.127A1.078,1.078,0,0,1,25.169,24.488Zm35.806-1.506H60.92a1,1,0,0,1-.945-1.053Q60,21.467,60,21a1.033,1.033,0,0,1,1-1.038.969.969,0,0,1,1,.963V21c0,.348-.01.693-.027,1.037A1,1,0,0,1,60.975,22.982ZM25.162,19.589a1,1,0,0,1-.993-1.132q.069-.518.166-1.027a1,1,0,0,1,1.964.377c-.057.3-.107.607-.148.914A1,1,0,0,1,25.162,19.589Zm35.4-1.563a1,1,0,0,1-.975-.78c-.068-.3-.145-.6-.229-.9a1,1,0,1,1,1.924-.545q.141.5.256,1a1,1,0,0,1-.756,1.2A.975.975,0,0,1,60.559,18.026ZM26.468,14.867a1,1,0,0,1-.918-1.4q.206-.477.437-.94a1,1,0,1,1,1.792.888q-.207.417-.393.845A1,1,0,0,1,26.468,14.867ZM58.839,13.44a1,1,0,0,1-.88-.523c-.147-.272-.3-.541-.465-.8a1,1,0,0,1,1.7-1.047q.27.441.518.9a1,1,0,0,1-.878,1.477ZM29.008,10.675a1,1,0,0,1-.777-1.63q.327-.4.674-.787A1,1,0,1,1,30.39,9.6q-.312.343-.605.705A1,1,0,0,1,29.008,10.675ZM55.941,9.49a1,1,0,0,1-.718-.3c-.215-.223-.437-.439-.663-.649a1,1,0,1,1,1.359-1.467q.381.353.741.725a1,1,0,0,1-.719,1.7ZM32.582,7.321A1,1,0,0,1,32,5.506c.282-.2.568-.394.863-.579A1,1,0,0,1,33.931,6.62c-.263.165-.519.337-.771.516A1,1,0,0,1,32.582,7.321ZM52.09,6.46a1,1,0,0,1-.5-.136q-.4-.236-.815-.449A1,1,0,0,1,51.687,4.1q.461.238.909.5A1,1,0,0,1,52.09,6.46ZM36.923,5.052a1,1,0,0,1-.338-1.942q.487-.174.987-.323A1,1,0,0,1,38.143,4.7c-.3.088-.592.185-.882.289A1,1,0,0,1,36.923,5.052Zm10.641-.469a1,1,0,0,1-.253-.032q-.447-.117-.9-.21a1,1,0,1,1,.4-1.96q.51.105,1.01.235a1,1,0,0,1-.252,1.967Zm-5.848-.538a1,1,0,0,1-.07-2q.514-.036,1.035-.045a1,1,0,0,1,.035,2c-.312,0-.621.019-.929.04C41.764,4.044,41.739,4.045,41.716,4.045Z"></path><path d="M37,27a1,1,0,0,1-.64-.232l-6-5a1,1,0,0,1,0-1.536l6-5a1,1,0,1,1,1.282,1.536L32.562,21l5.079,4.232A1,1,0,0,1,37,27Z"></path><path d="M49,27a1,1,0,0,1-.642-1.768L53.437,21l-5.078-4.232a1,1,0,1,1,1.282-1.536l6,5a1,1,0,0,1,0,1.536l-6,5A1,1,0,0,1,49,27Z"></path><path d="M40,30a1.038,1.038,0,0,1-.352-.063,1,1,0,0,1-.585-1.288l6-16a1,1,0,1,1,1.874.7l-6,16A1,1,0,0,1,40,30Z"></path></g></svg>