<?xml version="1.0" encoding="utf-8"?>
<!-- Generator: Adobe Illustrator 23.0.3, SVG Export Plug-In . SVG Version: 6.00 Build 0)  -->
<svg version="1.1" id="Layer_1" xmlns="http://www.w3.org/2000/svg" xmlns:xlink="http://www.w3.org/1999/xlink" x="0px" y="0px"
	 viewBox="0 0 1102 422" style="enable-background:new 0 0 1102 422;" xml:space="preserve">
<style type="text/css">
	.st0{fill:#EB9316;}
	.st1{fill:#FFFFFF;}
</style>
<g>
	<circle class="st0" cx="209.3" cy="211" r="207.4"/>
</g>
<g>
	<path id="D" class="st1" d="M396.9,124.8c12.1,25.3,18.6,49.2,19.7,71.7c1,22.5-2.7,43.3-11.2,62.3c-8.5,19.1-21.3,36.4-38.4,52
		s-37.6,29.1-61.5,40.5c-11.8,5.6-25.1,11.4-39.8,17.1c-14.7,5.8-28.5,10-41.3,12.7L89,97.5c10.2-8.3,22.2-16.4,35.9-24.1
		c13.7-7.8,26.5-14.5,38.3-20.1c23.9-11.4,47.3-18.8,70.2-22.3s44.4-2.5,64.6,2.9s38.7,15.6,55.5,30.5
		C370.4,79.3,384.8,99.4,396.9,124.8z M291.7,313.8c38.8-18.5,63.1-42.3,72.8-71.2c9.7-29,6-61.3-11.1-97.1
		c-17-35.7-39.9-59-68.5-69.7S222.6,69,183.7,87.5c-11.5,5.5-20.4,9.9-26.6,13.2c-6.2,3.3-10.5,5.7-12.9,7.2L251,331.7
		c2.7-0.9,7.2-2.8,13.7-5.5C271.1,323.5,280.1,319.3,291.7,313.8z"/>
</g>
<g id="EW">
	<path class="st1" d="M452,362.2V38.1h197.9v38.8H497.4v96.4H633v37.9H497.4v112.3h164.2v38.8L452,362.2L452,362.2z"/>
	<path class="st1" d="M896.3,142.4c-13.1,41.8-26.4,80.5-39.8,116c-13.4,35.5-26.8,70.2-40.2,103.8H771
		c-16.5-47.7-31.1-98.1-43.7-151.1c-12.6-53-24.4-110.7-35.3-173.1h47.7c4.4,24.3,8.9,48.6,13.6,73c4.7,24.3,9.5,47.9,14.5,70.9
		c5,22.9,10,44.8,15,65.7s10.1,40.2,15.4,58c12.5-32.7,25.7-68.7,39.8-107.8c14-39.1,27.1-79.6,39.3-121.4h39.3
		c12.2,41.8,25.4,82.3,39.8,121.4c14.3,39.1,27.8,75.1,40.2,107.8c5-17.5,10-36.6,15-57.5s9.9-42.8,14.7-65.7
		c4.8-22.9,9.6-46.6,14.3-71.1c4.7-24.5,9.2-48.9,13.6-73.2h46.3c-11.2,62.4-23.2,120.1-35.8,173.1c-12.6,53-27.1,103.4-43.3,151.1
		H976c-13.7-33.7-27.1-68.3-40.2-103.8S909.4,184.2,896.3,142.4z"/>
</g>
</svg>
