<?xml version="1.0" encoding="UTF-8"?>
<svg width="1200pt" height="1200pt" version="1.1" viewBox="0 0 1200 1200"
    xmlns="http://www.w3.org/2000/svg">
    <g fill="#FFFFFF">
        <path
            d="m519.38 650.62s-1.875 39.375 9.375 54.375c0 0 11.25 15-30 31.875 0 0 35.625 26.25 20.625 35.625 0 0-24.375 16.875-13.125 54.375 13.125 39.375-24.375 60-50.625 60s-136.88 16.875-136.88 48.75v71.25c0 11.25-9.375 22.5-22.5 22.5h-296.25v-840c3.75-1.875 88.125-9.375 91.875-9.375 108.75-22.5 210 3.75 288.75 61.875 39.375 30 67.5 76.875 71.25 125.62 5.625 60 28.125 157.5 105 230.62-1.875 0 33.75 60-37.5 52.5z" />
        <path
            d="m680.62 650.62s1.875 39.375-9.375 54.375c0 0-11.25 15 30 31.875 0 0-35.625 26.25-20.625 35.625 0 0 24.375 16.875 13.125 54.375-13.125 39.375 24.375 60 50.625 60s136.88 16.875 136.88 48.75v71.25c0 11.25 9.375 22.5 22.5 22.5h296.25v-840c-3.75-1.875-88.125-9.375-91.875-9.375-108.75-22.5-210 3.75-288.75 61.875-39.375 30-67.5 76.875-71.25 125.62-5.625 60-28.125 157.5-105 230.62 1.875 0-33.75 60 37.5 52.5z" />
    </g>
</svg>