<svg height='100px' width='100px'  fill="#970000" xmlns="http://www.w3.org/2000/svg" xmlns:xlink="http://www.w3.org/1999/xlink" version="1.1" x="0px" y="0px" viewBox="0 0 110 110" enable-background="new 0 0 110 110" xml:space="preserve"><g><polygon points="33.75,14.479 32.5,14.479 32.5,9.063 29.75,9.063 29.75,14.479 28.5,14.479 28.5,21.5 33.75,21.5  "></polygon><polygon points="45.688,14.479 44.438,14.479 44.438,9.063 41.688,9.063 41.688,14.479 40.438,14.479 40.438,21.5 45.688,21.5  "></polygon><polygon points="57.625,14.479 56.375,14.479 56.375,9.063 53.625,9.063 53.625,14.479 52.375,14.479 52.375,21.5 57.625,21.5  "></polygon><polygon points="69.563,14.479 68.313,14.479 68.313,9.063 65.563,9.063 65.563,14.479 64.313,14.479 64.313,21.5 69.563,21.5  "></polygon><polygon points="81.5,14.479 80.25,14.479 80.25,9.063 77.5,9.063 77.5,14.479 76.25,14.479 76.25,21.5 81.5,21.5  "></polygon><polygon points="28.5,95.521 29.75,95.521 29.75,100.938 32.5,100.938 32.5,95.521 33.75,95.521 33.75,88.5 28.5,88.5  "></polygon><polygon points="40.438,95.521 41.688,95.521 41.688,100.938 44.438,100.938 44.438,95.521 45.688,95.521 45.688,88.5 40.438,88.5     "></polygon><polygon points="52.375,95.521 53.625,95.521 53.625,100.938 56.375,100.938 56.375,95.521 57.625,95.521 57.625,88.5 52.375,88.5     "></polygon><polygon points="64.313,95.521 65.563,95.521 65.563,100.938 68.313,100.938 68.313,95.521 69.563,95.521 69.563,88.5 64.313,88.5     "></polygon><polygon points="76.25,95.521 77.5,95.521 77.5,100.938 80.25,100.938 80.25,95.521 81.5,95.521 81.5,88.5 76.25,88.5  "></polygon><polygon points="14.479,77.5 9.063,77.5 9.063,80.25 14.479,80.25 14.479,81.5 21.5,81.5 21.5,76.25 14.479,76.25  "></polygon><polygon points="14.479,65.563 9.063,65.563 9.063,68.313 14.479,68.313 14.479,69.563 21.5,69.563 21.5,64.313 14.479,64.313  "></polygon><polygon points="14.479,53.625 9.063,53.625 9.063,56.375 14.479,56.375 14.479,57.625 21.5,57.625 21.5,52.375 14.479,52.375  "></polygon><polygon points="14.479,41.688 9.063,41.688 9.063,44.438 14.479,44.438 14.479,45.688 21.5,45.688 21.5,40.438 14.479,40.438  "></polygon><polygon points="14.479,29.75 9.063,29.75 9.063,32.5 14.479,32.5 14.479,33.75 21.5,33.75 21.5,28.5 14.479,28.5  "></polygon><polygon points="95.521,76.25 88.5,76.25 88.5,81.5 95.521,81.5 95.521,80.25 100.938,80.25 100.938,77.5 95.521,77.5  "></polygon><polygon points="95.521,64.313 88.5,64.313 88.5,69.563 95.521,69.563 95.521,68.313 100.938,68.313 100.938,65.563 95.521,65.563     "></polygon><polygon points="95.521,52.375 88.5,52.375 88.5,57.625 95.521,57.625 95.521,56.375 100.938,56.375 100.938,53.625 95.521,53.625     "></polygon><polygon points="95.521,40.438 88.5,40.438 88.5,45.688 95.521,45.688 95.521,44.438 100.938,44.438 100.938,41.688 95.521,41.688     "></polygon><polygon points="95.521,29.75 95.521,28.5 88.5,28.5 88.5,33.75 95.521,33.75 95.521,32.5 100.938,32.5 100.938,29.75  "></polygon><path d="M83.5,23.5h-57c-1.657,0-3,1.343-3,3v57c0,1.657,1.343,3,3,3h57c1.657,0,3-1.343,3-3v-57   C86.5,24.843,85.157,23.5,83.5,23.5z M77.75,77.75h-45.5v-45.5h45.5V77.75z"></path><rect x="35.25" y="35.25" width="39.5" height="39.5"></rect></g></svg>