<?xml version="1.0" encoding="UTF-8"?>
<svg width="1200pt" height="1200pt" version="1.1" viewBox="0 0 1200 1200" xmlns="http://www.w3.org/2000/svg">
 <g>
  <path d="m493.49 697.97c-29.785 0-54 28.273-54 63s24.215 63 54 63c29.734 0 53.93-28.273 53.93-63-0.003907-34.73-24.195-63-53.93-63zm0 102c-16.535 0-30-17.496-30-39s13.465-39 30-39c16.512 0 29.93 17.496 29.93 39-0.003907 21.504-13.441 39-29.93 39z"/>
  <path d="m614.4 697.97c-6.625 0-12 5.375-12 12v102c0 6.625 5.375 12 12 12s12-5.375 12-12v-102c0-6.625-5.375-12-12-12z"/>
  <path d="m735.36 697.97c-29.734 0-53.93 28.273-53.93 63s24.191 63 53.93 63c29.762 0 53.977-28.273 53.977-63 0-34.73-24.215-63-53.977-63zm0 102c-16.512 0-29.93-17.496-29.93-39s13.441-39 29.93-39c16.512 0 29.977 17.496 29.977 39s-13.465 39-29.977 39z"/>
  <path d="m868.32 811.97v-102c0-6.625-5.375-12-12-12s-12 5.375-12 12v102c0 6.625 5.375 12 12 12s12-5.375 12-12z"/>
  <path d="m935.28 697.97c-6.625 0-12 5.375-12 12v102c0 6.625 5.375 12 12 12s12-5.375 12-12v-102c0-6.625-5.3789-12-12-12z"/>
  <path d="m1014.3 697.97c-6.625 0-12 5.375-12 12v102c0 6.625 5.375 12 12 12s12-5.375 12-12v-102c0-6.625-5.375-12-12-12z"/>
  <path d="m1135.3 823.97c29.734 0 53.953-28.273 53.953-63s-24.215-63-53.953-63c-29.762 0-54 28.273-54 63s24.238 63 54 63zm0-102c16.512 0 29.953 17.496 29.953 39s-13.441 39-29.953 39c-16.535 0-30-17.496-30-39s13.438-39 30-39z"/>
  <path d="m1135.3 878.9c-29.762 0-54 28.273-54 63 0 34.703 24.238 62.953 54 62.953 29.734 0 53.953-28.246 53.953-62.953-0.003906-34.727-24.219-63-53.953-63zm0 101.95c-16.535 0-30-17.496-30-38.953 0-21.504 13.465-39 30-39 16.512 0 29.953 17.496 29.953 39-0.003906 21.48-13.441 38.953-29.953 38.953z"/>
  <path d="m1014.3 878.9c-6.625 0-12 5.375-12 12v101.95c0 6.625 5.375 12 12 12s12-5.375 12-12v-101.95c0-6.6211-5.375-12-12-12z"/>
  <path d="m893.33 878.9c-29.734 0-53.953 28.273-53.953 63 0 34.703 24.215 62.953 53.953 62.953 29.734 0 53.953-28.246 53.953-62.953 0-34.727-24.219-63-53.953-63zm0 101.95c-16.512 0-29.953-17.496-29.953-38.953 0-21.504 13.441-39 29.953-39s29.953 17.496 29.953 39c0 21.48-13.441 38.953-29.953 38.953z"/>
  <path d="m784.41 992.86v-101.95c0-6.625-5.375-12-12-12s-12 5.375-12 12v101.95c0 6.625 5.375 12 12 12s12-5.3516 12-12z"/>
  <path d="m693.43 1004.9c6.625 0 12-5.375 12-12v-101.95c0-6.625-5.375-12-12-12s-12 5.375-12 12v101.95c0 6.6484 5.3516 12 12 12z"/>
  <path d="m614.4 878.9c-6.625 0-12 5.375-12 12v101.95c0 6.625 5.375 12 12 12s12-5.375 12-12v-101.95c0-6.6211-5.375-12-12-12z"/>
  <path d="m493.49 878.9c-29.785 0-54 28.273-54 63 0 34.703 24.215 62.953 54 62.953 29.734 0 53.93-28.246 53.93-62.953-0.003907-34.727-24.195-63-53.93-63zm0 101.95c-16.535 0-30-17.496-30-38.953 0-21.504 13.465-39 30-39 16.512 0 29.93 17.496 29.93 39-0.003907 21.48-13.441 38.953-29.93 38.953z"/>
  <path d="m493.49 1059.9c-29.785 0-54 28.246-54 62.953 0 34.727 24.215 63 54 63 29.734 0 53.93-28.273 53.93-63-0.003907-34.703-24.195-62.953-53.93-62.953zm0 101.95c-16.535 0-30-17.496-30-39 0-21.48 13.465-38.953 30-38.953 16.512 0 29.93 17.496 29.93 38.953-0.003907 21.527-13.441 39-29.93 39z"/>
  <path d="m614.4 1059.9c-6.625 0-12 5.375-12 12v101.95c0 6.625 5.375 12 12 12s12-5.375 12-12v-101.95c0-6.6211-5.375-12-12-12z"/>
  <path d="m735.36 1059.9c-29.734 0-53.93 28.246-53.93 62.953 0 34.727 24.191 63 53.93 63 29.762 0 53.977-28.273 53.977-63 0-34.703-24.215-62.953-53.977-62.953zm0 101.95c-16.512 0-29.93-17.496-29.93-39 0-21.48 13.441-38.953 29.93-38.953 16.512 0 29.977 17.496 29.977 38.953 0 21.527-13.465 39-29.977 39z"/>
  <path d="m856.32 1059.9c-6.625 0-12 5.375-12 12v101.95c0 6.625 5.375 12 12 12s12-5.375 12-12v-101.95c0-6.6211-5.375-12-12-12z"/>
  <path d="m935.28 1059.9c-6.625 0-12 5.375-12 12v101.95c0 6.625 5.375 12 12 12s12-5.375 12-12v-101.95c0-6.6211-5.3789-12-12-12z"/>
  <path d="m1014.3 1059.9c-6.625 0-12 5.375-12 12v101.95c0 6.625 5.375 12 12 12s12-5.375 12-12v-101.95c0-6.6211-5.375-12-12-12z"/>
  <path d="m1135.3 1059.9c-29.762 0-54 28.246-54 62.953 0 34.727 24.238 63 54 63 29.734 0 53.953-28.273 53.953-63-0.003906-34.703-24.219-62.953-53.953-62.953zm0 101.95c-16.535 0-30-17.496-30-39 0-21.48 13.465-38.953 30-38.953 16.512 0 29.953 17.496 29.953 38.953-0.003906 21.527-13.441 39-29.953 39z"/>
  <path d="m26.062 47.281c0 4.6797 0.625 9.168 1.3906 14.426 0.57422 4.1523 1.1992 8.3516 1.1992 12.504 0 3.457 0 4.7266-5.8555 4.7266h-7.1992v22.633h7.1992c5.8555 0 5.8555 1.8711 5.8555 4.7031 0 4.0078-0.60156 7.9922-1.1992 12-0.69531 4.7031-1.3906 9.6016-1.3906 14.281 0 18.625 11.16 29.305 30.602 29.305h10.586v-23.281l-10.129-0.003906c-3.7422 0-5.5195-0.28906-5.5195-6.8164 0-3.4805 0.48047-6.8164 1.0547-10.512 0.67188-4.2227 1.1992-8.5938 1.1992-13.297 0.097656-7.3438-1.8711-13.441-5.6172-17.809 3.2891-3.7188 5.7344-9.2891 5.6172-17.566 0-4.7773-0.52734-8.9766-1.2227-13.465-0.57422-3.5039-1.0547-6.9609-1.0547-10.273 0-6.4336 1.6094-6.6719 5.5195-6.6719h10.152l-0.003906-23.203h-10.582c-19.152 0-30.602 10.582-30.602 28.32z"/>
  <path d="m54.168 543.62c0-4.1523 0.625-8.3281 1.3203-13.055 0.64844-4.6797 1.2461-9.168 1.2461-13.871 0-17.734-11.496-28.32-30.719-28.32l-10.441-0.003906v23.23h9.9609c4.2969 0.097656 5.6875 0.625 5.6875 6.6953 0 2.5195-0.38281 5.1367-0.71875 7.7773l-0.33594 2.543c-0.71875 4.3906-1.3672 8.6172-1.3672 13.367 0 8.3047 2.4727 13.871 5.7109 17.594-3.7188 4.3672-5.7109 10.414-5.7109 17.734 0 4.8242 0.67188 9.2148 1.3438 13.078l0.38281 3.0977c0.33594 2.5938 0.69531 5.0898 0.69531 7.6797 0 6.1211-1.6797 6.7422-5.7109 6.8164l-9.9375 0.003907v23.281h10.586c19.129 0 30.551-10.945 30.551-29.305 0-4.7031-0.64844-9.5508-1.3438-14.281-0.60156-4.0078-1.2461-8.0156-1.2461-12 0-2.8555 0-4.7266 5.9023-4.7266h7.1992v-22.609h-7.1992c-5.8555 0.023438-5.8555-1.2734-5.8555-4.7266z"/>
  <path d="m81.359 202.63h445.44c6.625 0 12-5.375 12-12s-5.375-12-12-12h-445.44c-6.625 0-12 5.375-12 12s5.3516 12 12 12z"/>
  <path d="m81.359 269.88h327.79c6.625 0 12-5.375 12-12s-5.375-12-12-12h-327.79c-6.625 0-12 5.375-12 12s5.3516 12 12 12z"/>
  <path d="m578.9 245.88h-127.73c-6.625 0-12 5.375-12 12s5.375 12 12 12h127.73c6.625 0 12-5.375 12-12 0-6.6211-5.375-12-12-12z"/>
  <path d="m81.359 337.13h252.12c6.625 0 12-5.375 12-12s-5.375-12-12-12h-252.12c-6.625 0-12 5.375-12 12s5.3516 12 12 12z"/>
  <path d="m365.18 325.13c0 6.625 5.375 12 12 12h95.832c6.625 0 12-5.375 12-12s-5.375-12-12-12h-95.832c-6.6484 0-12 5.375-12 12z"/>
  <path d="m409.15 380.38h-327.79c-6.625 0-12 5.375-12 12s5.375 12 12 12h327.79c6.625 0 12-5.375 12-12 0-6.6211-5.375-12-12-12z"/>
  <path d="m195.86 459.6c0-6.625-5.375-12-12-12h-102.5c-6.625 0-12 5.375-12 12s5.375 12 12 12h102.5c6.6484 0 12-5.3555 12-12z"/>
  <path d="m328.13 944.9c0-0.43359-0.19141-0.81641-0.23828-1.2461-0.070313-0.79297-0.21484-1.5117-0.48047-2.2812-0.097656-0.35938-0.070312-0.71875-0.21484-1.0547-0.19141-0.45703-0.52734-0.76953-0.76953-1.1758-0.21484-0.38281-0.26562-0.81641-0.50391-1.1758l-42.098-59.207c-3.8398-5.375-11.305-6.625-16.727-2.8086-5.3984 3.8398-6.6719 11.328-2.832 16.727l28.297 39.816c-52.008-1.9219-106.2-11.711-142.41-51.168-32.664-35.566-45.984-91.871-39.527-167.33 0.55078-6.6016-4.3203-12.434-10.945-12.984-6.7422-0.55078-12.434 4.3438-12.984 10.922-7.0312 82.441 8.3516 144.86 45.742 185.59 41.062 44.734 101.52 56.207 155.69 58.68l-22.656 23.016c-4.6328 4.7031-4.5859 12.312 0.14453 16.969 2.3281 2.3047 5.375 3.457 8.4258 3.457 3.0977 0 6.1914-1.1992 8.543-3.5742l42-42.672h0.023437l0.046876-0.070312c0.23828-0.26563 0.33594-0.57422 0.55078-0.83984 0.070312-0.12109 0.12109-0.23828 0.21484-0.33594 0.45703-0.57422 0.86328-1.1523 1.1992-1.7773 0.16797-0.33594 0.43359-0.57422 0.55078-0.91016 0.19141-0.45703 0.16797-0.9375 0.3125-1.3906 0.19141-0.71875 0.35938-1.4414 0.40625-2.207 0.023438-0.33594 0.19141-0.60156 0.19141-0.96094 0.078125 0.015626 0.054687-0.011718 0.054687-0.011718z"/>
  <path d="m774.72 238.61 22.656-23.016c4.6328-4.7266 4.5859-12.312-0.14453-16.969-4.6562-4.6094-12.312-4.6094-16.969 0.14453l-42 42.672c-0.023438 0-0.023438 0-0.046875 0.023438l-0.046875 0.046875c-0.23828 0.23828-0.33594 0.55078-0.52734 0.83984-0.070313 0.070313-0.12109 0.19141-0.19141 0.28906-0.48047 0.60156-0.91016 1.1758-1.2734 1.8711-0.16797 0.3125-0.40625 0.57422-0.52734 0.91016-0.19141 0.45703-0.19141 0.91016-0.3125 1.3672-0.21484 0.74219-0.35938 1.4414-0.43359 2.207-0.023438 0.33594-0.19141 0.625-0.19141 0.98438v0.046875c0 0.45703 0.21484 0.86328 0.26562 1.3203 0.070313 0.71875 0.21484 1.4414 0.43359 2.1367 0.12109 0.38281 0.097656 0.76953 0.26562 1.1289 0.19141 0.45703 0.55078 0.79297 0.79297 1.2227 0.21484 0.35937 0.26562 0.74219 0.50391 1.0781l42.098 59.207c2.3516 3.2891 6.0234 5.0391 9.7695 5.0391 2.4258 0 4.8477-0.71875 6.9609-2.207 5.3984-3.8398 6.6484-11.328 2.8086-16.727l-28.32-39.84c52.031 1.9219 106.22 11.711 142.46 51.168 32.664 35.566 45.961 91.871 39.504 167.33-0.55078 6.6016 4.3438 12.406 10.922 12.984 0.35937 0.023437 0.69531 0.046874 1.0547 0.046874 6.168 0 11.398-4.7266 11.93-10.992 7.0547-82.414-8.3516-144.86-45.742-185.59-41.055-44.777-101.54-56.273-155.7-58.719z"/>
 </g>
</svg>
