<?xml version="1.0" encoding="UTF-8"?>
<svg width="1200pt" height="1200pt" version="1.1" viewBox="0 0 1200 1200" xmlns="http://www.w3.org/2000/svg">
 <g>
  <path d="m80 440c-11.039 0.007812-19.992-8.9375-20-19.977v-0.023438-360c0.035156-33.121 26.879-59.965 60-60h960c33.121 0.035156 59.965 26.879 60 60v260c0 11.047-8.9531 20-20 20s-20-8.9531-20-20v-260c-0.007812-11.043-8.957-19.992-20-20h-960c-11.043 0.007812-19.992 8.957-20 20v360c0.007812 11.039-8.9375 19.992-19.977 20h-0.023438z"/>
  <path d="m660 1120h-80c-11.047 0-20-8.9531-20-20s8.9531-20 20-20h80c11.047 0 20 8.9531 20 20s-8.9531 20-20 20z"/>
  <path d="m340 1120h-220c-33.121-0.035156-59.965-26.879-60-60v-360c0-11.047 8.9531-20 20-20s20 8.9531 20 20v360c0.007812 11.043 8.957 19.992 20 20h220c11.047 0 20 8.9531 20 20s-8.9531 20-20 20z"/>
  <path d="m1080 1120h-220c-11.047 0-20-8.9531-20-20s8.9531-20 20-20h220c11.043-0.007812 19.992-8.957 20-20v-480c0-11.047 8.9531-20 20-20s20 8.9531 20 20v480c-0.035156 33.121-26.879 59.965-60 60z"/>
  <path d="m200 200c-33.137 0-60-26.863-60-60s26.863-60 60-60 60 26.863 60 60c-0.035156 33.121-26.879 59.965-60 60zm0-80c-11.047 0-20 8.9531-20 20s8.9531 20 20 20 20-8.9531 20-20c-0.007812-11.043-8.957-19.992-20-20z"/>
  <path d="m1e3 200c-33.137 0-60-26.863-60-60s26.863-60 60-60 60 26.863 60 60c-0.035156 33.121-26.879 59.965-60 60zm0-80c-11.047 0-20 8.9531-20 20s8.9531 20 20 20 20-8.9531 20-20c-0.007812-11.043-8.957-19.992-20-20z"/>
  <path d="m200 1040c-33.137 0-60-26.863-60-60s26.863-60 60-60 60 26.863 60 60c-0.035156 33.121-26.879 59.965-60 60zm0-80c-11.047 0-20 8.9531-20 20s8.9531 20 20 20 20-8.9531 20-20c-0.007812-11.043-8.957-19.992-20-20z"/>
  <path d="m1e3 1040c-33.137 0-60-26.863-60-60s26.863-60 60-60 60 26.863 60 60c-0.035156 33.121-26.879 59.965-60 60zm0-80c-11.047 0-20 8.9531-20 20s8.9531 20 20 20 20-8.9531 20-20c-0.007812-11.043-8.957-19.992-20-20z"/>
  <path d="m1160 600h-240c-22.078-0.027344-39.973-17.922-40-40v-220c0.027344-22.078 17.922-39.973 40-40h240c22.078 0.027344 39.973 17.922 40 40v220c-0.027344 22.078-17.922 39.973-40 40zm-240-260v220h240.04l-0.039062-220z"/>
  <path d="m860 1040h-200c-11.039 0.007812-19.992-8.9375-20-19.977v-0.023438-220c0.027344-22.078 17.922-39.973 40-40h160c22.078 0.027344 39.973 17.922 40 40v220c0.007812 11.039-8.9375 19.992-19.977 20h-0.023438zm-180-40h160v-200h-160z"/>
  <path d="m820 1200h-120c-33.121-0.035156-59.965-26.879-60-60v-120c-0.007812-11.039 8.9375-19.992 19.977-20h0.023438 200c11.039-0.007812 19.992 8.9375 20 19.977v0.023438 120c-0.035156 33.121-26.879 59.965-60 60zm-140-160v100c0.007812 11.043 8.957 19.992 20 20h120c11.043-0.007812 19.992-8.957 20-20v-100z"/>
  <path d="m560 1180h-200c-22.078-0.027344-39.973-17.922-40-40v-200c0.027344-22.078 17.922-39.973 40-40h200c22.078 0.027344 39.973 17.922 40 40v200c-0.027344 22.078-17.922 39.973-40 40zm-200-240v200h200.04l-0.039062-200z"/>
  <path d="m720 720h-240c-22.078-0.027344-39.973-17.922-40-40v-240c0.027344-22.078 17.922-39.973 40-40h240c22.078 0.027344 39.973 17.922 40 40v240c-0.027344 22.078-17.922 39.973-40 40zm-240-280v240h240.04l-0.039062-240z"/>
  <path d="m320 120c-2.6133-0.03125-5.1953-0.57812-7.5977-1.6016-2.4258-1.0117-4.6562-2.4297-6.6016-4.1992-1.7578-1.9961-3.2422-4.2148-4.4141-6.6016-0.95703-2.418-1.4297-5-1.3867-7.5977 0.070312-5.2969 2.1406-10.371 5.8008-14.199 4.7188-4.6875 11.465-6.7148 17.988-5.4102 1.3281 0.19531 2.6133 0.60547 3.8086 1.2109 1.2305 0.39453 2.3789 1 3.3984 1.7969 1.1484 0.6875 2.2227 1.4961 3.2031 2.4023 3.6523 3.8359 5.7227 8.9062 5.8008 14.199-0.03125 2.6133-0.57812 5.1953-1.6016 7.5977-1.0156 2.4219-2.4375 4.6562-4.1992 6.6016-1.9453 1.7617-4.1797 3.1836-6.6016 4.1992-2.4023 1.0234-4.9844 1.5703-7.5977 1.6016z"/>
  <path d="m320 200c-2.6133-0.03125-5.1953-0.57812-7.5977-1.6016-2.4258-1.0117-4.6562-2.4297-6.6016-4.1992-1.7578-1.9961-3.2422-4.2148-4.4141-6.6016-0.95703-2.418-1.4297-5-1.3867-7.5977 0.027344-5.3047 2.1055-10.391 5.8008-14.199 1.9453-1.7695 4.1758-3.1875 6.6016-4.1992 3.5742-1.5898 7.5586-2.0156 11.387-1.2109 1.3281 0.19531 2.6133 0.60547 3.8086 1.2109 1.2734 0.43359 2.4844 1.0352 3.5938 1.7969 1.0508 0.74219 2.0547 1.543 3.0078 2.4023l2.4023 2.9883c0.75391 1.1211 1.3555 2.3359 1.7969 3.6133 0.57812 1.1289 0.98047 2.3398 1.1914 3.5938 0.24219 1.3203 0.37891 2.6602 0.41016 4.0039-0.03125 2.6133-0.57812 5.1953-1.6016 7.5977-1.8203 5.0234-5.7773 8.9805-10.801 10.801-2.4023 1.0273-4.9844 1.5703-7.5977 1.6016z"/>
  <path d="m400 120c-2.6133-0.03125-5.1953-0.57812-7.5977-1.6016-2.4258-1.0117-4.6562-2.4297-6.6016-4.1992-1.7617-1.9453-3.1836-4.1797-4.1992-6.6016-1.0234-2.4023-1.5703-4.9844-1.6016-7.5977 0.070312-5.2969 2.1406-10.371 5.8008-14.199 4.7188-4.6875 11.465-6.7148 17.988-5.4102 1.3281 0.19531 2.6133 0.60547 3.8086 1.2109 1.2734 0.43359 2.4844 1.0352 3.5938 1.7969 1.0508 0.74219 2.0547 1.543 3.0078 2.4023 3.6523 3.8359 5.7227 8.9062 5.8008 14.199-0.03125 2.6133-0.57812 5.1953-1.6016 7.5977-1.0156 2.4219-2.4375 4.6562-4.1992 6.6016-1.9453 1.7617-4.1797 3.1836-6.6016 4.1992-2.4023 1.0234-4.9844 1.5703-7.5977 1.6016z"/>
  <path d="m400 200c-2.6133-0.03125-5.1953-0.57812-7.5977-1.6016-2.4258-1.0117-4.6562-2.4297-6.6016-4.1992-1.7617-1.9453-3.1836-4.1797-4.1992-6.6016-1.0234-2.4023-1.5703-4.9844-1.6016-7.5977 0.035156-1.3438 0.16406-2.6797 0.39062-4.0039 0.22656-1.25 0.63281-2.4609 1.2109-3.5938 0.42969-1.2812 1.0352-2.4961 1.7969-3.6133 0.74219-1.043 1.543-2.043 2.4023-2.9883 8.0195-7.4023 20.379-7.4023 28.398 0 0.85938 0.94922 1.6602 1.9453 2.4023 2.9883 0.75391 1.1211 1.3555 2.3359 1.7969 3.6133 0.57812 1.1289 0.98047 2.3398 1.1914 3.5938 0.24219 1.3203 0.37891 2.6602 0.41016 4.0039-0.03125 2.6133-0.57812 5.1953-1.6016 7.5977-1.8203 5.0234-5.7773 8.9805-10.801 10.801-2.4023 1.0273-4.9844 1.5703-7.5977 1.6016z"/>
  <path d="m480 120c-2.6133-0.03125-5.1953-0.57812-7.5977-1.6016-2.4258-1.0117-4.6562-2.4297-6.6016-4.1992-1.8203-1.9453-3.3125-4.1758-4.4141-6.6016-0.95703-2.418-1.4297-5-1.3867-7.5977 0-11.047 8.9531-20 20-20s20 8.9531 20 20c-0.03125 2.6133-0.57812 5.1953-1.6016 7.5977-1.0156 2.4219-2.4375 4.6562-4.1992 6.6016-3.7656 3.7578-8.8789 5.8438-14.199 5.8008z"/>
  <path d="m480 200c-2.6133-0.03125-5.1953-0.57812-7.5977-1.6016-2.4258-1.0117-4.6562-2.4297-6.6016-4.1992-1.7617-1.9453-3.1836-4.1797-4.1992-6.6016-1.0234-2.4023-1.5703-4.9844-1.6016-7.5977 0.027344-5.3047 2.1055-10.391 5.8008-14.199 8.0195-7.4023 20.379-7.4023 28.398 0 3.6875 3.8125 5.7617 8.8984 5.8008 14.199-0.03125 2.6133-0.57812 5.1953-1.6016 7.5977-1.8203 5.0234-5.7773 8.9805-10.801 10.801-2.4023 1.0273-4.9844 1.5703-7.5977 1.6016z"/>
  <path d="m560 120c-2.6133-0.03125-5.1953-0.57812-7.5977-1.6016-2.4258-1.0117-4.6562-2.4297-6.6016-4.1992-1.7578-1.9961-3.2422-4.2148-4.4141-6.6016-0.95703-2.418-1.4297-5-1.3867-7.5977 0.070312-5.2969 2.1406-10.371 5.8008-14.199 4.7188-4.6875 11.465-6.7148 17.988-5.4102 1.3281 0.19531 2.6133 0.60547 3.8086 1.2109 1.2734 0.43359 2.4844 1.0352 3.5938 1.7969 1.0508 0.74219 2.0547 1.543 3.0078 2.4023 3.6523 3.8359 5.7227 8.9062 5.8008 14.199-0.03125 2.6133-0.57812 5.1953-1.6016 7.5977-1.0156 2.4219-2.4375 4.6562-4.1992 6.6016-3.7656 3.7578-8.8789 5.8438-14.199 5.8008z"/>
  <path d="m560 200c-2.6133-0.03125-5.1953-0.57812-7.5977-1.6016-2.4258-1.0117-4.6562-2.4297-6.6016-4.1992-1.7578-1.9961-3.2422-4.2148-4.4141-6.6016-0.95703-2.418-1.4297-5-1.3867-7.5977 0.027344-5.3047 2.1055-10.391 5.8008-14.199 1.9453-1.7695 4.1758-3.1875 6.6016-4.1992 3.5742-1.5898 7.5586-2.0156 11.387-1.2109 1.3281 0.19531 2.6133 0.60547 3.8086 1.2109 1.2734 0.43359 2.4844 1.0352 3.5938 1.7969 1.0508 0.74219 2.0547 1.543 3.0078 2.4023l2.4023 2.9883c0.75391 1.1211 1.3555 2.3359 1.7969 3.6133 0.57812 1.1289 0.98047 2.3398 1.1914 3.5938 0.24219 1.3203 0.37891 2.6602 0.41016 4.0039-0.03125 2.6133-0.57812 5.1953-1.6016 7.5977-1.8203 5.0234-5.7773 8.9805-10.801 10.801-2.4023 1.0273-4.9844 1.5703-7.5977 1.6016z"/>
  <path d="m640 120c-5.3203 0.050781-10.438-2.0391-14.199-5.8008-1.7617-1.9453-3.1836-4.1797-4.1992-6.6016-1.0234-2.4023-1.5703-4.9844-1.6016-7.5977 0.027344-5.3047 2.1055-10.391 5.8008-14.199 7.7773-7.8438 20.441-7.8945 28.285-0.11719 3.8164 3.7852 5.9453 8.9453 5.9141 14.316-0.03125 2.6133-0.57812 5.1953-1.6016 7.5977-1.0156 2.4219-2.4375 4.6562-4.1992 6.6016-3.7656 3.7578-8.8789 5.8438-14.199 5.8008z"/>
  <path d="m640 200c-2.6133-0.03125-5.1953-0.57812-7.5977-1.6016-2.4258-1.0117-4.6562-2.4297-6.6016-4.1992-1.7617-1.9453-3.1836-4.1797-4.1992-6.6016-1.0234-2.4023-1.5703-4.9844-1.6016-7.5977 0.035156-1.3438 0.16406-2.6797 0.39062-4.0039 0.22656-1.25 0.63281-2.4609 1.2109-3.5938 0.42969-1.2812 1.0352-2.4961 1.7969-3.6133 0.74219-1.043 1.543-2.043 2.4023-2.9883 4.7891-4.7188 11.613-6.75 18.203-5.4102 1.25 0.23047 2.4609 0.63672 3.5938 1.2109 1.2734 0.43359 2.4844 1.0352 3.5938 1.7969 1.0234 0.69531 1.9688 1.5 2.8125 2.4023 5.875 5.6328 7.6289 14.328 4.3945 21.797-1.0156 2.4688-2.5078 4.7148-4.3945 6.6016-3.7734 3.625-8.7734 5.6953-14.004 5.8008z"/>
  <path d="m720 120c-5.3203 0.050781-10.438-2.0391-14.199-5.8008-1.8203-1.9453-3.3125-4.1758-4.4141-6.6016-0.95703-2.418-1.4297-5-1.3867-7.5977-0.0625-11.047 8.8398-20.051 19.883-20.117 5.375-0.03125 10.531 2.1016 14.316 5.918 3.6836 3.8125 5.7617 8.8984 5.8008 14.199-0.03125 2.6133-0.57812 5.1953-1.6016 7.5977-1.0156 2.4219-2.4375 4.6562-4.1992 6.6016-1.9453 1.7617-4.1797 3.1836-6.6016 4.1992-2.4023 1.0234-4.9844 1.5703-7.5977 1.6016z"/>
  <path d="m720 200c-2.6133-0.03125-5.1953-0.57812-7.5977-1.6016-2.4258-1.0117-4.6562-2.4297-6.6016-4.1992-1.7617-1.9453-3.1836-4.1797-4.1992-6.6016-1.0234-2.4023-1.5703-4.9844-1.6016-7.5977 0.027344-5.3047 2.1055-10.391 5.8008-14.199 8.0195-7.4023 20.379-7.4023 28.398 0 3.6875 3.8125 5.7617 8.8984 5.8008 14.199-0.03125 2.6133-0.57812 5.1953-1.6016 7.5977-1.8203 5.0234-5.7773 8.9805-10.801 10.801-2.4023 1.0273-4.9844 1.5703-7.5977 1.6016z"/>
  <path d="m800 120c-5.3203 0.050781-10.438-2.0391-14.199-5.8008-1.7617-1.9453-3.1836-4.1797-4.1992-6.6016-1.0234-2.4023-1.5703-4.9844-1.6016-7.5977 0-11.047 8.9531-20 20-20s20 8.9531 20 20c-0.03125 2.6133-0.57812 5.1953-1.6016 7.5977-1.0156 2.4219-2.4375 4.6562-4.1992 6.6016-3.7656 3.7578-8.8789 5.8438-14.199 5.8008z"/>
  <path d="m800 200c-2.6133-0.03125-5.1953-0.57812-7.5977-1.6016-2.4258-1.0117-4.6562-2.4297-6.6016-4.1992-1.7578-1.9961-3.2422-4.2148-4.4141-6.6016-0.95703-2.418-1.4297-5-1.3867-7.5977 0.027344-5.3047 2.1055-10.391 5.8008-14.199 0.94922-0.85938 1.9453-1.6602 2.9883-2.4023 1.1172-0.76172 2.332-1.3672 3.6133-1.7969 1.1328-0.57812 2.3438-0.98437 3.5938-1.2109 2.5664-0.58594 5.2266-0.58594 7.793 0 1.3281 0.19531 2.6133 0.60547 3.8086 1.2109 1.2734 0.43359 2.4844 1.0352 3.5938 1.7969 1.0508 0.74219 2.0547 1.543 3.0078 2.4023l2.4023 2.9883c0.75391 1.1211 1.3555 2.3359 1.7969 3.6133 0.57812 1.1289 0.98047 2.3398 1.1914 3.5938 0.24219 1.3203 0.37891 2.6602 0.41016 4.0039-0.03125 2.6133-0.57812 5.1953-1.6016 7.5977-1.8203 5.0234-5.7773 8.9805-10.801 10.801-2.4023 1.0273-4.9844 1.5703-7.5977 1.6016z"/>
  <path d="m880 120c-5.3203 0.050781-10.438-2.0391-14.199-5.8008-1.7578-1.9961-3.2422-4.2148-4.4141-6.6016-0.95703-2.418-1.4297-5-1.3867-7.5977 0.070312-5.2969 2.1406-10.371 5.8008-14.199 1.9102-1.8086 4.1523-3.2344 6.6016-4.1992 7.4492-3.1211 16.043-1.4648 21.797 4.1992 3.6523 3.8359 5.7227 8.9062 5.8008 14.199 0.035156 2.6016-0.44141 5.1836-1.4062 7.5977-1.1562 2.3906-2.6367 4.6133-4.3945 6.6016-1.9453 1.7617-4.1797 3.1836-6.6016 4.1992-2.4023 1.0234-4.9844 1.5703-7.5977 1.6016z"/>
  <path d="m880 200c-2.6133-0.03125-5.1953-0.57812-7.5977-1.6016-2.4258-1.0117-4.6562-2.4297-6.6016-4.1992-1.7617-1.9453-3.1836-4.1797-4.1992-6.6016-1.0234-2.4023-1.5703-4.9844-1.6016-7.5977 0.035156-1.3438 0.16406-2.6797 0.39062-4.0039 0.22656-1.25 0.63281-2.4609 1.2109-3.5938 0.42969-1.2812 1.0352-2.4961 1.7969-3.6133 0.74219-1.043 1.543-2.043 2.4023-2.9883 4.7891-4.7188 11.613-6.75 18.203-5.4102 1.25 0.23047 2.4609 0.63672 3.5938 1.2109 1.2734 0.43359 2.4844 1.0352 3.5938 1.7969 1.0234 0.69531 1.9688 1.5 2.8125 2.4023 5.875 5.6328 7.6289 14.328 4.3945 21.797-1.0156 2.4688-2.5078 4.7148-4.3945 6.6016-3.7734 3.625-8.7734 5.6953-14.004 5.8008z"/>
  <path d="m160 720h-120c-22.078-0.027344-39.973-17.922-40-40v-240c0.027344-22.078 17.922-39.973 40-40h120c11.039-0.007812 19.992 8.9375 20 19.977v0.023438 280c0.007812 11.039-8.9375 19.992-19.977 20h-0.023438zm-120-280v240h100v-240z"/>
  <path d="m240 820h-80c-11.039 0.007812-19.992-8.9375-20-19.977v-0.023438-480c-0.007812-11.039 8.9375-19.992 19.977-20h0.023438 80c11.039-0.007812 19.992 8.9375 20 19.977v0.023438 480c0.007812 11.039-8.9375 19.992-19.977 20h-0.023438zm-60-40h40v-440h-40z"/>
  <path d="m300 340h-60c-11.047 0-20-8.9531-20-20s8.9531-20 20-20h60c11.047 0 20 8.9531 20 20s-8.9531 20-20 20z"/>
  <path d="m300 420h-60c-11.047 0-20-8.9531-20-20s8.9531-20 20-20h60c11.047 0 20 8.9531 20 20s-8.9531 20-20 20z"/>
  <path d="m300 500h-60c-11.047 0-20-8.9531-20-20s8.9531-20 20-20h60c11.047 0 20 8.9531 20 20s-8.9531 20-20 20z"/>
  <path d="m300 580h-60c-11.047 0-20-8.9531-20-20s8.9531-20 20-20h60c11.047 0 20 8.9531 20 20s-8.9531 20-20 20z"/>
  <path d="m300 660h-60c-11.047 0-20-8.9531-20-20s8.9531-20 20-20h60c11.047 0 20 8.9531 20 20s-8.9531 20-20 20z"/>
  <path d="m300 740h-60c-11.047 0-20-8.9531-20-20s8.9531-20 20-20h60c11.047 0 20 8.9531 20 20s-8.9531 20-20 20z"/>
  <path d="m300 820h-60c-11.047 0-20-8.9531-20-20s8.9531-20 20-20h60c11.047 0 20 8.9531 20 20s-8.9531 20-20 20z"/>
  <path d="m760 1040c-11.039 0.007812-19.992-8.9375-20-19.977v-0.023438-100c0-11.047 8.9531-20 20-20s20 8.9531 20 20v100c0.007812 11.039-8.9375 19.992-19.977 20h-0.023438z"/>
  <path d="m420 1080c-11.039 0.007812-19.992-8.9375-20-19.977v-0.023438-40c0-11.047 8.9531-20 20-20s20 8.9531 20 20v40c0.007812 11.039-8.9375 19.992-19.977 20h-0.023438z"/>
  <path d="m500 1080c-11.039 0.007812-19.992-8.9375-20-19.977v-0.023438-40c0-11.047 8.9531-20 20-20s20 8.9531 20 20v40c0.007812 11.039-8.9375 19.992-19.977 20h-0.023438z"/>
  <path d="m1060 420h-80c-11.047 0-20-8.9531-20-20s8.9531-20 20-20h80c11.047 0 20 8.9531 20 20s-8.9531 20-20 20z"/>
  <path d="m1060 520h-80c-11.047 0-20-8.9531-20-20s8.9531-20 20-20h80c11.047 0 20 8.9531 20 20s-8.9531 20-20 20z"/>
 </g>
</svg>
