<?xml version="1.0" encoding="UTF-8"?>
<svg width="1200pt" height="1200pt" version="1.1" viewBox="0 0 1200 1200" xmlns="http://www.w3.org/2000/svg">
 <g>
  <path d="m791.48 900.85h-382.45c-76.293 0-138.38 62.066-138.38 138.36v3.4414c0 76.309 62.078 138.39 138.38 138.39h382.46c76.309 0 138.38-62.078 138.38-138.39v-3.4414c-0.015626-76.277-62.082-138.36-138.39-138.36zm111.71 141.8c0 61.602-50.121 111.72-111.71 111.72l-382.45 0.003906c-61.602 0-111.71-50.121-111.71-111.72v-3.4414c0-61.586 50.105-111.69 111.71-111.69h382.46c61.586 0 111.71 50.105 111.71 111.69v3.4375z"/>
  <path d="m420.28 992.46c-26.719 0-48.453 21.746-48.453 48.48 0 26.719 21.734 48.465 48.453 48.465s48.465-21.746 48.465-48.465c0-26.746-21.734-48.48-48.465-48.48zm0 70.27c-12.012 0-21.785-9.7734-21.785-21.801s9.7734-21.812 21.785-21.812 21.801 9.7734 21.801 21.812c-0.003906 12.027-9.7734 21.801-21.801 21.801z"/>
  <path d="m783.27 944.45c-42.574 0-78.734 27.746-91.508 66.094-12.773-38.332-48.922-66.078-91.492-66.078-41.027 0-76.055 25.785-89.988 61.945-13.934-36.172-48.961-61.945-89.988-61.945-53.199 0-96.465 43.281-96.465 96.465 0 53.199 43.281 96.48 96.465 96.48 41.027 0 76.055-25.785 89.988-61.945 13.934 36.172 48.961 61.945 89.988 61.945 42.574 0 78.734-27.746 91.508-66.094 12.762 38.348 48.922 66.094 91.492 66.094 53.199 0 96.48-43.281 96.48-96.48 0-53.199-43.281-96.48-96.48-96.48zm-362.98 166.31c-38.492 0-69.801-31.32-69.801-69.812 0-38.492 31.32-69.801 69.801-69.801 38.492 0 69.812 31.32 69.812 69.801 0.011719 38.492-31.309 69.812-69.812 69.812zm179.98 0c-38.492 0-69.812-31.32-69.812-69.812 0-38.492 31.32-69.801 69.812-69.801 38.508 0 69.812 31.32 69.812 69.801 0 38.492-31.316 69.812-69.812 69.812zm183 0c-38.508 0-69.812-31.32-69.812-69.812 0-38.492 31.32-69.812 69.812-69.812s69.812 31.32 69.812 69.812c0 38.492-31.305 69.812-69.812 69.812z"/>
  <path d="m783.27 992.46c-26.719 0-48.465 21.746-48.465 48.48 0 26.719 21.746 48.453 48.465 48.453s48.453-21.734 48.453-48.453c0-26.746-21.73-48.48-48.453-48.48zm0 70.254c-12.012 0-21.801-9.7734-21.801-21.785 0-12.027 9.7734-21.812 21.801-21.812 12 0 21.785 9.7734 21.785 21.812 0.003907 12.012-9.7695 21.785-21.785 21.785z"/>
  <path d="m600.27 992.46c-26.719 0-48.465 21.746-48.465 48.48 0 26.719 21.734 48.465 48.465 48.465 26.719 0 48.453-21.746 48.453-48.465-0.011719-26.746-21.746-48.48-48.453-48.48zm0 70.27c-12.012 0-21.801-9.7734-21.801-21.801s9.7734-21.812 21.801-21.812c12.012 0 21.785 9.7734 21.785 21.812-0.011719 12.027-9.7852 21.801-21.785 21.801z"/>
  <path d="m1042.1 761.67v-47.906h21.945v-261.96h-119.97v58.48h-213.88l-76.199-106.01c-10.895-15.172-24.922-24.934-40.359-28.535v-2.1055c63.961-4.7617 120.29-43.625 147.55-102.08 26.934-14.215 45.348-42.48 45.348-74.988 0-32.52-18.426-60.785-45.348-75.012-29.148-62.457-91.684-102.59-160.88-102.59-69.348 0-131.73 40.094-160.88 102.57-26.934 14.215-45.359 42.492-45.359 75.012 0 32.508 18.414 60.773 45.348 74.988 27.238 58.398 83.719 97.293 147.56 102.08v2.1211c-15.441 3.6016-29.453 13.359-40.359 28.535l-72.973 101.52-217.64-0.003906v-58.48h-119.99v261.96h21.945v47.895h-43.891v123.57h95.281v-55.055h-26.668v28.387h-41.945v-70.238h43.906v-74.559h71.375l-0.003906-176.82h198.46l-197.36 274.54c-14.465 20.133-17.922 40.012-9.7344 55.988 8.1875 15.973 26.359 24.773 51.148 24.773h603.55c24.785 0 42.961-8.8008 51.148-24.773 8.1875-15.973 4.7188-35.852-9.7461-55.988l-194.12-270.04h194.72v176.83h71.375v74.574h43.906v70.266h-41.945v-28.414h-26.668v55.078h95.281v-123.6l-43.922 0.003907zm-812.77-79.066h-66.652v-208.63h66.652zm370.97-636.98c50.68 0 97.133 25.348 124.88 66.293-1.1484-0.039063-2.2812-0.17188-3.4414-0.17188h-242.92c-1.1602 0-2.293 0.13281-3.4414 0.17188 27.723-40.973 74.121-66.293 124.92-66.293zm-121.48 92.789h242.92c32.039 0 58.121 26.078 58.121 58.133 0 32.039-26.078 58.105-58.121 58.105h-242.92c-32.039 0-58.105-26.066-58.105-58.105 0-32.055 26.066-58.133 58.105-58.133zm-3.4258 142.73c1.1484 0.039062 2.2656 0.17187 3.4258 0.17187h242.92c1.1719 0 2.3086-0.13281 3.4805-0.17187-27.734 40.973-74.121 66.293-124.92 66.293-50.691 0.011719-97.16-25.336-124.91-66.293zm454.08 569.68c-3.293 6.4258-13.547 10.281-27.414 10.281l-603.54-0.003906c-13.867 0-24.121-3.8398-27.414-10.281-3.293-6.4414-0.44141-17 7.6523-28.254l289.49-402.75c8.8281-12.281 20.199-19.055 32.039-19.055 11.84 0 23.215 6.7617 32.039 19.055l289.48 402.75c8.0977 11.258 10.965 21.816 7.6602 28.258zm41.266-372.36h66.641v208.62h-66.641z"/>
  <path d="m729.31 150.54h-258.11v92h258.11zm-90.188 65.332h-77.719c5.7617-5.0391 9.4805-12.359 9.4805-20.602 0-6.9453-2.6797-13.238-6.9609-18.066h72.668c-4.2812 4.8398-6.9609 11.121-6.9609 18.066-0.003906 8.2539 3.7188 15.574 9.4922 20.602zm-141.25-38.668h25.078c-4.2812 4.8398-6.9609 11.121-6.9609 18.066 0 8.2383 3.7188 15.559 9.4805 20.602h-27.598zm204.77 38.668h-27.602c5.7734-5.0391 9.4922-12.359 9.4922-20.602 0-6.9453-2.6797-13.238-6.9609-18.066h25.078l0.003906 38.668z"/>
 </g>
</svg>
