<svg height='100px' width='100px'  fill="#000000" xmlns="http://www.w3.org/2000/svg" data-name="Layer 1" viewBox="0 0 80 80" x="0px" y="0px"><title>hmi-humanmachine-interface-humancomputer-hci</title><path d="M30,52a5.006,5.006,0,0,0-5-5H13a5,5,0,0,0,0,10H25A5.006,5.006,0,0,0,30,52ZM12,52a1,1,0,0,1,1-1H25a1,1,0,0,1,0,2H13A1,1,0,0,1,12,52Z"></path><path d="M19,23A11,11,0,1,0,30,34,11.012,11.012,0,0,0,19,23Zm0,18a7,7,0,1,1,7-7A7.008,7.008,0,0,1,19,41Z"></path><path d="M66,26H52a6.007,6.007,0,0,0-6,6v9a6.007,6.007,0,0,0,6,6h5v3H54a2,2,0,0,0,0,4H64a2,2,0,0,0,0-4H61V47h5a6.007,6.007,0,0,0,6-6V32A6.007,6.007,0,0,0,66,26Zm2,15a2,2,0,0,1-2,2H52a2,2,0,0,1-2-2V32a2,2,0,0,1,2-2H66a2,2,0,0,1,2,2Z"></path><path d="M60.415,56.587a2.007,2.007,0,0,0-.306-.25c-.05-.034-.105-.057-.158-.086a1.956,1.956,0,0,0-.186-.1,1.98,1.98,0,0,0-.206-.064c-.056-.016-.11-.038-.168-.05a2.011,2.011,0,0,0-.784,0c-.058.012-.112.033-.168.05a1.161,1.161,0,0,0-.392.162c-.052.029-.107.052-.157.085a2.007,2.007,0,0,0-.306.25l-6,6a2,2,0,0,0,2.828,2.828L57,62.828V70a2,2,0,0,1-2,2H23a2,2,0,0,1-2-2V61a2,2,0,0,0-4,0v9a6.007,6.007,0,0,0,6,6H55a6.007,6.007,0,0,0,6-6V62.828l2.586,2.586a2,2,0,0,0,2.828-2.828Z"></path><path d="M59,24a2,2,0,0,0,2-2V10a6.007,6.007,0,0,0-6-6H23a6.007,6.007,0,0,0-6,6v4.172l-2.586-2.586a2,2,0,0,0-2.828,2.828l6,6c.011.011.025.019.037.03a2,2,0,0,0,.264.217c.036.024.077.041.115.062a1.971,1.971,0,0,0,.229.122c.046.019.1.029.143.044a1.958,1.958,0,0,0,.231.07A2,2,0,0,0,19,21h0l.027,0a2,2,0,0,0,.368-.037,1.967,1.967,0,0,0,.279-.085c.031-.011.063-.017.094-.029a1.988,1.988,0,0,0,.29-.155c.017-.011.037-.018.054-.029a2.01,2.01,0,0,0,.307-.253l6-6a2,2,0,0,0-2.828-2.828L21,14.172V10a2,2,0,0,1,2-2H55a2,2,0,0,1,2,2V22A2,2,0,0,0,59,24Z"></path></svg>