<?xml version="1.0" encoding="UTF-8" standalone="no"?><!DOCTYPE svg PUBLIC "-//W3C//DTD SVG 1.1//EN" "http://www.w3.org/Graphics/SVG/1.1/DTD/svg11.dtd"><svg width="100%" height="100%" viewBox="0 0 100 100" version="1.1" xmlns="http://www.w3.org/2000/svg" xmlns:xlink="http://www.w3.org/1999/xlink" xml:space="preserve" xmlns:serif="http://www.serif.com/" style="fill-rule:evenodd;clip-rule:evenodd;stroke-linejoin:round;stroke-miterlimit:2;"><circle cx="50" cy="50" r="49" style="fill:#970000;"/><g><path id="m" d="M7,37.162l0.209,0l3.6,6.14c-0.137,-0 -0.209,0.101 -0.209,0.31c-0.433,-0 -0.642,0.245 -0.642,0.728l-0.938,-0.101l-0,0.101c-0,0.166 -0.39,0.347 -1.169,0.542l-0.209,0.209l-0.123,-0l-0.418,-0.52l-0.101,0l0,-7.409Zm2.229,7.51c0.318,0.137 0.491,0.274 0.52,0.419l-0.21,0.541c0.137,-0 0.21,-0.108 0.21,-0.332l0.642,-0l0.31,-0.209l0.101,-0l0.209,0.209l-0.209,0.332l-0,0.101l0.209,-0c0.361,-0.152 0.541,-0.296 0.541,-0.44l0.31,-0c0.419,0.288 0.628,0.642 0.628,1.06l-0,0.101c-0.779,0.072 -1.234,0.173 -1.371,0.31l-1.168,0c-0,0.152 -0.174,0.231 -0.52,0.231l-0.31,0.311l-0.541,-0.101l-0.31,-0l-0.751,0.418l-0.31,-0l-0.209,-0.209l0,-0.96l0.101,-0.101l-0.101,-0.101l0,-0.519l0.101,-0l0.209,0.209l-0.101,0.101l0,0.101l0.75,0.101c0,-0.137 0.246,-0.245 0.729,-0.31l-0.101,-0.541l0.642,-0l0,-0.101l-0.209,-0.52l0.101,0l0.108,-0.101Zm2.742,2.749l0.425,-0l0.101,-0.101l0.123,-0c0.072,0.635 0.274,0.959 0.627,0.959l0.101,-0.101l0.21,0.628l-0,0.75l-0.419,0l0,0.21l0.419,-0l0.043,15.128l-5.642,-0l-0.44,-0.101l-0.418,0.101l-0.101,-0.101l-0,-16.088c0.166,-0.433 0.447,-0.642 0.851,-0.642c0.332,-0 0.577,-0.072 0.729,-0.209l0.209,-0c0.635,0.288 0.96,0.505 0.96,0.642l0.31,-0.101c0.288,0.072 0.44,0.31 0.44,0.728l0.101,0l0.209,-0.209l0,-0.209c-0.274,-0.267 -0.418,-0.476 -0.418,-0.642l-0.541,-0l-0.52,-0.101l0,-0.209l0.31,-0.31l1.371,-0l0,0.209l0.44,-0l0,-0.209l-0.123,-0.101l0,-0.13l0.643,-0.31l-0,0.519Zm-4.863,-12.322l6.349,0c1.053,1.501 2.085,3.225 3.08,5.18l-0.231,-0c0.693,0.664 1.335,1.544 1.912,2.64l0,0.21l-0.209,0.331c0.274,0.029 0.418,0.13 0.418,0.311l-0.101,0.101c0.635,0.072 0.96,0.425 0.96,1.06l-0.209,0.209l-1.169,0l-0,0.209l-0.75,0l-0,0.21l-0.628,-0l-1.27,0.332l0,-0.101l-0.851,0.209l-0.209,-0.209l-0.31,-0c-0,0.209 -0.08,0.31 -0.231,0.31l-0.101,-0l-0.837,-1.465l-0,-0.101l0.209,0c0,0.209 0.209,0.31 0.628,0.31l0.44,-0.209l0.209,0.209l0.519,-0.101l0,-0.209c-0.375,0 -0.692,-0.18 -0.959,-0.541l-0.52,-0.101l0,-0.216l-0.31,-0l0,0.209l-0.44,-0c-0.209,-0 -0.31,-0.209 -0.31,-0.628c-0.303,0 -0.83,-0.743 -1.58,-2.229c-2.128,-3.383 -3.297,-5.36 -3.499,-5.93Zm0.952,14.45c0.275,0.303 0.419,0.584 0.419,0.83l0.101,-0c0.267,-0.274 0.476,-0.419 0.642,-0.419l-0,-0.209c-0.209,0 -0.31,-0.072 -0.31,-0.209l-0.852,-0l0,0.007Zm0,3.369l0,0.231l0.21,0.209l0.101,0l-0.101,-0.101l-0,-0.101l0.101,-0.122l-0,-0.101l-0.311,-0l0,-0.015Zm1.169,-2.099l-0.101,0.101l0,0.101l0.419,-0l-0,-0.101l-0.318,-0.101Zm1.789,-1.068c0,0.318 -0.353,0.491 -1.06,0.52l-0,0.541l0.101,-0c0.274,-0.289 0.563,-0.44 0.851,-0.44c0,-0.275 0.101,-0.419 0.31,-0.419l0,-0.209l-0.202,-0l0,0.007Zm-0.627,1.897l0.418,0l0.209,-0.209l0,-0.101c-0.418,0.065 -0.627,0.173 -0.627,0.31Zm0.836,-7.178l0.231,0l0.311,0.419l-0.311,0.209l-0.231,-0l-0.31,-0.31l0.31,-0.318Zm0,6.14l0,0.209l0.643,-0l-0,-0.209l-0.643,-0Zm0.101,-14.133l0,0.101l0.231,0.209l0,-0.101l-0.231,-0.209Zm0.441,11.463l-0.101,0.541l-0,0.311l0.101,-0c0.209,-0.073 0.31,-0.275 0.31,-0.628l-0.31,-0.224Zm1.06,-0.728l0.209,-0c0.274,0.108 0.419,0.353 0.419,0.728l-0.101,0c-0.354,-0.137 -0.527,-0.375 -0.527,-0.728Zm0,3.167l0,0.101l0.209,0.231l0.101,-0l-0.101,-0.332l-0.209,-0Zm10.908,12.531c-1.205,-1.941 -3.182,-5.252 -5.93,-9.927c-1.724,-2.691 -2.641,-4.242 -2.77,-4.639l0.23,0l0,-0.101l-0.23,0l-0.101,0.101c-0.484,-0.764 -0.729,-1.262 -0.729,-1.5l0.83,-0l-0,0.231l0.541,-0l0.519,0.101l0.101,-0.44l0.541,0.101l0.628,-0l0.642,-0.419l0.31,0.209l0.101,0c0,-0.346 0.317,-0.591 0.959,-0.728l0.311,0.101l-0,-0.209l0.101,-0c0.497,0.468 0.75,0.894 0.75,1.269c-0.18,0 -0.281,0.137 -0.31,0.419l0.31,0.209l0.101,-0l-0.101,-0.101l-0,-0.31l0.31,-0l2.871,4.826l0,10.807l0.015,-0Zm-8.268,-20.084l0,0.851c-0.288,0.029 -0.44,0.13 -0.44,0.31l0,0.101l0.642,-0c0,0.433 0.137,0.642 0.419,0.642l-0,-0.332l0.541,0.123l0.209,-0l0.628,-0.44l-0.101,-0.101l-0,-0.101c-0,-0.181 0.144,-0.282 0.44,-0.31l-0,-0.101l-1.169,-0c-0.635,-0.195 -0.959,-0.412 -0.959,-0.642l-0.21,-0Zm0.109,-1.27l-0.101,0.101l-0,0.332l0.209,0.209l0.209,-0.209l0,-0.123l-0.317,-0.31Zm1.479,2.121l-0,0.418l-0.21,0.209l-0.101,0l-0.209,-0.209l0.52,-0.418Zm0.541,4.018l-0,0.209l0.31,0l-0,-0.209l-0.31,0Zm0.93,0.75l0,0.101l0.44,0.101l0.101,0l0,-0.101l-0.209,-0.209l-0.332,0.108Zm0.339,0.311l0,0.31l0.21,-0.209l-0,-0.101l-0.21,-0Zm1.14,0.62l0,0.123l0.44,-0l0,-0.123l-0.44,-0Zm0.541,-0l0.31,-0l0.311,-0.519l-0.101,-0c-0.181,-0 -0.354,0.173 -0.52,0.519Zm0.419,5.31l-0,0.209l0.101,-0l0.209,-0.209l-0.31,-0Zm0.851,-2.331l0.31,0l0,-0.209l-0.101,0l-0.209,0.209Zm0.209,-1.688l-0.101,0.311l0,0.101l0.101,-0l0.209,-0.21l0,-0.209l-0.209,0l0,0.007Zm8.866,-5.49l0,-0.086l-1.168,-0l-0.21,-0.209c0,-0.635 0.318,-0.989 0.96,-1.061l-0.101,-0.101c-0,-0.18 0.137,-0.281 0.418,-0.31l-0.209,-0.332l0,-0.209c0.584,-1.097 1.219,-1.977 1.912,-2.641l-0.231,0c0.996,-1.955 2.027,-3.686 3.08,-5.179l6.349,-0c-0.209,0.57 -1.371,2.546 -3.499,5.93c-0.75,1.486 -1.277,2.229 -1.58,2.229c0,0.418 -0.101,0.628 -0.31,0.628l-0.44,0.519l-0,-0.209l-0.31,-0l-0,0.209l-0.52,0.101c-0.267,0.014 -0.584,0.022 -0.959,0.022l-0,0.209l0.519,0.101l0.209,-0.209l0.44,0.209c0.419,-0 0.628,-0.101 0.628,-0.31l0.209,-0l0,0.101l-0.829,1.478c-0.044,0.275 -0.498,1.018 -1.371,2.23l-0.101,-0.101l-0.231,-0l0,0.101l0.231,-0c-0.123,0.404 -1.046,1.947 -2.77,4.638c-2.749,4.675 -4.726,7.986 -5.93,9.927l-0,-10.807l2.871,-4.826l0.31,-0l0,0.31l-0.101,0.101l0.101,0l0.31,-0.209c-0.029,-0.274 -0.13,-0.418 -0.31,-0.418c0,-0.376 0.397,-0.989 1.183,-1.855l0.101,0l0,0.21l0.31,-0.101c0.484,-0.109 0.83,-0.137 1.039,-0.08Zm-4.913,13.981l0.21,0.21l0.101,-0l-0,-0.21l-0.311,0Zm1.039,-5.598l-0.101,0l0,0.209l0.311,0l-0.21,-0.209Zm0.714,-4.761l-0.101,-0l0.311,0.519l0.31,0c-0.166,-0.346 -0.339,-0.519 -0.52,-0.519Zm0.289,2.388l0,0.209l0.209,0.209l0.101,0l0,-0.101l-0.101,-0.31l-0.209,-0l0,-0.007Zm0.332,-1.869l-0,0.123l0.44,-0l-0,-0.123l-0.44,0Zm1.58,-1.039l-0.209,0.21l-0,0.101l0.101,-0l0.44,-0.101l-0,-0.101l-0.332,-0.109Zm-0.202,0.412l-0,0.101l0.209,0.209l0,-0.31l-0.209,-0Zm1.161,-1.061l0,0.209l0.311,0l-0,-0.209l-0.311,0Zm1.458,-3.975c0.266,-0.195 0.202,-0.274 -0.188,-0.252l-1.169,-0l0,0.101c0.289,0.029 0.44,0.13 0.44,0.31l0,0.101l-0.101,0.101l0.628,0.44l0.209,-0l0.541,-0.123l0,0.332c0.274,0 0.419,-0.216 0.419,-0.642l0.642,0l-0,-0.101c-0.253,-0.014 -0.52,-0.036 -0.815,-0.065l-0.397,-0.209l-0.209,-0l-0,0.007Zm-0.852,1.645l-0.396,-0c0.028,0.043 0.043,0.094 0.043,0.166l0.101,-0l0.252,-0.166Zm2.54,0.563l-0.498,-0.123l-0,0.101l-1.27,-0.332l-0.627,0l-0,-0.209l-0.065,-0l0.122,0.519l0.628,0l0.541,-0.101l0.101,0.44l0.519,-0.101l0.541,0l0,-0.194l0.008,-0Zm-1.775,-1.833l-0.209,0.209l-0.101,0l-0.209,-0.209l-0,-0.418l0.519,0.418Zm1.666,-2.352l0,0.123l0.21,0.209l0.209,-0.209l-0,-0.332l-0.101,-0.101l-0.318,0.31Zm1.047,4.286c-0.044,-0.058 -0.065,-0.13 -0.065,-0.231l-0.311,-0l-0.144,0.144l0.52,0.087Zm-0.087,18.966l-0.101,-0.101l0.101,-2.85l-0,-4.141c0.346,-0.418 0.736,-0.627 1.169,-0.627l-0.21,-0.311l0,-0.541l-0.851,-0.209l0,-0.959l0.209,-0.21l-0.209,-0.31l0,-2.979l0.101,-3.167c0,-0.498 0.988,-2.294 2.98,-5.389l0.101,0.101l0.209,-0.209l-0.209,-0l3.167,-5.62l0.23,-0l0,18.107c0,0.137 -0.144,0.209 -0.44,0.209l0,0.101c0.289,0 0.44,0.073 0.44,0.21l0,7.51c0,0.137 -0.18,0.209 -0.541,0.209l0,0.209l0.541,0l0,0.75l-0.23,0.209l-3.478,0l-0.75,-0.101l-0.418,0.101l-0.96,0l-0.101,-0.101l-0.101,0.101l-0.649,0l-0,0.008Zm0.101,-7.517l-0.101,-0.101l-0,-0.52l0.209,-0.231l0.332,0l0.209,0.231l0,0.209c-0.137,0.253 -0.353,0.426 -0.642,0.52l0,-0.108l-0.007,-0Zm1.169,-3.911l-0,-0.209l-0.52,0.101l0,0.101l0.101,0.101l0.419,-0.094Zm0.959,8.03l-0.31,-0.31l-0.101,0.31l-0,0.101l0.411,-0.101Zm0.411,-7.51l-0.209,-0.209l-0.101,-0l0,0.209l0.31,-0Zm-0.288,-16.715l-0,0.101l0.231,-0.21l-0,-0.101l-0.231,0.21Zm0.627,26.036l-0.331,-0l-0,0.101l0.101,0.101l0.23,-0.202Zm0.311,-1.27l-0,-0.209l-0.541,-0l-0,0.209l0.541,-0Zm0.209,-3.182l-0,-0.418l-0.209,0.209l0.209,0.209Zm0.851,5.31l0,-0.231l-0.209,-0.209l-0,0.44l0.209,0Zm0.52,-1.71l0.209,0l-0.419,-0.31l-0.209,0l0,0.101l0.419,0.209Zm0.418,-16.087l-0,-0.209l-0.101,-0l-0.209,0.209l0.31,-0Zm-0,13.339l0.642,-0.31l-0,-0.101l-0.31,-0c-0.137,-0 -0.209,0.101 -0.209,0.31l-0.231,-0l-0,0.101l0.108,-0Zm0.332,-2.749l0.519,-0.101l0,-0.101l-0.101,0l-0.519,0.101l-0,0.101l0.101,0Z" style="fill:#fff;fill-rule:nonzero;"/><path id="a" d="M59.764,35.099l10.555,29.845l-7.705,0c-1.169,-4.235 -1.832,-6.348 -1.998,-6.348l-8.268,-0l1.602,-5.519l5.086,-0l-0,-0.094c-1.414,-4.451 -2.446,-8.116 -3.081,-10.987l-0.101,-0c0,0.83 -1.406,5.944 -4.227,15.337c-0.808,2.807 -1.342,4.43 -1.602,4.87l-0.209,-0l0,0.209l0.209,0.31l-0.627,2.229l-0.101,0l-0.311,-0.101l-0.541,0.101l-0.519,0l-0.332,-0.101l-0.519,0.101l-1.371,0l-0.642,-0.101l-0.31,0.101l-0,-0.101l-0.101,0.101l-1.27,0l0,-1.37l0.101,-0.642l-0.101,-0.311l0.101,0.101l0.101,0l0.101,-0.101l0,-0.101l-0.31,0l-0,-1.37l0.209,-0.21l0.209,0l0.332,0.101l0,-0.101l-0.101,-0.31l-0.231,0l-0.101,0.101l-0.31,-0.101l0.101,-0.851l0.101,0l0.851,-2.749l0.31,0.21l0.101,-0.101l0,-0.101l-0.31,-0.231l0.628,-1.898l0.123,0c-0,0.138 0.101,0.21 0.31,0.21l-0,0.642l0.209,-0.231l-0,-0.938c-0,-0.224 0.209,-0.332 0.628,-0.332l-0,-0.101l-0.101,-0.31l-0.21,-0c-0.238,-0 -0.447,0.353 -0.627,1.06l-0.209,0l-0,-0.101l0.627,-2.02l0.419,0l-0,0.21l0.331,-0l0,-0.311l-0.23,-0.31l0.23,-0.642l-0.101,-0.101l-0.122,0c-0,0.498 -0.072,0.75 -0.209,0.75l-0.101,0l2.33,-6.99l0.101,-0l-0,0.209l0.209,0l-0.209,-0.31c0.086,-0.57 0.231,-0.851 0.44,-0.851l-0.123,-0.101l0,-0.101l3.16,-9.148l7.726,0Zm-16.094,28.474l-0,0.311c0.288,-0.094 0.44,-0.202 0.44,-0.311l-0.44,0Zm0.75,-3.809c-0,0.137 -0.101,0.21 -0.31,0.21l0.209,0.209l0.101,-0l0.418,-0.209l0,-0.21l-0.418,0Zm0.627,0.52c-0.281,-0 -0.418,0.108 -0.418,0.332l0.418,-0l0,-0.231l0.332,-0.101l-0.101,-0.31l-0.122,0.101l-0.101,-0l-0,0.209l-0.008,-0Zm0.101,-4.329l0,0.101l0.542,0.209l-0.101,-0.31l-0.441,0Zm0.65,2.1l-0,0.44l0.31,-0c-0,-0.137 0.101,-0.21 0.31,-0.21l0,-0.23l-0.519,0.122l-0.101,-0.122Zm-0,4.977l-0,0.123l0.519,0.209c0,-0.137 0.108,-0.209 0.332,-0.209l0,-0.123l-0.231,-0.209l-0.418,0l-0.202,0.209Zm0.62,-6.449l0,0.209l0.44,0l0,-0.209l-0.44,-0Zm0.75,5.302l-0.209,0.83l0.209,0.642l-0.75,0.31l0.123,0.31l0.209,0c0,-0.151 0.137,-0.288 0.418,-0.418l0.52,0l-0,0.209c0.195,0 0.339,0.217 0.44,0.642l0.31,0l-0.209,-0.75c0.209,0 0.31,-0.101 0.31,-0.31l-0.209,-0.642l-0,-0.101l0.209,-0l0,-0.31l-0.209,-0l-0.209,0.209l-0,0.101l0.101,0.959l-0.945,-0.743l-0,-0.418l0.209,-0.31l-0,-0.101l-0.318,-0.109Zm-0.418,-10.799l0,0.101l0.209,0.209l0.101,-0.101l0,-0.209l-0.31,-0Zm1.169,-1.479c-0,0.418 -0.145,0.627 -0.44,0.627l0.101,0.101l-0,0.101c-0.21,0 -0.311,0.145 -0.311,0.441l0.419,-0c-0,-0.57 0.144,-0.852 0.44,-0.852l-0,-0.418l-0.209,-0Zm-0.642,5.079l-0,0.101l0.209,-0.21l-0,-0.101l-0.209,0.21Zm0.101,2.957l-0,0.21l0.75,-0l-0,-0.109l-0.31,-0.101l-0,0.101l-0.123,-0.101l-0.317,0Zm0.44,-1.06l-0.123,0.101l0,0.101l0.332,0.231l0.101,-0l-0,-0.101l-0.31,-0.332Zm-0.13,4.444l-0,0.108l0.123,0.31l0.209,0l-0,-0.418l-0.332,-0Zm0.332,-13.332l-0,0.209l0.519,-0.101l0,-0.101l-0.519,0l-0,-0.007Zm0.627,6.139c0.195,0.274 0.375,0.419 0.541,0.419l0,0.642l0.21,-0l0.209,-0.419c-0.137,-0.288 -0.346,-0.505 -0.628,-0.642l-0.332,0Zm0.101,2.121l0,0.419l0.101,-0.101l0.123,-0l-0.123,-0.31l-0.101,-0l0,-0.008Zm0.859,4.87c-0,0.137 -0.101,0.209 -0.31,0.209c0.274,0.253 0.418,0.491 0.418,0.729l0.101,-0l0.209,-0.21l0,-0.101c-0.007,-0.346 -0.144,-0.555 -0.418,-0.627Zm0.209,-8.47l-0.101,0.101l0,0.101l0.31,0l-0.209,-0.202Zm0.202,-8.051l0,0.231l0.44,0.101l0,-0.101l-0.332,-0.231l-0.108,0Z" style="fill:#fff;fill-rule:nonzero;"/><path id="f" d="M74.056,35.099l3.607,0l0.209,0.209l-0,2.85l-0.209,-0c-0,-0.418 -0.072,-0.628 -0.21,-0.628l-0.209,0.21l0,0.209c0,0.137 0.209,0.281 0.628,0.44l-0,3.268l-0.729,-0.101l-0.101,-0l0,0.101l0.83,0.332l-0,1.269l-0.31,0l-0,0.21c0.209,-0 0.31,0.072 0.31,0.209l-0,5.079c-0.274,-0 -0.419,0.252 -0.419,0.75l0.101,0.101l-0.31,0.209l-0.31,0c-0.137,0 -0.209,-0.18 -0.209,-0.541l-0.123,-0c0,0.361 -0.101,0.541 -0.31,0.541l-0.519,0l-0.21,-0.209l0,-0.44c0.21,-0 0.311,-0.072 0.311,-0.209l-0.101,-0.52l-0.101,0.101l-0.101,0l0.101,0.101l-0,0.31l-0.231,0.21l-0.31,-0c-0.347,-0.123 -0.52,-0.441 -0.52,-0.938l0,-0.123l0.31,-0.101l-0.209,-0.628c0.274,0 0.419,-0.18 0.419,-0.541l0.851,0l-0,-0.418l0.627,-0l0.123,-0.101l0.101,-0c0,-0.209 -0.144,-0.31 -0.44,-0.31l-0.101,-0.642l-0.101,0.101l-0.101,-0l0.101,0.101l0,0.231l-0.31,0.31l-0.44,0.101l-0,0.31l-0.101,-0.101l-0.209,-0l-0.21,0.642l-0.418,-0.231l-0,0.231l-1.061,0l0,-0.418l0.101,-0.52c-0.209,0 -0.31,-0.072 -0.31,-0.209l0,-0.44l0.31,-0.101c0.123,0.498 0.412,0.75 0.852,0.75l-0,-0.101c-0.361,-0.209 -0.541,-0.454 -0.541,-0.75l0.209,-0.209l0.101,0.101l0.541,-0l-0,-0.628c-0,-0.151 0.101,-0.231 0.31,-0.231l0,-0.209c-0.418,-0 -0.628,-0.209 -0.628,-0.628l-0.101,0.101l-0.122,0l-0.938,-0.209l-0.101,0.101l-0,-0.209c0.209,-0 0.31,-0.079 0.31,-0.231l0,-0.31l-0.209,-0l-0,0.209l-0.541,-0.101l-0.209,0l-0,0.101l0.209,0l-0,0.209l-0.418,0.123l-0,-0.541l0.31,-0l-0,-0.397l-0.101,-0.101l-0,-0.101c0.274,-0.123 0.418,-0.339 0.418,-0.642l0.332,0l0.31,0.31l-0.209,0.231l0.209,0.628l0.209,-0l0,-0.419l0.101,0l0.21,0.21l-0.101,0.101l-0,0.101l0.209,-0l0.642,-0.21l-0,-0.209c-0.404,0 -0.859,-0.252 -1.371,-0.75l0,-0.851l-0.209,-0c-0,0.165 -0.144,0.382 -0.44,0.642l-0.101,-0.101l-0.519,-0l0.209,0.728c-0,0.224 -0.282,0.505 -0.852,0.852l0,0.101l-0.418,-0l0,-0.83l0.209,-0.75l-0.209,-0l0,-0.419l0.209,0l0,0.31c0.527,0 0.815,-0.137 0.852,-0.418l-0,-0.123l-0.101,0l-0,0.231c-0.57,-0.072 -0.852,-0.317 -0.852,-0.75l0.419,-0.31l0.642,-0l-0.101,0.519l-0,0.209l0.101,0c0.014,-0.274 0.086,-0.418 0.209,-0.418l-0.209,-0.96l0.209,-0.209l-0,-0.101c-0.209,0 -0.31,-0.072 -0.31,-0.209l-0.101,0.101l-0.101,0l-0.332,-0.31l-0,-0.101c0.361,-0 0.541,-0.144 0.541,-0.44l-0.101,-0.101l0.101,-0.101l0.101,0.101l0.31,-0l0.541,-0.101l0.101,0.642l0.101,-0c0.238,-0.224 0.447,-0.332 0.628,-0.332l-0,-0.209l-0.419,-0.101l0.311,-0.96c-0.181,0 -0.318,-0.209 -0.419,-0.627l0.209,-0.311l0.52,0.21l0.122,-0.101l-0.23,-0.642l-0,-0.116Zm-1.371,0l-0,0.31l0.101,0c-0,-0.166 0.144,-0.274 0.44,-0.31l0.209,0.31l0,0.21c-0.209,-0 -0.31,0.108 -0.31,0.331l-0.44,0.21l-0.418,-0.101c-0.138,0.317 -0.275,0.49 -0.419,0.519l-0.101,-0.101l-0.123,0l-0.31,0.418l0.642,0.123l0,0.729c-0.288,-0 -0.44,0.101 -0.44,0.31l-0.418,-0l-0,-1.169l0.101,-0.938l-0.101,-0.75l0.101,-0.101l1.486,0Zm-1.58,8.037l0.209,-0l0.101,0.541l-0.101,0.728l-0.209,-0.209l0,-1.06Zm1.061,0.332c0.151,-0 0.36,0.353 0.627,1.06l0.101,0l0.123,-0.541c-0.224,-0 -0.332,-0.072 -0.332,-0.209l0.541,-0.101l0.519,0.31l0.101,-0l0,0.31l-0.209,0.231l-0.519,0c-0,0.317 -0.108,0.563 -0.332,0.729l0.101,-0l-0.101,0.101l-0,0.101l0.231,0.642l-0.332,0.209l-0.31,-0.31l-0.101,-0l-0.209,0.209c-0,0.541 0.245,0.858 0.728,0.959l0,0.101l0.101,-0.101l0.123,0l0.209,0.21l-0,0.728c-0.361,0 -0.541,0.08 -0.541,0.231l-0,0.101c0.123,0.274 0.375,0.419 0.75,0.419c0,-0.419 0.072,-0.628 0.209,-0.628l0,0.101l0.311,-0.101l-0,-0.123c-0,-0.137 -0.101,-0.209 -0.311,-0.209l-0.101,-0.101l0,-0.31l0.21,-0.31c0.57,-0 0.851,0.245 0.851,0.728c-0.137,0 -0.209,0.181 -0.209,0.541l-0.231,0l-0,0.311c0.93,0.649 1.392,1.038 1.392,1.168c0,0.137 0.173,0.209 0.52,0.209l0.101,0.101l-0,0.542l-0.101,0.519l0.101,-0l0.541,-0.209l0.101,0.101l-0,-0.209c-0,-0.138 -0.145,-0.21 -0.44,-0.21c-0,-0.151 0.18,-0.231 0.541,-0.231l-0,-0.101l0.627,0.231l0,-0.122l0.101,-0.419l0.209,0l0,2.439l-0.101,0.75l0.101,0.938l0,6.99c0,0.253 -0.137,0.534 -0.418,0.852l0,0.209l0.101,-0.101l0.31,-0l0,0.101l-0.101,0.101l0.101,0.519l0,1.371l-0.627,0.642l-0.52,-0l-0.332,-0.209l0.101,-0.101l0,-0.332l-0.627,0.231l-0,0.209l-0.642,-0l-0,-0.44l0.44,-0.209l0.101,-0l-0,-0.101l-0.209,-0.21l-0.123,0c-0,0.181 -0.209,0.397 -0.628,0.642l-0.642,-0.122c0.087,-0.483 0.195,-0.729 0.332,-0.729l0.519,0c0,-0.209 0.181,-0.31 0.542,-0.31l0.418,-0.642l-0,-0.101l-0.418,-0l-0,-0.628l0.418,0l0.628,0.52l0.23,-0l0,-0.101c-0.36,-0 -0.541,-0.217 -0.541,-0.642l0,-0.101c0.289,-0 0.505,-0.173 0.642,-0.52l0.101,0l0,0.209l0.21,0l-0,-0.31l-0.21,-0.851l-0.209,0l-0.332,0.642l0.231,0.209l-1.168,0.83l-0.332,-0.101l-0,0.101c-0,0.317 -0.274,0.534 -0.83,0.642c-0.151,-0.317 -0.368,-0.491 -0.642,-0.519l-0,-0.332l0.209,-0.21l0.101,0l0.541,0.101l-0.101,-0.101l0,-0.101l0.209,-0.627l-0.541,-0l0.123,0.101l0,0.209l-0.332,0l-0.209,-0.44l-0,-0.101l-0.101,-0c-0,0.498 -0.072,0.75 -0.209,0.75l-0.209,0l-0.332,-0.101l-0,0.101l-0.21,0.628l-0.101,-0.101l-0.1,-0l-0.21,0.231c0.498,-0 0.751,0.137 0.751,0.418l0.101,0.52l-0.852,0.101l0.101,0.101l0,0.75c0.433,-0 0.642,0.072 0.642,0.209l0,0.642l-0.642,0c-0.122,0 -0.231,-0.216 -0.31,-0.642c-0.498,0 -0.75,-0.072 -0.75,-0.209l-0,-0.75l0.209,-0l0,-0.101c-0.274,-0 -0.418,-0.073 -0.418,-0.21l-0,-1.897l0.75,-0.642l-0.75,0l-0,-0.101l0.209,-0.31l-0,-0.31l-0.209,-0.332l-0,-6.241c-0,-0.137 0.101,-0.209 0.31,-0.209l-0,-0.101c-0.209,0 -0.31,-0.072 -0.31,-0.209l-0,-2.352l0.209,-0.209l0.101,0l0.101,0.101l0.101,0l-0,-0.101l-0.52,-0.541l0,-4.119l0.21,-0l0.209,0.209l-0.101,-0l0.101,0.332l0.231,-0l-0,-0.541c-0,-0.137 0.209,-0.21 0.627,-0.21l0,-0.101l-0.75,-0.209l0,-0.231l0.123,-0.101l-0,-0.101l-0.123,-0.101c0.281,-0.137 0.462,-0.339 0.556,-0.634Zm-0.852,21.065l0.101,0.101l0,0.101l-0.209,0.209l-0.101,-0.101l0,-0.101l0.209,-0.209Zm0.31,-7.532l0,0.224l0.231,-0l-0.101,0.101l0,0.101l0.101,0.31l-0.101,0l-0.332,0.101l0,0.101l0.332,0c0.253,-0.483 0.707,-0.728 1.371,-0.728l-0,-0.21l-0.959,0.21l-0.21,-0.21l-0.332,0Zm0,-10.366l-0.101,0.331l0.101,0.101l0.123,0l0.209,-0.331l-0.101,-0.101l-0.231,-0Zm0.96,4.032l0.31,0l0,0.101l-0.519,0.101l-0,0.21l0.209,-0l-0,0.418l0.101,0.541l-0.628,0.209l0,-0.101l-0.541,0.101l0,0.101l0.101,0.101l0,0.101l1.061,-0.209l-0,0.209l0.209,0l-0,-0.75l0.541,-0l-0.101,-0.418l0.101,-0.311l0.729,0l0.331,0.311l-0.101,0.101l0,0.209l0.21,0.231l-0,-0.332l0.209,-0l0.418,0.44l0,0.101l-0.101,0.101l0.101,0.101l0,0.101l-0.101,0.519l0.21,0l0.101,-0.829l0.122,0.101l0.209,-0l0,-0.101c-0.137,-0 -0.209,-0.181 -0.209,-0.541c-0.361,-0.044 -0.541,-0.145 -0.541,-0.311l0.419,-0.851l-0.311,0l0,0.231l-0.31,-0l-0.101,-0.123l-0.101,0l0.101,-0.519l0,-0.101l-0.209,-0l-0.101,0.627l-0.101,-0.101l-0.123,0l-0.101,0.332l-0.728,0l-0,0.419l-0.44,-0l-0,-0.209l0.23,-0l0,-0.101l-0.101,-0.332l0.101,-0c0.166,-0 0.303,-0.246 0.419,-0.729l-0.419,0l-0.555,0.851Zm-0.729,11.428c0,0.209 -0.108,0.31 -0.332,0.31l0.231,0.209l-0.122,0.101l-0,0.209l0.541,0l-0,-0.101c-0.137,-0.151 -0.209,-0.397 -0.209,-0.728l-0.109,-0Zm-0.108,-8.888l0,0.209l0.31,0.101l0.101,-0.101l0,-0.541l-0.101,-0l-0.31,0.332Zm0.209,-5.101l-0.101,0.123l0,0.31l0.311,-0.31l-0.101,-0.123l-0.109,0Zm0,7.64l-0.101,0.101l0,0.101l0.101,0l0,-0.101l0.101,0.101l0.21,0l-0,-0.101l-0.311,-0.101Zm0.109,4.329l-0,0.101l0.209,0.209l0.101,-0l-0,-0.209l-0.101,-0.101l-0.209,-0Zm0.101,-5.599l-0,0.21l0.31,0.31l0.541,-0.209l-0,-0.101l-0.231,-0.21l-0.519,0.101l-0.101,-0.101Zm-0,4.329l-0,0.418l0.519,-0.627l-0.101,-0.101l-0.418,0.31Zm0.209,-2.85l-0,0.101l0.31,0.31l-0,-0.101l-0.31,-0.31Zm-0,3.809l0.209,0.21l0.31,-0.101l0,-0.109l-0.519,0Zm-0,0.96l-0,0.101l0.209,0.209l0.209,-0.209l-0.418,-0.101Zm0.519,-21.917l0,0.209l0.123,0l0.519,-0.101l0,-0.31l-0.642,0.202Zm0.642,13.238c0,0.346 -0.072,0.52 -0.209,0.52l-0.31,-0.101c0.137,0.166 0.209,0.418 0.209,0.75l0.209,-0c0.123,-0 0.231,-0.18 0.31,-0.541l-0.101,-0.101l0.419,-0.209l-0,0.209l0.101,-0l-0,-0.419l-0.628,-0.108Zm-0.202,4.43l0,0.101l0.419,-0l-0,-0.202l-0.101,-0l-0.318,0.101Zm0.411,6.139l0,0.541l-0.209,0.209l-0.209,-0.642l0.101,-0.101l0.317,0l0,-0.007Zm-0.101,-23.706l0,0.31l0.21,0l-0,-0.31l-0.21,0Zm0.852,0.859l-0,0.31l0.209,-0l-0,-0.31l-0.209,-0Zm0.108,-1.169l-0,0.101l0.209,0l0.101,-0.31l-0.101,-0l-0.209,0.209Zm0.101,0.729l-0,0.101l0.209,-0l0.209,-0.21l-0.101,-0.101l-0.101,0l-0.216,0.21Zm0.101,-2.439l0.101,0l0.31,-0.31l-0.101,0l-0.31,0.31Zm-0,17.798l-0,0.209l0.418,-0l0.332,-0.31l0,-0.101l-0.122,-0l-0.628,0.202Zm0.858,-17.567l0,0.52l-0.101,-0l-0.23,-0.21l0.101,-0.101l-0.311,0l0,0.628l-0.209,-0l0,0.209l0.209,0c0,-0.252 0.318,-0.389 0.96,-0.418c0.166,-0.274 0.339,-0.419 0.519,-0.419l0,-0.209l-0.938,0Zm0.729,7.409c0,0.361 -0.101,0.57 -0.31,0.628l-0.419,-0.101l-0.75,0.101l0,0.31l1.479,-0.31l0.209,-0.21l0,-0.209l-0.209,-0.209Zm-0.108,-3.6l-0.628,0l-0.231,-0.209l-0.31,0.101l0,0.418l0.541,0.101l0.101,-0.101l1.061,0.311l-0,-0.101c-0,-0.137 -0.109,-0.21 -0.332,-0.21l-0,-0.101l0.44,-0.418l0.627,-0l0.101,-0.332l-0.101,-0.101l-0.209,0l-1.06,0.642Zm-0.729,-5.079l-0.231,0.419l0.231,-0l0.209,-0.209l-0.209,-0.21Zm-0.122,6.558l-0.101,0.101l-0,0.101l0.331,0.31l0.101,-0.101l0.21,0c0.346,0 0.519,0.145 0.519,0.44l0.332,0l-0,-0.122c-0.289,-0.303 -0.758,-0.549 -1.392,-0.729Zm-0,13.548l-0,0.209l0.642,0.101l-0,0.101c-0,0.239 -0.101,0.484 -0.311,0.751l0,0.101l0.21,-0c0.137,-0 0.209,-0.145 0.209,-0.44l0.642,-0.101l-0,-0.52l-1.392,-0.202Zm0.122,-2.121l0,0.311l0.101,-0l0.31,-0.101l0,-0.21l-0.411,0Zm0.209,-10.576l0,0.21c0.137,-0 0.21,0.137 0.21,0.418l0.209,-0l-0.31,-0.519l-0,-0.101l-0.109,-0l0,-0.008Zm0.419,-4.451l0.101,0.52l-0.209,-0l-0,0.332l0.101,-0l0.959,-0.441l0.101,0l0,-0.101l-0.519,-0.101l-0.332,0l-0,-0.209l-0.202,0Zm-0.108,8.462l-0,0.109l0.101,0.31l0.418,-0l0,-0.209l-0.418,-0.21l-0.101,0Zm0.108,-3.282l-0,0.31l0.209,0l-0.101,-0.31l-0.108,-0Zm0.101,8.787l-0,0.101l0.209,0.209l0,-0.31l-0.209,-0Zm0.209,2.431l-0.101,0.44l0.209,0l0,-0.44l-0.108,0Zm0.44,3.809c0,0.361 -0.18,0.541 -0.541,0.541l0,0.101l0.851,0.101l0,-0.642l-0.31,-0.101Zm-0.332,-4.869l0,0.101l0.123,0.75l0.31,-0c0,-0.346 0.173,-0.52 0.519,-0.52c-0.043,-0.274 -0.252,-0.49 -0.627,-0.642l-0.325,0.311Zm0.224,-1.999l-0,0.419c0.094,-0 0.202,-0.137 0.31,-0.419l-0.31,0Zm0.108,-16.087c0.137,0.555 0.274,0.829 0.418,0.829l0.311,-0.31c-0.137,0 -0.21,-0.173 -0.21,-0.519l-0.101,-0.101l-0.101,-0l-0.317,0.101Zm0,7.199l0.418,0l-0.209,-0.23l-0.209,0.23Zm0,20.416l0,0.101l0.101,0c0.418,-0.072 0.628,-0.173 0.628,-0.31l-0,-0.101l-0.419,0l-0.31,0.31Zm0.101,-16.607l0.209,0.21l0.209,-0l0,-0.101l-0.101,-0.332l-0.101,-0l-0.216,0.223Zm0.209,9.949l-0.101,0.101l0,0.31c0.209,-0 0.31,0.137 0.31,0.418l0.311,0c-0.274,-0.317 -0.419,-0.562 -0.419,-0.728l0.209,-0l0,-0.101l-0.31,-0Zm2.02,-21.917l2.54,0l0.209,0.209l-0.209,0.21l-0,0.331l0.101,0c0.209,0 0.31,-0.252 0.31,-0.75l1.789,0l0.101,0.101l0.123,-0.101l1.37,0c0.044,0.346 0.145,0.52 0.31,0.52l0.101,-0.101l0.101,-0l-0.101,-0.101l0,-0.311l2.641,0l-0,0.311l0.101,-0.101l0.101,0.101l0.209,-0l0,-0.109l-0.101,-0.101l0,-0.101l3.809,0l0.231,0.21l-0,5.078l-0.231,0.21l-2.748,-0l-0,-0.318c-0.138,0 -0.21,0.101 -0.21,0.31l-6.038,0l-0.31,-0.209l-0.31,0.209l-3.91,0l-0.231,-0.209l-0,-0.829l0.101,-0.123l-0.101,-0.101l-0,-3.268l0.231,-0l-0,-0.31l-0.231,-0l-0,-0.448l0.252,-0.209Zm-0.13,11.326c0.448,0 0.765,0.318 0.96,0.96l-0.101,0.101l0.209,-0l0.101,-0.101l0.101,0.101l0.123,-0l0.31,-0.31l-0.541,-0.541l-0,-0.21l0.101,0l0.123,0.101l0.101,0l0.1,-0.101l0.52,0.101l0.851,0l0.52,-0.101l-0,0.101l0.101,-0.101l0.331,0l0.311,0.101l0.519,-0.101l1.811,0l0.829,0.21l0.231,-0.21l0.101,0l0.101,0.101l0.101,-0.101l4.228,0l0.209,0.21l0,0.101l-0.101,-0l-0.519,-0.101l-0.101,0.101l-0,0.101l0.851,0.23l0.101,-0.331l0.209,-0l0,1.911c-0.512,-0.072 -0.902,-0.252 -1.169,-0.541l-0.642,0l0,-0.209l-0.627,0c-0,-0.274 -0.145,-0.418 -0.44,-0.418l-0,0.101c0.166,0.634 0.346,0.959 0.541,0.959c0.209,0 0.31,0.101 0.31,0.31l0.101,0.101l0.101,0c-0,-0.274 0.108,-0.418 0.332,-0.418l0.31,-0.209l0.628,0.418l0.23,0l0.101,-0.101l0.101,0l0.101,0.729l0,1.392l-0.101,0.101l0.101,0.101l0,0.101l-0.101,0.729l-0.75,-0.101l-0.209,0.231l-0.209,-0l-0,-0.123l-0.751,0.123l-1.269,-0l-0.101,-0.123l-0.101,0.123l-0.75,-0l-0.101,-0.123l-0.101,0.123l-0.628,-0l-0.44,-0.123l-0.419,0.123l-0.75,-0l-0.209,-0.231l-0.83,0.231l-2.712,-0c-0.137,-0 -0.274,-0.217 -0.419,-0.642l-0.101,-0l-0.209,0.31l-0.332,-0.101l0,0.101c0,0.223 -0.173,0.332 -0.519,0.332l-0.628,-0l0,-0.231l0.52,-0l-0,-0.101l-0.101,-0.101l0.101,-0.31l0.101,-0l0.101,0.101l0.101,-0l0.101,-0.101l-0,-0.52c-0,-0.151 -0.101,-0.231 -0.311,-0.231l-0.101,0.101l-0.101,0l-0.31,-0.101l0.101,0.101l-0.101,0.123l0,0.101l0.101,0.31l-0.209,0.52l-0.231,-0l0,-1.27l0.101,-0.101l-0.101,-0.101l0,-2.229l0.101,-0c0.152,-0 0.267,0.281 0.332,0.851l0.101,-0c0,-0.433 0.072,-0.714 0.209,-0.851l0,-0.101l-0.642,-0.628l0,-0.332l0.123,-0.101l-0.123,-0.101l0,-0.195l0.007,0Zm0.751,-8.368l-0.101,0.101l-0,0.123l0.101,0.101l0.101,-0l0.101,-0.101l0.31,0.418l-0,0.628l0.123,-0l0.31,-0.101l-0,-0.101c-0.181,-0.462 -0.498,-0.816 -0.945,-1.068Zm0.108,-1.58l0.31,0.209l0.101,-0.31l-0.101,-0.101l-0.101,0l-0.209,0.202Zm0.209,2.951l0,0.231l0.209,-0l0.231,-0.231l-0.44,-0Zm0,10.806l0,0.101l0.101,0l0.541,-0.101l0,-0.209l-0.101,0l-0.541,0.209Zm0.101,-1.478l0,0.209l0.231,-0c-0,0.137 0.101,0.209 0.31,0.209l0,0.75l0.209,0l0.101,-0.541c-0.396,-0.418 -0.685,-0.627 -0.851,-0.627Zm0.541,-1.061c0,0.39 0.173,0.671 0.52,0.851l0.541,-0.75l-0,-0.101l-0.101,0c-0,0.137 -0.145,0.209 -0.44,0.209l-0,0.209l-0.101,0l-0,-0.209l-0.21,-0.209l-0.209,0Zm0.101,-7.827l0,0.418l0.101,0l0.101,-0.31l-0.101,-0.101l-0.101,-0l0,-0.007Zm0.318,-2.54l-0,0.419l0.209,-0.209l-0,-0.21l-0.209,0Zm0.851,12.279l0.209,0.31l-0.519,0.209c-0,0.108 0.137,0.217 0.418,0.31c0,-0.108 0.173,-0.216 0.519,-0.31l0.101,0.101l-0.101,-0.418l-0.101,0.101l-0.209,-0l0,-0.31l-0.317,-0l-0,0.007Zm0.418,-2.77l0,0.122l0.31,-0.122l0,-0.202l-0.101,-0l-0.209,0.202Zm0,1.5l0,0.101l0.101,0.31l0.101,0l0.231,-0.209l-0.433,-0.202Zm0.31,-0.851l0,0.31l0.231,0l0,-0.101l-0.231,-0.209Zm0.123,-0.75l0,0.23l0.101,0l0.31,-0.122l0,-0.209l-0.101,-0l-0.31,0.101Zm0.419,-7.51l-0,0.209l0.209,-0l0.209,-0.209l-0.418,-0Zm0.209,-2.338l-0.101,0.44l0.209,0l0.209,-0.209l-0.317,-0.231Zm1.479,14.299l-0,0.31l0.101,-0l0.331,-0.101l0,-0.101l-0.432,-0.108Zm0.851,-11.759l-0.209,0.642l0.101,-0l0.31,-0.31l-0,-0.332l-0.202,-0Zm-0,8.678l-0,0.231l0.519,0l0,-0.231l-0.101,0.123l-0.101,-0l-0.317,-0.123Zm0.628,1.71l-0,0.418l0.331,0.101l0.21,-0.627l-0.541,0.108Zm0.642,-2.749c0.209,0 0.454,0.138 0.75,0.419c-0,-0.209 0.101,-0.31 0.31,-0.31c0,0.108 0.245,0.281 0.729,0.519l-0,-0.209c-0.332,-0 -0.642,-0.217 -0.938,-0.642l-0.642,-0l-0.209,0.223Zm0.209,-6.99l-0,0.209l0.209,0.209l0,-0.418l-0.209,-0Zm0.101,-2.229l0.31,-0l0,-0.31l-0.31,0.31Zm0.317,12.278l0,0.209l0.332,0.751l0.101,-0l0,-0.642c-0.137,-0 -0.209,-0.101 -0.209,-0.311l-0.224,0l0,-0.007Zm0.224,1.061c-0,0.209 -0.079,0.31 -0.231,0.31l0,0.209l0.44,-0.209l0,-0.31l-0.209,-0Zm0.729,-14.609c-0,0.289 -0.21,0.44 -0.628,0.44l-0.101,-0.123l-0.101,0.441l0.628,-0l0.31,-0.643l-0,-0.101l-0.108,0l-0,-0.014Zm-0.729,11.968l0.101,0.419l0.209,-0l0.209,-0.209l-0.209,-0.21l-0.31,0Zm0.108,0.628l0,0.44l0.101,0l0,-0.44l-0.101,-0Zm1.998,0.202l0.101,0.541l0.332,-0.31l-0.231,-0.231l-0.202,-0Z" style="fill:#fff;fill-rule:nonzero;"/></g></svg>