<?xml version="1.0" encoding="UTF-8" standalone="no"?>
<!DOCTYPE svg PUBLIC "-//W3C//DTD SVG 1.1//EN" "http://www.w3.org/Graphics/SVG/1.1/DTD/svg11.dtd">
<svg width="100%" height="100%" viewBox="0 0 1193 415" version="1.1" xmlns="http://www.w3.org/2000/svg" xmlns:xlink="http://www.w3.org/1999/xlink" xml:space="preserve" xmlns:serif="http://www.serif.com/" style="fill-rule:evenodd;clip-rule:evenodd;stroke-linejoin:round;stroke-miterlimit:2;">
    <g id="m" transform="matrix(1,0,0,1,-192.7,-226.4)">
        <path d="M192.7,255.7L195.6,255.7L245.5,340.8C243.6,340.8 242.6,342.2 242.6,345.1C236.6,345.1 233.7,348.5 233.7,355.2L220.7,353.8L220.7,355.2C220.7,357.5 215.3,360 204.5,362.7L201.6,365.6L199.9,365.6L194.1,358.4L192.7,358.4L192.7,255.7ZM223.6,359.8C228,361.7 230.4,363.6 230.8,365.6L227.9,373.1C229.8,373.1 230.8,371.6 230.8,368.5L239.7,368.5L244,365.6L245.4,365.6L248.3,368.5L245.4,373.1L245.4,374.5L248.3,374.5C253.3,372.4 255.8,370.4 255.8,368.4L260.1,368.4C265.9,372.4 268.8,377.3 268.8,383.1L268.8,384.5C258,385.5 251.7,386.9 249.8,388.8L233.6,388.8C233.6,390.9 231.2,392 226.4,392L222.1,396.3L214.6,394.9L210.3,394.9L199.9,400.7L195.6,400.7L192.7,397.8L192.7,384.5L194.1,383.1L192.7,381.7L192.7,374.5L194.1,374.5L197,377.4L195.6,378.8L195.6,380.2L206,381.6C206,379.7 209.4,378.2 216.1,377.3L214.7,369.8L223.6,369.8L223.6,368.4L220.7,361.2L222.1,361.2L223.6,359.8ZM261.6,397.9L267.5,397.9L268.9,396.5L270.6,396.5C271.6,405.3 274.4,409.8 279.3,409.8L280.7,408.4L283.6,417.1L283.6,427.5L277.8,427.5L277.8,430.4L283.6,430.4L284.2,640.1L206,640.1L199.9,638.7L194.1,640.1L192.7,638.7L192.7,415.7C195,409.7 198.9,406.8 204.5,406.8C209.1,406.8 212.5,405.8 214.6,403.9L217.5,403.9C226.3,407.9 230.8,410.9 230.8,412.8L235.1,411.4C239.1,412.4 241.2,415.7 241.2,421.5L242.6,421.5L245.5,418.6L245.5,415.7C241.7,412 239.7,409.1 239.7,406.8L232.2,406.8L225,405.4L225,402.5L229.3,398.2L248.3,398.2L248.3,401.1L254.4,401.1L254.4,398.2L252.7,396.8L252.7,395L261.6,390.7L261.6,397.9ZM194.2,227.1L282.2,227.1C296.8,247.9 311.1,271.8 324.9,298.9L321.7,298.9C331.3,308.1 340.2,320.3 348.2,335.5L348.2,338.4L345.3,343C349.1,343.4 351.1,344.8 351.1,347.3L349.7,348.7C358.5,349.7 363,354.6 363,363.4L360.1,366.3L343.9,366.3L343.9,369.2L333.5,369.2L333.5,372.1L324.8,372.1L307.2,376.7L307.2,375.3L295.4,378.2L292.5,375.3L288.2,375.3C288.2,378.2 287.1,379.6 285,379.6L283.6,379.6L272,359.3L272,357.9L274.9,357.9C274.9,360.8 277.8,362.2 283.6,362.2L289.7,359.3L292.6,362.2L299.8,360.8L299.8,357.9C294.6,357.9 290.2,355.4 286.5,350.4L279.3,349L279.3,346L275,346L275,348.9L268.9,348.9C266,348.9 264.6,346 264.6,340.2C260.4,340.2 253.1,329.9 242.7,309.3C213.2,262.4 197,235 194.2,227.1ZM207.4,427.4C211.2,431.6 213.2,435.5 213.2,438.9L214.6,438.9C218.3,435.1 221.2,433.1 223.5,433.1L223.5,430.2C220.6,430.2 219.2,429.2 219.2,427.3L207.4,427.3L207.4,427.4ZM207.4,474.1L207.4,477.3L210.3,480.2L211.7,480.2L210.3,478.8L210.3,477.4L211.7,475.7L211.7,474.3L207.4,474.3L207.4,474.1ZM223.6,445L222.2,446.4L222.2,447.8L228,447.8L228,446.4L223.6,445ZM248.4,430.2C248.4,434.6 243.5,437 233.7,437.4L233.7,444.9L235.1,444.9C238.9,440.9 242.9,438.8 246.9,438.8C246.9,435 248.3,433 251.2,433L251.2,430.1L248.4,430.1L248.4,430.2ZM239.7,456.5L245.5,456.5L248.4,453.6L248.4,452.2C242.6,453.1 239.7,454.6 239.7,456.5ZM251.3,357L254.5,357L258.8,362.8L254.5,365.7L251.3,365.7L247,361.4L251.3,357ZM251.3,442.1L251.3,445L260.2,445L260.2,442.1L251.3,442.1ZM252.7,246.2L252.7,247.6L255.9,250.5L255.9,249.1L252.7,246.2ZM258.8,405.1L257.4,412.6L257.4,416.9L258.8,416.9C261.7,415.9 263.1,413.1 263.1,408.2L258.8,405.1ZM273.5,395L276.4,395C280.2,396.5 282.2,399.9 282.2,405.1L280.8,405.1C275.9,403.2 273.5,399.9 273.5,395ZM273.5,438.9L273.5,440.3L276.4,443.5L277.8,443.5L276.4,438.9L273.5,438.9ZM424.7,612.6C408,585.7 380.6,539.8 342.5,475C318.6,437.7 305.9,416.2 304.1,410.7L307.3,410.7L307.3,409.3L304.1,409.3L302.7,410.7C296,400.1 292.6,393.2 292.6,389.9L304.1,389.9L304.1,393.1L311.6,393.1L318.8,394.5L320.2,388.4L327.7,389.8L336.4,389.8L345.3,384L349.6,386.9L351,386.9C351,382.1 355.4,378.7 364.3,376.8L368.6,378.2L368.6,375.3L370,375.3C376.9,381.8 380.4,387.7 380.4,392.9C377.9,392.9 376.5,394.8 376.1,398.7L380.4,401.6L381.8,401.6L380.4,400.2L380.4,395.9L384.7,395.9L424.5,462.8L424.5,612.6L424.7,612.6ZM310.1,334.2L310.1,346C306.1,346.4 304,347.8 304,350.3L304,351.7L312.9,351.7C312.9,357.7 314.8,360.6 318.7,360.6L318.7,356L326.2,357.7L329.1,357.7L337.8,351.6L336.4,350.2L336.4,348.8C336.4,346.3 338.4,344.9 342.5,344.5L342.5,343.1L326.3,343.1C317.5,340.4 313,337.4 313,334.2L310.1,334.2ZM311.6,316.6L310.2,318L310.2,322.6L313.1,325.5L316,322.6L316,320.9L311.6,316.6ZM332.1,346L332.1,351.8L329.2,354.7L327.8,354.7L324.9,351.8L332.1,346ZM339.6,401.7L339.6,404.6L343.9,404.6L343.9,401.7L339.6,401.7ZM352.5,412.1L352.5,413.5L358.6,414.9L360,414.9L360,413.5L357.1,410.6L352.5,412.1ZM357.2,416.4L357.2,420.7L360.1,417.8L360.1,416.4L357.2,416.4ZM373,425L373,426.7L379.1,426.7L379.1,425L373,425ZM380.5,425L384.8,425L389.1,417.8L387.7,417.8C385.2,417.8 382.8,420.2 380.5,425ZM386.3,498.6L386.3,501.5L387.7,501.5L390.6,498.6L386.3,498.6ZM398.1,466.3L402.4,466.3L402.4,463.4L401,463.4L398.1,466.3ZM401,442.9L399.6,447.2L399.6,448.6L401,448.6L403.9,445.7L403.9,442.8L401,442.8L401,442.9ZM523.9,366.8L523.9,365.6L507.7,365.6L504.8,362.7C504.8,353.9 509.2,349 518.1,348L516.7,346.6C516.7,344.1 518.6,342.7 522.5,342.3L519.6,337.7L519.6,334.8C527.7,319.6 536.5,307.4 546.1,298.2L542.9,298.2C556.7,271.1 571,247.1 585.6,226.4L673.6,226.4C670.7,234.3 654.6,261.7 625.1,308.6C614.7,329.2 607.4,339.5 603.2,339.5C603.2,345.3 601.8,348.2 598.9,348.2L592.8,355.4L592.8,352.5L588.5,352.5L588.5,355.4L581.3,356.8C577.6,357 573.2,357.1 568,357.1L568,360L575.2,361.4L578.1,358.5L584.2,361.4C590,361.4 592.9,360 592.9,357.1L595.8,357.1L595.8,358.5L584.3,379C583.7,382.8 577.4,393.1 565.3,409.9L563.9,408.5L560.7,408.5L560.7,409.9L563.9,409.9C562.2,415.5 549.4,436.9 525.5,474.2C487.4,539 460,584.9 443.3,611.8L443.3,462L483.1,395.1L487.4,395.1L487.4,399.4L486,400.8L487.4,400.8L491.7,397.9C491.3,394.1 489.9,392.1 487.4,392.1C487.4,386.9 492.9,378.4 503.8,366.4L505.2,366.4L505.2,369.3L509.5,367.9C516.2,366.4 521,366 523.9,366.8ZM455.8,560.6L458.7,563.5L460.1,563.5L460.1,560.6L455.8,560.6ZM470.2,483L468.8,483L468.8,485.9L473.1,485.9L470.2,483ZM480.1,417L478.7,417L483,424.2L487.3,424.2C485,419.4 482.6,417 480.1,417ZM484.1,450.1L484.1,453L487,455.9L488.4,455.9L488.4,454.5L487,450.2L484.1,450.2L484.1,450.1ZM488.7,424.2L488.7,425.9L494.8,425.9L494.8,424.2L488.7,424.2ZM510.6,409.8L507.7,412.7L507.7,414.1L509.1,414.1L515.2,412.7L515.2,411.3L510.6,409.8ZM507.8,415.5L507.8,416.9L510.7,419.8L510.7,415.5L507.8,415.5ZM523.9,400.8L523.9,403.7L528.2,403.7L528.2,400.8L523.9,400.8ZM544.1,345.7C547.8,343 546.9,341.9 541.5,342.2L525.3,342.2L525.3,343.6C529.3,344 531.4,345.4 531.4,347.9L531.4,349.3L530,350.7L538.7,356.8L541.6,356.8L549.1,355.1L549.1,359.7C552.9,359.7 554.9,356.7 554.9,350.8L563.8,350.8L563.8,349.4C560.3,349.2 556.6,348.9 552.5,348.5L547,345.6L544.1,345.6L544.1,345.7ZM532.3,368.5L526.8,368.5C527.2,369.1 527.4,369.8 527.4,370.8L528.8,370.8L532.3,368.5ZM567.5,376.3L560.6,374.6L560.6,376L543,371.4L534.3,371.4L534.3,368.5L533.4,368.5L535.1,375.7L543.8,375.7L551.3,374.3L552.7,380.4L559.9,379L567.4,379L567.4,376.3L567.5,376.3ZM542.9,350.9L540,353.8L538.6,353.8L535.7,350.9L535.7,345.1L542.9,350.9ZM566,318.3L566,320L568.9,322.9L571.8,320L571.8,315.4L570.4,314L566,318.3ZM580.5,377.7C579.9,376.9 579.6,375.9 579.6,374.5L575.3,374.5L573.3,376.5L580.5,377.7ZM579.3,640.6L577.9,639.2L579.3,599.7L579.3,542.3C584.1,536.5 589.5,533.6 595.5,533.6L592.6,529.3L592.6,521.8L580.8,518.9L580.8,505.6L583.7,502.7L580.8,498.4L580.8,457.1L582.2,413.2C582.2,406.3 595.9,381.4 623.5,338.5L624.9,339.9L627.8,337L624.9,337L668.8,259.1L672,259.1L672,510.1C672,512 670,513 665.9,513L665.9,514.4C669.9,514.4 672,515.4 672,517.3L672,621.4C672,623.3 669.5,624.3 664.5,624.3L664.5,627.2L672,627.2L672,637.6L668.8,640.5L620.6,640.5L610.2,639.1L604.4,640.5L591.1,640.5L589.7,639.1L588.3,640.5L579.3,640.5L579.3,640.6ZM580.7,536.4L579.3,535L579.3,527.8L582.2,524.6L586.8,524.6L589.7,527.8L589.7,530.7C587.8,534.2 584.8,536.6 580.8,537.9L580.8,536.4L580.7,536.4ZM596.9,482.2L596.9,479.3L589.7,480.7L589.7,482.1L591.1,483.5L596.9,482.2ZM610.2,593.5L605.9,589.2L604.5,593.5L604.5,594.9L610.2,593.5ZM615.9,489.4L613,486.5L611.6,486.5L611.6,489.4L615.9,489.4ZM611.9,257.7L611.9,259.1L615.1,256.2L615.1,254.8L611.9,257.7ZM620.6,618.6L616,618.6L616,620L617.4,621.4L620.6,618.6ZM624.9,601L624.9,598.1L617.4,598.1L617.4,601L624.9,601ZM627.8,556.9L627.8,551.1L624.9,554L627.8,556.9ZM639.6,630.5L639.6,627.3L636.7,624.4L636.7,630.5L639.6,630.5ZM646.8,606.8L649.7,606.8L643.9,602.5L641,602.5L641,603.9L646.8,606.8ZM652.6,383.8L652.6,380.9L651.2,380.9L648.3,383.8L652.6,383.8ZM652.6,568.7L661.5,564.4L661.5,563L657.2,563C655.3,563 654.3,564.4 654.3,567.3L651.1,567.3L651.1,568.7L652.6,568.7ZM657.2,530.6L664.4,529.2L664.4,527.8L663,527.8L655.8,529.2L655.8,530.6L657.2,530.6Z" style="fill:#970000;fill-rule:nonzero;"/>
    </g>
    <g id="a" transform="matrix(1,0,0,1,-192.7,-226.4)">
        <path d="M924.1,227.1L1070.4,640.8L963.6,640.8C947.4,582.1 938.2,552.8 935.9,552.8L821.3,552.8L843.5,476.3L914,476.3L914,475C894.4,413.3 880.1,362.5 871.3,322.7L869.9,322.7C869.9,334.2 850.4,405.1 811.3,535.3C800.1,574.2 792.7,596.7 789.1,602.8L786.2,602.8L786.2,605.7L789.1,610L780.4,640.9L779,640.9L774.7,639.5L767.2,640.9L760,640.9L755.4,639.5L748.2,640.9L729.2,640.9L720.3,639.5L716,640.9L716,639.5L714.6,640.9L697,640.9L697,621.9L698.4,613L697,608.7L698.4,610.1L699.8,610.1L701.2,608.7L701.2,607.3L696.9,607.3L696.9,588.3L699.8,585.4L702.7,585.4L707.3,586.8L707.3,585.4L705.9,581.1L702.7,581.1L701.3,582.5L697,581.1L698.4,569.3L699.8,569.3L711.6,531.2L715.9,534.1L717.3,532.7L717.3,531.3L713,528.1L721.7,501.8L723.4,501.8C723.4,503.7 724.8,504.7 727.7,504.7L727.7,513.6L730.6,510.4L730.6,497.4C730.6,494.3 733.5,492.8 739.3,492.8L739.3,491.4L737.9,487.1L735,487.1C731.7,487.1 728.8,492 726.3,501.8L723.4,501.8L723.4,500.4L732.1,472.4L737.9,472.4L737.9,475.3L742.5,475.3L742.5,471L739.3,466.7L742.5,457.8L741.1,456.4L739.4,456.4C739.4,463.3 738.4,466.8 736.5,466.8L735.1,466.8L767.4,369.9L768.8,369.9L768.8,372.8L771.7,372.8L768.8,368.5C770,360.6 772,356.7 774.9,356.7L773.2,355.3L773.2,353.9L817,227.1L924.1,227.1ZM701,621.8L701,626.1C705,624.8 707.1,623.3 707.1,621.8L701,621.8ZM711.4,569C711.4,570.9 710,571.9 707.1,571.9L710,574.8L711.4,574.8L717.2,571.9L717.2,569L711.4,569ZM720.1,576.2C716.2,576.2 714.3,577.7 714.3,580.8L720.1,580.8L720.1,577.6L724.7,576.2L723.3,571.9L721.6,573.3L720.2,573.3L720.2,576.2L720.1,576.2ZM721.5,516.2L721.5,517.6L729,520.5L727.6,516.2L721.5,516.2ZM730.5,545.3L730.5,551.4L734.8,551.4C734.8,549.5 736.2,548.5 739.1,548.5L739.1,545.3L731.9,547L730.5,545.3ZM730.5,614.3L730.5,616L737.7,618.9C737.7,617 739.2,616 742.3,616L742.3,614.3L739.1,611.4L733.3,611.4L730.5,614.3ZM739.1,524.9L739.1,527.8L745.2,527.8L745.2,524.9L739.1,524.9ZM749.5,598.4L746.6,609.9L749.5,618.8L739.1,623.1L740.8,627.4L743.7,627.4C743.7,625.3 745.6,623.4 749.5,621.6L756.7,621.6L756.7,624.5C759.4,624.5 761.4,627.5 762.8,633.4L767.1,633.4L764.2,623C767.1,623 768.5,621.6 768.5,618.7L765.6,609.8L765.6,608.4L768.5,608.4L768.5,604.1L765.6,604.1L762.7,607L762.7,608.4L764.1,621.7L751,611.4L751,605.6L753.9,601.3L753.9,599.9L749.5,598.4ZM743.7,448.7L743.7,450.1L746.6,453L748,451.6L748,448.7L743.7,448.7ZM759.9,428.2C759.9,434 757.9,436.9 753.8,436.9L755.2,438.3L755.2,439.7C752.3,439.7 750.9,441.7 750.9,445.8L756.7,445.8C756.7,437.9 758.7,434 762.8,434L762.8,428.2L759.9,428.2ZM751,498.6L751,500L753.9,497.1L753.9,495.7L751,498.6ZM752.4,539.6L752.4,542.5L762.8,542.5L762.8,541L758.5,539.6L758.5,541L756.8,539.6L752.4,539.6ZM758.5,524.9L756.8,526.3L756.8,527.7L761.4,530.9L762.8,530.9L762.8,529.5L758.5,524.9ZM756.7,586.5L756.7,588L758.4,592.3L761.3,592.3L761.3,586.5L756.7,586.5ZM761.3,401.7L761.3,404.6L768.5,403.2L768.5,401.8L761.3,401.8L761.3,401.7ZM770,486.8C772.7,490.6 775.2,492.6 777.5,492.6L777.5,501.5L780.4,501.5L783.3,495.7C781.4,491.7 778.5,488.7 774.6,486.8L770,486.8ZM771.4,516.2L771.4,522L772.8,520.6L774.5,520.6L772.8,516.3L771.4,516.3L771.4,516.2ZM783.3,583.7C783.3,585.6 781.9,586.6 779,586.6C782.8,590.1 784.8,593.4 784.8,596.7L786.2,596.7L789.1,593.8L789.1,592.4C789,587.6 787.1,584.7 783.3,583.7ZM786.2,466.3L784.8,467.7L784.8,469.1L789.1,469.1L786.2,466.3ZM789,354.7L789,357.9L795.1,359.3L795.1,357.9L790.5,354.7L789,354.7Z" style="fill:#970000;fill-rule:nonzero;"/>
    </g>
    <g id="f" transform="matrix(1,0,0,1,-192.7,-226.4)">
        <path d="M1122.2,227.1L1172.2,227.1L1175.1,230L1175.1,269.5L1172.2,269.5C1172.2,263.7 1171.2,260.8 1169.3,260.8L1166.4,263.7L1166.4,266.6C1166.4,268.5 1169.3,270.5 1175.1,272.7L1175.1,318L1165,316.6L1163.6,316.6L1163.6,318L1175.1,322.6L1175.1,340.2L1170.8,340.2L1170.8,343.1C1173.7,343.1 1175.1,344.1 1175.1,346L1175.1,416.4C1171.3,416.4 1169.3,419.9 1169.3,426.8L1170.7,428.2L1166.4,431.1L1162.1,431.1C1160.2,431.1 1159.2,428.6 1159.2,423.6L1157.5,423.6C1157.5,428.6 1156.1,431.1 1153.2,431.1L1146,431.1L1143.1,428.2L1143.1,422.1C1146,422.1 1147.4,421.1 1147.4,419.2L1146,412L1144.6,413.4L1143.2,413.4L1144.6,414.8L1144.6,419.1L1141.4,422L1137.1,422C1132.3,420.3 1129.9,415.9 1129.9,409L1129.9,407.3L1134.2,405.9L1131.3,397.2C1135.1,397.2 1137.1,394.7 1137.1,389.7L1148.9,389.7L1148.9,383.9L1157.6,383.9L1159.3,382.5L1160.7,382.5C1160.7,379.6 1158.7,378.2 1154.6,378.2L1153.2,369.3L1151.8,370.7L1150.4,370.7L1151.8,372.1L1151.8,375.3L1147.5,379.6L1141.4,381L1141.4,385.3L1140,383.9L1137.1,383.9L1134.2,392.8L1128.4,389.6L1128.4,392.8L1113.7,392.8L1113.7,387L1115.1,379.8C1112.2,379.8 1110.8,378.8 1110.8,376.9L1110.8,370.8L1115.1,369.4C1116.8,376.3 1120.8,379.8 1126.9,379.8L1126.9,378.4C1121.9,375.5 1119.4,372.1 1119.4,368L1122.3,365.1L1123.7,366.5L1131.2,366.5L1131.2,357.8C1131.2,355.7 1132.6,354.6 1135.5,354.6L1135.5,351.7C1129.7,351.7 1126.8,348.8 1126.8,343L1125.4,344.4L1123.7,344.4L1110.7,341.5L1109.3,342.9L1109.3,340C1112.2,340 1113.6,338.9 1113.6,336.8L1113.6,332.5L1110.7,332.5L1110.7,335.4L1103.2,334L1100.3,334L1100.3,335.4L1103.2,335.4L1103.2,338.3L1097.4,340L1097.4,332.5L1101.7,332.5L1101.7,327L1100.3,325.6L1100.3,324.2C1104.1,322.5 1106.1,319.5 1106.1,315.3L1110.7,315.3L1115,319.6L1112.1,322.8L1115,331.5L1117.9,331.5L1117.9,325.7L1119.3,325.7L1122.2,328.6L1120.8,330L1120.8,331.4L1123.7,331.4L1132.6,328.5L1132.6,325.6C1127,325.6 1120.7,322.1 1113.6,315.2L1113.6,303.4L1110.7,303.4C1110.7,305.7 1108.7,308.7 1104.6,312.3L1103.2,310.9L1096,310.9L1098.9,321C1098.9,324.1 1095,328 1087.1,332.8L1087.1,334.2L1081.3,334.2L1081.3,322.7L1084.2,312.3L1081.3,312.3L1081.3,306.5L1084.2,306.5L1084.2,310.8C1091.5,310.8 1095.5,308.9 1096,305L1096,303.3L1094.6,303.3L1094.6,306.5C1086.7,305.5 1082.8,302.1 1082.8,296.1L1088.6,291.8L1097.5,291.8L1096.1,299L1096.1,301.9L1097.5,301.9C1097.7,298.1 1098.7,296.1 1100.4,296.1L1097.5,282.8L1100.4,279.9L1100.4,278.5C1097.5,278.5 1096.1,277.5 1096.1,275.6L1094.7,277L1093.3,277L1088.7,272.7L1088.7,271.3C1093.7,271.3 1096.2,269.3 1096.2,265.2L1094.8,263.8L1096.2,262.4L1097.6,263.8L1101.9,263.8L1109.4,262.4L1110.8,271.3L1112.2,271.3C1115.5,268.2 1118.4,266.7 1120.9,266.7L1120.9,263.8L1115.1,262.4L1119.4,249.1C1116.9,249.1 1115,246.2 1113.6,240.4L1116.5,236.1L1123.7,239L1125.4,237.6L1122.2,228.7L1122.2,227.1ZM1103.2,227.1L1103.2,231.4L1104.6,231.4C1104.6,229.1 1106.6,227.6 1110.7,227.1L1113.6,231.4L1113.6,234.3C1110.7,234.3 1109.3,235.8 1109.3,238.9L1103.2,241.8L1097.4,240.4C1095.5,244.8 1093.6,247.2 1091.6,247.6L1090.2,246.2L1088.5,246.2L1084.2,252L1093.1,253.7L1093.1,263.8C1089.1,263.8 1087,265.2 1087,268.1L1081.2,268.1L1081.2,251.9L1082.6,238.9L1081.2,228.5L1082.6,227.1L1103.2,227.1ZM1081.3,338.5L1084.2,338.5L1085.6,346L1084.2,356.1L1081.3,353.2L1081.3,338.5ZM1096,343.1C1098.1,343.1 1101,348 1104.7,357.8L1106.1,357.8L1107.8,350.3C1104.7,350.3 1103.2,349.3 1103.2,347.4L1110.7,346L1117.9,350.3L1119.3,350.3L1119.3,354.6L1116.4,357.8L1109.2,357.8C1109.2,362.2 1107.7,365.6 1104.6,367.9L1106,367.9L1104.6,369.3L1104.6,370.7L1107.8,379.6L1103.2,382.5L1098.9,378.2L1097.5,378.2L1094.6,381.1C1094.6,388.6 1098,393 1104.7,394.4L1104.7,395.8L1106.1,394.4L1107.8,394.4L1110.7,397.3L1110.7,407.4C1105.7,407.4 1103.2,408.5 1103.2,410.6L1103.2,412C1104.9,415.8 1108.4,417.8 1113.6,417.8C1113.6,412 1114.6,409.1 1116.5,409.1L1116.5,410.5L1120.8,409.1L1120.8,407.4C1120.8,405.5 1119.4,404.5 1116.5,404.5L1115.1,403.1L1115.1,398.8L1118,394.5C1125.9,394.5 1129.8,397.9 1129.8,404.6C1127.9,404.6 1126.9,407.1 1126.9,412.1L1123.7,412.1L1123.7,416.4C1136.6,425.4 1143,430.8 1143,432.6C1143,434.5 1145.4,435.5 1150.2,435.5L1151.6,436.9L1151.6,444.4L1150.2,451.6L1151.6,451.6L1159.1,448.7L1160.5,450.1L1160.5,447.2C1160.5,445.3 1158.5,444.3 1154.4,444.3C1154.4,442.2 1156.9,441.1 1161.9,441.1L1161.9,439.7L1170.6,442.9L1170.6,441.2L1172,435.4L1174.9,435.4L1174.9,469.2L1173.5,479.6L1174.9,492.6L1174.9,589.5C1174.9,593 1173,596.9 1169.1,601.3L1169.1,604.2L1170.5,602.8L1174.8,602.8L1174.8,604.2L1173.4,605.6L1174.8,612.8L1174.8,631.8L1166.1,640.7L1158.9,640.7L1154.3,637.8L1155.7,636.4L1155.7,631.8L1147,635L1147,637.9L1138.1,637.9L1138.1,631.8L1144.2,628.9L1145.6,628.9L1145.6,627.5L1142.7,624.6L1141,624.6C1141,627.1 1138.1,630.1 1132.3,633.5L1123.4,631.8C1124.6,625.1 1126.1,621.7 1128,621.7L1135.2,621.7C1135.2,618.8 1137.7,617.4 1142.7,617.4L1148.5,608.5L1148.5,607.1L1142.7,607.1L1142.7,598.4L1148.5,598.4L1157.2,605.6L1160.4,605.6L1160.4,604.2C1155.4,604.2 1152.9,601.2 1152.9,595.3L1152.9,593.9C1156.9,593.9 1159.9,591.5 1161.8,586.7L1163.2,586.7L1163.2,589.6L1166.1,589.6L1166.1,585.3L1163.2,573.5L1160.3,573.5L1155.7,582.4L1158.9,585.3L1142.7,596.8L1138.1,595.4L1138.1,596.8C1138.1,601.2 1134.3,604.2 1126.6,605.7C1124.5,601.3 1121.5,598.9 1117.7,598.5L1117.7,593.9L1120.6,591L1122,591L1129.5,592.4L1128.1,591L1128.1,589.6L1131,580.9L1123.5,580.9L1125.2,582.3L1125.2,585.2L1120.6,585.2L1117.7,579.1L1117.7,577.7L1116.3,577.7C1116.3,584.6 1115.3,588.1 1113.4,588.1L1110.5,588.1L1105.9,586.7L1105.9,588.1L1103,596.8L1101.6,595.4L1100.2,595.4L1097.3,598.6C1104.2,598.6 1107.7,600.5 1107.7,604.4L1109.1,611.6L1097.3,613L1098.7,614.4L1098.7,624.8C1104.7,624.8 1107.6,625.8 1107.6,627.7L1107.6,636.6L1098.7,636.6C1097,636.6 1095.5,633.6 1094.4,627.7C1087.5,627.7 1084,626.7 1084,624.8L1084,614.4L1086.9,614.4L1086.9,613C1083.1,613 1081.1,612 1081.1,610.1L1081.1,583.8L1091.5,574.9L1081.1,574.9L1081.1,573.5L1084,569.2L1084,564.9L1081.1,560.3L1081.1,473.8C1081.1,471.9 1082.5,470.9 1085.4,470.9L1085.4,469.5C1082.5,469.5 1081.1,468.5 1081.1,466.6L1081.1,434L1084,431.1L1085.4,431.1L1086.8,432.5L1088.2,432.5L1088.2,431.1L1081,423.6L1081,366.5L1083.9,366.5L1086.8,369.4L1085.4,369.4L1086.8,374L1090,374L1090,366.5C1090,364.6 1092.9,363.6 1098.7,363.6L1098.7,362.2L1088.3,359.3L1088.3,356.1L1090,354.7L1090,353.3L1088.3,351.9C1092.2,350 1094.7,347.2 1096,343.1ZM1084.2,635.1L1085.6,636.5L1085.6,637.9L1082.7,640.8L1081.3,639.4L1081.3,638L1084.2,635.1ZM1088.5,530.7L1088.5,533.8L1091.7,533.8L1090.3,535.2L1090.3,536.6L1091.7,540.9L1090.3,540.9L1085.7,542.3L1085.7,543.7L1090.3,543.7C1093.8,537 1100.1,533.6 1109.3,533.6L1109.3,530.7L1096,533.6L1093.1,530.7L1088.5,530.7ZM1088.5,387L1087.1,391.6L1088.5,393L1090.2,393L1093.1,388.4L1091.7,387L1088.5,387ZM1101.8,442.9L1106.1,442.9L1106.1,444.3L1098.9,445.7L1098.9,448.6L1101.8,448.6L1101.8,454.4L1103.2,461.9L1094.5,464.8L1094.5,463.4L1087,464.8L1087,466.2L1088.4,467.6L1088.4,469L1103.1,466.1L1103.1,469L1106,469L1106,458.6L1113.5,458.6L1112.1,452.8L1113.5,448.5L1123.6,448.5L1128.2,452.8L1126.8,454.2L1126.8,457.1L1129.7,460.3L1129.7,455.7L1132.6,455.7L1138.4,461.8L1138.4,463.2L1137,464.6L1138.4,466L1138.4,467.4L1137,474.6L1139.9,474.6L1141.3,463.1L1143,464.5L1145.9,464.5L1145.9,463.1C1144,463.1 1143,460.6 1143,455.6C1138,455 1135.5,453.6 1135.5,451.3L1141.3,439.5L1137,439.5L1137,442.7L1132.7,442.7L1131.3,441L1129.9,441L1131.3,433.8L1131.3,432.4L1128.4,432.4L1127,441.1L1125.6,439.7L1123.9,439.7L1122.5,444.3L1112.4,444.3L1112.4,450.1L1106.3,450.1L1106.3,447.2L1109.5,447.2L1109.5,445.8L1108.1,441.2L1109.5,441.2C1111.8,441.2 1113.7,437.8 1115.3,431.1L1109.5,431.1L1101.8,442.9ZM1091.7,601.3C1091.7,604.2 1090.2,605.6 1087.1,605.6L1090.3,608.5L1088.6,609.9L1088.6,612.8L1096.1,612.8L1096.1,611.4C1094.2,609.3 1093.2,605.9 1093.2,601.3L1091.7,601.3ZM1090.2,478.1L1090.2,481L1094.5,482.4L1095.9,481L1095.9,473.5L1094.5,473.5L1090.2,478.1ZM1093.1,407.4L1091.7,409.1L1091.7,413.4L1096,409.1L1094.6,407.4L1093.1,407.4ZM1093.1,513.3L1091.7,514.7L1091.7,516.1L1093.1,516.1L1093.1,514.7L1094.5,516.1L1097.4,516.1L1097.4,514.7L1093.1,513.3ZM1094.6,573.3L1094.6,574.7L1097.5,577.6L1098.9,577.6L1098.9,574.7L1097.5,573.3L1094.6,573.3ZM1096,495.7L1096,498.6L1100.3,502.9L1107.8,500L1107.8,498.6L1104.6,495.7L1097.4,497.1L1096,495.7ZM1096,555.7L1096,561.5L1103.2,552.8L1101.8,551.4L1096,555.7ZM1098.9,516.2L1098.9,517.6L1103.2,521.9L1103.2,520.5L1098.9,516.2ZM1098.9,569L1101.8,571.9L1106.1,570.5L1106.1,569L1098.9,569ZM1098.9,582.3L1098.9,583.7L1101.8,586.6L1104.7,583.7L1098.9,582.3ZM1106.1,278.5L1106.1,281.4L1107.8,281.4L1115,280L1115,275.7L1106.1,278.5ZM1115,462C1115,466.8 1114,469.2 1112.1,469.2L1107.8,467.8C1109.7,470.1 1110.7,473.6 1110.7,478.2L1113.6,478.2C1115.3,478.2 1116.8,475.7 1117.9,470.7L1116.5,469.3L1122.3,466.4L1122.3,469.3L1123.7,469.3L1123.7,463.5L1115,462ZM1112.2,523.4L1112.2,524.8L1118,524.8L1118,522L1116.6,522L1112.2,523.4ZM1117.9,608.5L1117.9,616L1115,618.9L1112.1,610L1113.5,608.6L1117.9,608.6L1117.9,608.5ZM1116.5,279.9L1116.5,284.2L1119.4,284.2L1119.4,279.9L1116.5,279.9ZM1128.3,291.8L1128.3,296.1L1131.2,296.1L1131.2,291.8L1128.3,291.8ZM1129.8,275.6L1129.8,277L1132.7,277L1134.1,272.7L1132.7,272.7L1129.8,275.6ZM1131.2,285.7L1131.2,287.1L1134.1,287.1L1137,284.2L1135.6,282.8L1134.2,282.8L1131.2,285.7ZM1132.6,251.9L1134,251.9L1138.3,247.6L1136.9,247.6L1132.6,251.9ZM1132.6,498.6L1132.6,501.5L1138.4,501.5L1143,497.2L1143,495.8L1141.3,495.8L1132.6,498.6ZM1144.5,255.1L1144.5,262.3L1143.1,262.3L1139.9,259.4L1141.3,258L1137,258L1137,266.7L1134.1,266.7L1134.1,269.6L1137,269.6C1137,266.1 1141.4,264.2 1150.3,263.8C1152.6,260 1155,258 1157.5,258L1157.5,255.1L1144.5,255.1ZM1154.6,357.8C1154.6,362.8 1153.2,365.7 1150.3,366.5L1144.5,365.1L1134.1,366.5L1134.1,370.8L1154.6,366.5L1157.5,363.6L1157.5,360.7L1154.6,357.8ZM1153.1,307.9L1144.4,307.9L1141.2,305L1136.9,306.4L1136.9,312.2L1144.4,313.6L1145.8,312.2L1160.5,316.5L1160.5,315.1C1160.5,313.2 1159,312.2 1155.9,312.2L1155.9,310.8L1162,305L1170.7,305L1172.1,300.4L1170.7,299L1167.8,299L1153.1,307.9ZM1143,237.5L1139.8,243.3L1143,243.3L1145.9,240.4L1143,237.5ZM1141.3,328.4L1139.9,329.8L1139.9,331.2L1144.5,335.5L1145.9,334.1L1148.8,334.1C1153.6,334.1 1156,336.1 1156,340.2L1160.6,340.2L1160.6,338.5C1156.6,334.3 1150.1,330.9 1141.3,328.4ZM1141.3,516.2L1141.3,519.1L1150.2,520.5L1150.2,521.9C1150.2,525.2 1148.8,528.6 1145.9,532.3L1145.9,533.7L1148.8,533.7C1150.7,533.7 1151.7,531.7 1151.7,527.6L1160.6,526.2L1160.6,519L1141.3,516.2ZM1143,486.8L1143,491.1L1144.4,491.1L1148.7,489.7L1148.7,486.8L1143,486.8ZM1145.9,340.2L1145.9,343.1C1147.8,343.1 1148.8,345 1148.8,348.9L1151.7,348.9L1147.4,341.7L1147.4,340.3L1145.9,340.3L1145.9,340.2ZM1151.7,278.5L1153.1,285.7L1150.2,285.7L1150.2,290.3L1151.6,290.3L1164.9,284.2L1166.3,284.2L1166.3,282.8L1159.1,281.4L1154.5,281.4L1154.5,278.5L1151.7,278.5ZM1150.2,395.8L1150.2,397.3L1151.6,401.6L1157.4,401.6L1157.4,398.7L1151.6,395.8L1150.2,395.8ZM1151.7,350.3L1151.7,354.6L1154.6,354.6L1153.2,350.3L1151.7,350.3ZM1153.1,472.1L1153.1,473.5L1156,476.4L1156,472.1L1153.1,472.1ZM1156,505.8L1154.6,511.9L1157.5,511.9L1157.5,505.8L1156,505.8ZM1162.1,558.6C1162.1,563.6 1159.6,566.1 1154.6,566.1L1154.6,567.5L1166.4,568.9L1166.4,560L1162.1,558.6ZM1157.5,491.1L1157.5,492.5L1159.2,502.9L1163.5,502.9C1163.5,498.1 1165.9,495.7 1170.7,495.7C1170.1,491.9 1167.2,488.9 1162,486.8L1157.5,491.1ZM1160.6,463.4L1160.6,469.2C1161.9,469.2 1163.4,467.3 1164.9,463.4L1160.6,463.4ZM1162.1,240.4C1164,248.1 1165.9,251.9 1167.9,251.9L1172.2,247.6C1170.3,247.6 1169.3,245.2 1169.3,240.4L1167.9,239L1166.5,239L1162.1,240.4ZM1162.1,340.2L1167.9,340.2L1165,337L1162.1,340.2ZM1162.1,623.2L1162.1,624.6L1163.5,624.6C1169.3,623.6 1172.2,622.2 1172.2,620.3L1172.2,618.9L1166.4,618.9L1162.1,623.2ZM1163.5,393L1166.4,395.9L1169.3,395.9L1169.3,394.5L1167.9,389.9L1166.5,389.9L1163.5,393ZM1166.4,530.9L1165,532.3L1165,536.6C1167.9,536.6 1169.3,538.5 1169.3,542.4L1173.6,542.4C1169.8,538 1167.8,534.6 1167.8,532.3L1170.7,532.3L1170.7,530.9L1166.4,530.9ZM1194.4,227.1L1229.6,227.1L1232.5,230L1229.6,232.9L1229.6,237.5L1231,237.5C1233.9,237.5 1235.3,234 1235.3,227.1L1260.1,227.1L1261.5,228.5L1263.2,227.1L1282.2,227.1C1282.8,231.9 1284.2,234.3 1286.5,234.3L1287.9,232.9L1289.3,232.9L1287.9,231.5L1287.9,227.2L1324.5,227.2L1324.5,231.5L1325.9,230.1L1327.3,231.5L1330.2,231.5L1330.2,230L1328.8,228.6L1328.8,227.2L1381.6,227.2L1384.8,230.1L1384.8,300.5L1381.6,303.4L1343.5,303.4L1343.5,299C1341.6,299 1340.6,300.4 1340.6,303.3L1256.9,303.3L1252.6,300.4L1248.3,303.3L1194.1,303.3L1190.9,300.4L1190.9,288.9L1192.3,287.2L1190.9,285.8L1190.9,240.5L1194.1,240.5L1194.1,236.2L1190.9,236.2L1190.9,230L1194.4,227.1ZM1192.6,384.1C1198.8,384.1 1203.2,388.5 1205.9,397.4L1204.5,398.8L1207.4,398.8L1208.8,397.4L1210.2,398.8L1211.9,398.8L1216.2,394.5L1208.7,387L1208.7,384.1L1210.1,384.1L1211.8,385.5L1213.2,385.5L1214.6,384.1L1221.8,385.5L1233.6,385.5L1240.8,384.1L1240.8,385.5L1242.2,384.1L1246.8,384.1L1251.1,385.5L1258.3,384.1L1283.4,384.1L1294.9,387L1298.1,384.1L1299.5,384.1L1300.9,385.5L1302.3,384.1L1360.9,384.1L1363.8,387L1363.8,388.4L1362.4,388.4L1355.2,387L1353.8,388.4L1353.8,389.8L1365.6,393L1367,388.4L1369.9,388.4L1369.9,414.9C1362.8,413.9 1357.4,411.4 1353.7,407.4L1344.8,407.4L1344.8,404.5L1336.1,404.5C1336.1,400.7 1334.1,398.7 1330,398.7L1330,400.1C1332.3,408.9 1334.8,413.4 1337.5,413.4C1340.4,413.4 1341.8,414.8 1341.8,417.7L1343.2,419.1L1344.6,419.1C1344.6,415.3 1346.1,413.3 1349.2,413.3L1353.5,410.4L1362.2,416.2L1365.4,416.2L1366.8,414.8L1368.2,414.8L1369.6,424.9L1369.6,444.2L1368.2,445.6L1369.6,447L1369.6,448.4L1368.2,458.5L1357.8,457.1L1354.9,460.3L1352,460.3L1352,458.6L1341.6,460.3L1324,460.3L1322.6,458.6L1321.2,460.3L1310.8,460.3L1309.4,458.6L1308,460.3L1299.3,460.3L1293.2,458.6L1287.4,460.3L1277,460.3L1274.1,457.1L1262.6,460.3L1225,460.3C1223.1,460.3 1221.2,457.3 1219.2,451.4L1217.8,451.4L1214.9,455.7L1210.3,454.3L1210.3,455.7C1210.3,458.8 1207.9,460.3 1203.1,460.3L1194.4,460.3L1194.4,457.1L1201.6,457.1L1201.6,455.7L1200.2,454.3L1201.6,450L1203,450L1204.4,451.4L1205.8,451.4L1207.2,450L1207.2,442.8C1207.2,440.7 1205.8,439.6 1202.9,439.6L1201.5,441L1200.1,441L1195.8,439.6L1197.2,441L1195.8,442.7L1195.8,444.1L1197.2,448.4L1194.3,455.6L1191.1,455.6L1191.1,438L1192.5,436.6L1191.1,435.2L1191.1,404.3L1192.5,404.3C1194.6,404.3 1196.2,408.2 1197.1,416.1L1198.5,416.1C1198.5,410.1 1199.5,406.2 1201.4,404.3L1201.4,402.9L1192.5,394.2L1192.5,389.6L1194.2,388.2L1192.5,386.8L1192.5,384.1L1192.6,384.1ZM1203,268.1L1201.6,269.5L1201.6,271.2L1203,272.6L1204.4,272.6L1205.8,271.2L1210.1,277L1210.1,285.7L1211.8,285.7L1216.1,284.3L1216.1,282.9C1213.6,276.5 1209.2,271.6 1203,268.1ZM1204.5,246.2L1208.8,249.1L1210.2,244.8L1208.8,243.4L1207.4,243.4L1204.5,246.2ZM1207.4,287.1L1207.4,290.3L1210.3,290.3L1213.5,287.1L1207.4,287.1ZM1207.4,436.9L1207.4,438.3L1208.8,438.3L1216.3,436.9L1216.3,434L1214.9,434L1207.4,436.9ZM1208.8,416.4L1208.8,419.3L1212,419.3C1212,421.2 1213.4,422.2 1216.3,422.2L1216.3,432.6L1219.2,432.6L1220.6,425.1C1215.1,419.3 1211.1,416.4 1208.8,416.4ZM1216.3,401.7C1216.3,407.1 1218.7,411 1223.5,413.5L1231,403.1L1231,401.7L1229.6,401.7C1229.6,403.6 1227.6,404.6 1223.5,404.6L1223.5,407.5L1222.1,407.5L1222.1,404.6L1219.2,401.7L1216.3,401.7ZM1217.7,293.2L1217.7,299L1219.1,299L1220.5,294.7L1219.1,293.3L1217.7,293.3L1217.7,293.2ZM1222.1,258L1222.1,263.8L1225,260.9L1225,258L1222.1,258ZM1233.9,428.2L1236.8,432.5L1229.6,435.4C1229.6,436.9 1231.5,438.4 1235.4,439.7C1235.4,438.2 1237.8,436.7 1242.6,435.4L1244,436.8L1242.6,431L1241.2,432.4L1238.3,432.4L1238.3,428.1L1233.9,428.1L1233.9,428.2ZM1239.7,389.8L1239.7,391.5L1244,389.8L1244,387L1242.6,387L1239.7,389.8ZM1239.7,410.6L1239.7,412L1241.1,416.3L1242.5,416.3L1245.7,413.4L1239.7,410.6ZM1244,398.8L1244,403.1L1247.2,403.1L1247.2,401.7L1244,398.8ZM1245.7,388.4L1245.7,391.6L1247.1,391.6L1251.4,389.9L1251.4,387L1250,387L1245.7,388.4ZM1251.5,284.3L1251.5,287.2L1254.4,287.2L1257.3,284.3L1251.5,284.3ZM1254.4,251.9L1253,258L1255.9,258L1258.8,255.1L1254.4,251.9ZM1274.9,450.1L1274.9,454.4L1276.3,454.4L1280.9,453L1280.9,451.6L1274.9,450.1ZM1286.7,287.1L1283.8,296L1285.2,296L1289.5,291.7L1289.5,287.1L1286.7,287.1ZM1286.7,407.4L1286.7,410.6L1293.9,410.6L1293.9,407.4L1292.5,409.1L1291.1,409.1L1286.7,407.4ZM1295.4,431.1L1295.4,436.9L1300,438.3L1302.9,429.6L1295.4,431.1ZM1304.3,393C1307.2,393 1310.6,394.9 1314.7,398.8C1314.7,395.9 1316.1,394.5 1319,394.5C1319,396 1322.4,398.4 1329.1,401.7L1329.1,398.8C1324.5,398.8 1320.2,395.8 1316.1,389.9L1307.2,389.9L1304.3,393ZM1307.2,296.1L1307.2,299L1310.1,301.9L1310.1,296.1L1307.2,296.1ZM1308.6,265.2L1312.9,265.2L1312.9,260.9L1308.6,265.2ZM1313,435.4L1313,438.3L1317.6,448.7L1319,448.7L1319,439.8C1317.1,439.8 1316.1,438.4 1316.1,435.5L1313,435.5L1313,435.4ZM1316.1,450.1C1316.1,453 1315,454.4 1312.9,454.4L1312.9,457.3L1319,454.4L1319,450.1L1316.1,450.1ZM1326.2,247.6C1326.2,251.6 1323.3,253.7 1317.5,253.7L1316.1,252L1314.7,258.1L1323.4,258.1L1327.7,249.2L1327.7,247.8L1326.2,247.8L1326.2,247.6ZM1316.1,413.5L1317.5,419.3L1320.4,419.3L1323.3,416.4L1320.4,413.5L1316.1,413.5ZM1317.6,422.2L1317.6,428.3L1319,428.3L1319,422.2L1317.6,422.2ZM1345.3,425L1346.7,432.5L1351.3,428.2L1348.1,425L1345.3,425Z" style="fill:#970000;fill-rule:nonzero;"/>
    </g>
</svg>
