<svg height='100px' width='100px'  fill="#970000" xmlns="http://www.w3.org/2000/svg" xmlns:xlink="http://www.w3.org/1999/xlink" version="1.1" x="0px" y="0px" viewBox="0 0 91 91" enable-background="new 0 0 91 91" xml:space="preserve"><g><path d="M85.43,32.657c-0.002,0-0.002,0-0.002,0c-0.07,0.002-0.137,0.019-0.205,0.025c-3.111-5.933-6.492-11.818-9.121-16.298   c0.516-0.707,0.822-1.568,0.805-2.503c-0.051-2.256-1.951-4.092-4.33-4.092h-0.002c-0.49,0.01-0.953,0.118-1.389,0.279   C65.691,7.53,58.719,5.146,49.986,2.821c-0.266-1.521-1.619-2.694-3.289-2.694l0,0c-1.75,0.037-3.146,1.427-3.205,3.13   c-4.17,1.104-8.885,2.416-13.744,3.776l-2.064,0.575c-1.182,0.33-2.285,0.639-3.307,0.92c-0.717-0.507-1.592-0.816-2.555-0.816   c0,0,0,0-0.002,0c-1.135,0.021-2.191,0.477-2.979,1.285c-0.785,0.805-1.203,1.863-1.178,2.976c0.018,0.861,0.307,1.657,0.783,2.317   c-4.088,4.13-8.01,8.539-10.213,13.116c-0.166-0.024-0.332-0.049-0.506-0.049l0,0c-1.811,0.038-3.254,1.517-3.219,3.299   c0.029,1.503,1.131,2.761,2.572,3.082C6.68,37.205,6.691,40.84,6.711,44.396c0.012,2.637,0.02,5.157-0.129,7.566   c-0.85,0.164-1.629,0.569-2.24,1.196c-0.785,0.805-1.205,1.863-1.184,2.979c0.045,2.243,1.922,4.065,4.195,4.094   c1.559,2.975,3.014,7.435,4.225,11.146l0.199,0.606c-0.119,0.094-0.242,0.184-0.35,0.296c-0.605,0.621-0.93,1.439-0.912,2.303   c0.033,1.746,1.504,3.166,3.277,3.166l0.07-0.001c0.738-0.014,1.428-0.277,1.992-0.729c5.416,1.72,11.287,3.888,16.986,5.994   l1.076,0.398c1.393,0.514,2.797,1.032,4.195,1.542l0.521,0.491c0.166,0.157,0.328,0.308,0.494,0.465   c-0.068,0.313-0.111,0.634-0.104,0.963c0.047,2.258,1.953,4.098,4.248,4.098l0.086-0.001c2.338-0.05,4.203-1.963,4.156-4.265   c-0.002-0.109-0.027-0.214-0.039-0.32c2.557-0.152,5.244-0.712,7.842-1.28c2.307-0.502,4.678-1,6.965-1.194   c0.15,1.644,1.559,2.951,3.254,2.951h0.07c1.809-0.038,3.252-1.518,3.217-3.299c-0.023-1.103-0.617-2.072-1.516-2.638   c0.607-1.043,1.238-2.166,1.896-3.338l0.209-0.373c2.117-3.786,4.471-7.981,6.895-11.146c0.105,0.008,0.207,0.032,0.314,0.032   l0.088-0.001c2.34-0.048,4.203-1.963,4.156-4.267c-0.025-1.311-0.689-2.465-1.697-3.215c2.887-5.739,6.523-14.427,7.578-19.745   c0.414-0.169,0.795-0.416,1.113-0.744c0.607-0.622,0.932-1.44,0.914-2.302C88.742,34.079,87.271,32.657,85.43,32.657z    M39.578,83.409c-1.352-1.273-2.717-2.562-4.102-3.882l-1.184-1.12c1.805,0.282,3.641,0.53,5.41,0.76   c0.545,1.424,0.988,2.759,1.377,4.06c-0.234,0.14-0.453,0.302-0.66,0.487C40.139,83.612,39.859,83.513,39.578,83.409z    M33.537,81.192c-5.465-2.021-11.09-4.1-16.32-5.786c2.959,0.319,6.842,1.081,10.385,1.776c1.01,0.201,1.98,0.392,2.898,0.565   c1.166,1.1,2.33,2.205,3.488,3.306l0.525,0.498L33.537,81.192z M13.451,70.748c-1.172-3.59-2.574-7.869-4.131-10.981   c0.223-0.11,0.432-0.236,0.629-0.382c3.004,2.402,6.367,5.29,10.221,8.77c-1.611,1.264-3.133,2.524-4.506,3.728   c-0.545-0.372-1.207-0.597-1.932-0.597l0,0c-0.035,0-0.066,0.01-0.102,0.012C13.57,71.113,13.514,70.938,13.451,70.748z    M8.688,44.383c-0.02-3.628-0.029-7.351,0.412-10.83c0.678-0.29,1.225-0.805,1.574-1.44c0.881,0.304,1.83,0.65,2.865,1.048   c-1.775,6.875-3.199,13.325-4.238,19.198c-0.238-0.119-0.486-0.215-0.746-0.289C8.707,49.553,8.699,46.938,8.688,44.383z    M15.932,24.349c-0.666,2.342-1.301,4.656-1.896,6.91c-1.084-0.414-2.07-0.766-3-1.081c-0.029-0.224-0.082-0.44-0.156-0.648   C11.902,27.974,13.568,26.262,15.932,24.349z M71.805,49.769c0.346-0.313,0.695-0.629,1.049-0.944   c0.211,1.346,0.422,2.663,0.629,3.936C72.932,51.739,72.373,50.739,71.805,49.769z M42.971,82.636   c-0.307-1.028-0.654-2.082-1.053-3.178l1.271,0.166l-0.143,3.003C43.02,82.629,42.996,82.634,42.971,82.636z M69.738,16.981   c-1.006,1.092-2.107,2.242-3.344,3.479c-1.617-1.424-3.227-2.879-4.807-4.343c1.4-0.305,2.785-0.594,4.123-0.875l1.561-0.328   c0.412-0.086,0.816-0.171,1.217-0.255C68.646,15.563,69.09,16.372,69.738,16.981z M72.891,28.665   c1.193,0.868,2.492,1.715,3.674,2.486c1.699,1.104,3.57,2.321,5.115,3.593c-2.527,0.087-5.291,0.244-8.516,0.48   C72.982,32.888,72.891,30.69,72.891,28.665z M51.941,69.001c-1.852,2.576-3.523,5.781-5.182,9.135   c-0.504-0.07-1.008-0.138-1.512-0.205c0.189-4.196,0.395-9.05,0.527-14.023c2.648,0.577,5.078,1.165,7.178,1.734   c-0.006,0.083-0.021,0.165-0.02,0.25c0.01,0.502,0.148,0.969,0.367,1.391c-0.219,0.251-0.438,0.504-0.65,0.774L51.941,69.001z    M58.936,64.042c-0.104-0.152-0.225-0.29-0.354-0.421c1.676-2.203,3.795-4.631,6.35-7.254c2.469,1.485,4.998,3.063,7.545,4.694   c-0.037,0.176-0.053,0.357-0.066,0.538C66.105,62.472,61.648,63.278,58.936,64.042z M36.586,59.985   c-0.119-0.442-0.336-0.844-0.623-1.192c0.186-0.304,0.373-0.608,0.557-0.911c2.143-3.54,4.35-7.187,7.391-9.793   c0.07,4.091,0.055,8.445-0.051,13.254C41.301,60.813,38.754,60.341,36.586,59.985z M47.984,46.897   c3.285,1.695,6.654,3.516,10.061,5.446c-0.824,3.133-1.637,5.724-2.508,7.99c-2.016-4.179-4.801-9.242-7.959-13.119   C47.723,47.119,47.854,47.009,47.984,46.897z M49.217,45.158c0.107-0.292,0.176-0.601,0.215-0.919   c0.615-0.257,1.244-0.522,1.896-0.798c2.758-1.158,5.768-2.413,8.457-3.377c0.299,0.282,0.65,0.507,1.039,0.662   c-0.307,1.275-0.613,2.586-0.939,4.003c-0.41,1.773-0.846,3.642-1.301,5.486C55.488,48.465,52.35,46.777,49.217,45.158z    M41.609,47.537c-2.754,2.68-4.799,6.061-6.791,9.354c-0.166,0.274-0.338,0.551-0.506,0.828c-0.305-0.089-0.621-0.15-0.959-0.15   c0,0,0,0-0.002,0c-0.063,0.002-0.121,0.018-0.182,0.021c-0.859-2.032-1.762-4.659-2.566-7.512   C34.961,48.96,39.014,48.076,41.609,47.537z M45.893,48.232c3.486,4.216,6.557,10.086,8.631,14.567   c-0.057,0.125-0.117,0.246-0.176,0.369c-0.18,0.124-0.348,0.262-0.502,0.42c-0.025,0.026-0.041,0.058-0.066,0.084   c-2.281-0.621-4.992-1.274-7.951-1.914C45.938,56.839,45.959,52.396,45.893,48.232z M63.055,55.245   c-2.453,2.543-4.531,4.923-6.186,7.089c1.047-2.514,1.996-5.407,2.951-8.976C60.896,53.977,61.977,54.604,63.055,55.245z    M58.826,38.336c-2.686,0.973-5.619,2.198-8.307,3.33c-0.461,0.193-0.902,0.379-1.348,0.566c-0.178-0.442-0.434-0.84-0.748-1.194   c2.367-2.776,5.014-5.437,7.268-7.623c1.328,1.155,2.396,2.188,3.285,3.157c-0.15,0.385-0.227,0.8-0.217,1.227   C58.764,37.982,58.791,38.159,58.826,38.336z M46.822,39.887c-0.035-0.015-0.072-0.019-0.107-0.032   c-0.396-4.304-1.338-9.208-2.252-13.966l-0.322-1.708c0.041-0.015,0.086-0.024,0.125-0.042c1.795,1.563,3.775,3.119,5.732,4.655   c1.316,1.032,2.785,2.185,4.189,3.349C51.902,34.362,49.225,37.06,46.822,39.887z M42.088,24.872   c0.088,0.465,0.178,0.933,0.27,1.405c0.875,4.559,1.773,9.254,2.182,13.358c-0.359,0.058-0.709,0.147-1.037,0.292   c-1.955-3.119-4.084-6.327-6.463-9.72C38.646,28.458,40.369,26.639,42.088,24.872z M41.594,41.606   c-2.668-1.176-6.168-2.214-10.58-3.144c0-0.038,0.01-0.075,0.01-0.113c-0.008-0.352-0.088-0.683-0.201-0.998   c1.318-1.636,2.957-3.545,4.859-5.654c2.295,3.285,4.357,6.401,6.256,9.439C41.814,41.29,41.693,41.442,41.594,41.606z    M30.295,40.424l0.217-0.083c4.475,0.94,7.936,1.979,10.504,3.145c-0.008,0.114-0.029,0.224-0.027,0.339   c0.014,0.63,0.182,1.221,0.453,1.754c-2.727,0.561-6.908,1.467-11.35,2.605c-0.615-2.38-1.098-4.666-1.418-6.68   C29.324,41.313,29.883,40.932,30.295,40.424z M64.584,53.688c-1.406-0.837-2.813-1.654-4.219-2.457   c0.521-2.071,1.002-4.138,1.447-6.074c0.352-1.521,0.68-2.929,1.008-4.29c0.148-0.035,0.289-0.086,0.43-0.141   c2.068,2.563,4.068,5.417,5.961,8.529C67.578,50.757,66.025,52.243,64.584,53.688z M67.096,35.715l-2.35,0.197   c-0.602-0.85-1.611-1.412-2.768-1.412l0,0c-0.633,0.012-1.229,0.204-1.742,0.54c-0.873-0.93-1.895-1.912-3.129-2.992   c1.201-1.148,2.412-2.289,3.615-3.422c2.096-1.974,3.869-3.65,5.633-5.375c1.533,1.333,3.068,2.636,4.578,3.886   c-0.063,2.48,0.023,5.186,0.26,8.241C69.82,35.485,68.455,35.601,67.096,35.715z M40.68,23.506   c-1.645,1.69-3.271,3.404-4.799,5.061c-2.617-3.675-5.508-7.549-8.805-11.8c0.457-0.279,0.916-0.558,1.375-0.835   c3.844,1.504,7.672,3.131,11.26,4.769c-0.027,0.18-0.047,0.362-0.043,0.548C39.688,22.132,40.074,22.93,40.68,23.506z    M25.393,17.806c3.416,4.399,6.41,8.416,9.131,12.246c-1.912,2.109-3.586,4.045-4.945,5.712c-0.102-0.069-0.213-0.123-0.322-0.18   c-0.838-2.728-1.607-5.725-2.297-8.432c-0.68-2.663-1.516-5.939-2.416-8.815C24.824,18.16,25.107,17.981,25.393,17.806z    M20.383,45.035c1.719-1.534,3.346-2.997,4.939-4.458c0.365,0.396,0.822,0.7,1.342,0.881c0.33,2.158,0.85,4.645,1.518,7.224   c-7.961,2.125-13.555,4.205-16.719,6.21c-0.078-0.256-0.178-0.499-0.301-0.733c0.045-0.266,0.088-0.527,0.133-0.794   c2.857-2.762,5.906-5.486,8.855-8.123L20.383,45.035z M28.695,50.577c0.832,2.954,1.748,5.635,2.639,7.745   c-0.096,0.078-0.195,0.15-0.283,0.238c-0.148,0.152-0.277,0.315-0.391,0.487c-5.146-1.491-13.439-2.095-18.58-2.246   C14.291,55.267,18.988,53.174,28.695,50.577z M45.158,79.883l0.695,0.096c-0.264,0.53-0.52,1.051-0.773,1.558   C45.105,80.985,45.131,80.435,45.158,79.883z M70.695,47.905c-1.883-3.064-3.867-5.868-5.912-8.4   c0.326-0.488,0.514-1.068,0.531-1.688l2.703-0.227c1.109-0.092,2.227-0.187,3.346-0.277c0.25,2.666,0.607,5.558,1.113,9.004   C71.869,46.853,71.275,47.383,70.695,47.905z M67.875,21.756c1.365-1.368,2.555-2.612,3.631-3.791   c0.191,0.054,0.385,0.094,0.586,0.121c-0.504,1.877-0.854,3.985-1.029,6.39C70.004,23.588,68.938,22.677,67.875,21.756z    M59.357,27.219c-1.248,1.175-2.506,2.359-3.752,3.552c-1.375-1.141-2.805-2.267-4.379-3.503c-1.854-1.453-3.744-2.943-5.467-4.432   c0.309-0.504,0.488-1.09,0.477-1.72c-0.004-0.195-0.033-0.384-0.07-0.57c3.785-1.657,8.924-2.961,12.91-3.872   c1.883,1.772,3.832,3.543,5.801,5.28C63.059,23.731,61.18,25.501,59.357,27.219z M42.59,15.057   c-0.207,1.062-0.414,2.073-0.629,3.06c-0.516,0.159-0.992,0.43-1.377,0.826c-0.002,0.001-0.002,0.003-0.004,0.004   c-3.205-1.463-6.6-2.917-10.016-4.278c1.088-0.648,2.174-1.288,3.244-1.919l0.307-0.182c0.889-0.525,1.77-1.046,2.631-1.56   c2.197,0.044,4.422,0.117,6.629,0.219C43.088,12.508,42.838,13.788,42.59,15.057z M24.541,37.727   c-0.055,0.244-0.09,0.496-0.084,0.755c0.002,0.07,0.02,0.135,0.025,0.204c-1.709,1.578-3.465,3.155-5.322,4.814l-0.203,0.181   c-2.221,1.983-4.682,4.18-7.068,6.418c0.953-4.984,2.18-10.402,3.658-16.151c1.953,0.786,3.967,1.644,5.922,2.478l1.023,0.436   C23.191,37.158,23.865,37.442,24.541,37.727z M30.145,60.929c0.004,0.078,0.02,0.15,0.027,0.228   c-2.576,1.565-5.398,3.498-8.289,5.682c-3.459-3.13-6.531-5.791-9.326-8.075C18.043,58.948,25.643,59.611,30.145,60.929z    M35.787,63.04c0.271-0.278,0.479-0.601,0.631-0.943c2.174,0.359,4.756,0.843,7.393,1.391c-0.115,4.258-0.285,8.802-0.531,14.183   l-2.156-0.279c-1.084-2.707-2.307-5.356-3.395-7.706c-0.834-1.804-1.805-3.908-2.719-6.073   C35.291,63.458,35.559,63.274,35.787,63.04z M56.219,68.331L56.219,68.331v0.005V68.331z M73.561,59.022   c-0.043,0.044-0.072,0.097-0.113,0.142c-2.295-1.465-4.627-2.924-6.984-4.349c1.174-1.166,2.443-2.382,3.854-3.687   c1.342,2.325,2.635,4.801,3.863,7.372C73.959,58.655,73.752,58.827,73.561,59.022z M65.244,13.348   c-1.736,0.363-3.553,0.745-5.379,1.15c-0.795-0.752-1.551-1.475-2.275-2.18C60.357,12.623,62.918,12.967,65.244,13.348z    M45.178,18.835c-0.338-0.308-0.746-0.541-1.197-0.692c0.195-0.919,0.383-1.844,0.561-2.755c0.254-1.313,0.525-2.695,0.838-4.057   c3.033,0.165,5.998,0.38,8.828,0.645c1.033,1.028,2.096,2.064,3.172,3.094C51.953,16.349,48.033,17.558,45.178,18.835z    M44.813,5.941c0.023,0.018,0.043,0.037,0.066,0.053c-0.373,1.001-0.715,2.089-1.035,3.308c-1.354-0.063-2.689-0.117-3.992-0.159   C41.572,8.09,43.301,6.993,44.813,5.941z M45.861,9.408c0.281-1.038,0.582-1.963,0.902-2.817l0.064-0.002   c0.609-0.011,1.186-0.194,1.688-0.508c1.158,1.246,2.344,2.499,3.574,3.756C50.023,9.669,47.939,9.525,45.861,9.408z    M32.789,11.076L32.24,11.4c-1.313,0.778-2.648,1.568-3.979,2.367c-0.77-0.298-1.512-0.575-2.258-0.854   c0.094-0.356,0.156-0.724,0.148-1.109c-0.006-0.234-0.041-0.461-0.084-0.686c1.982-0.095,4.246-0.146,6.742-0.146   c0.051,0,0.104,0,0.156,0C32.908,11.006,32.848,11.041,32.789,11.076z M21.49,16.026c0.184,0.485,0.371,1.008,0.564,1.58   c-0.832,0.537-1.627,1.063-2.379,1.574c0.324-1.088,0.666-2.201,1.006-3.314C20.943,15.945,21.211,15.998,21.49,16.026z    M26.93,35.292c-0.525,0.133-0.994,0.395-1.383,0.742c-0.879-0.37-1.771-0.747-2.693-1.139l-0.359-0.152   c-1.898-0.811-4.225-1.802-6.449-2.698c0.816-3.103,1.736-6.417,2.742-9.865c1.164-0.835,2.443-1.707,3.885-2.646   c0.818,2.686,1.58,5.676,2.205,8.129C25.527,30.219,26.199,32.826,26.93,35.292z M21.637,69.49   c1.875,1.709,3.889,3.576,6.209,5.756c-3.727-0.731-7.848-1.538-10.959-1.827C18.318,72.157,19.932,70.823,21.637,69.49z    M30.992,62.946c0.52,0.568,1.234,0.949,2.039,1.046c0.943,2.261,1.963,4.479,2.898,6.501c1.07,2.315,2.045,4.442,2.941,6.602   c-2.025-0.27-4.125-0.567-6.141-0.919c-0.314-0.055-0.645-0.115-0.982-0.177c-2.512-2.372-5.434-5.118-8.393-7.823   C26.021,66.169,28.607,64.406,30.992,62.946z M48.813,78.43c1.873-3.762,3.764-7.273,5.885-9.758   c0.457,0.24,0.971,0.389,1.521,0.389h0.066c0.17-0.004,0.334-0.033,0.498-0.061c0.219,0.448,0.438,0.896,0.654,1.347   c0.393,0.809,0.789,1.624,1.189,2.439c-3.049,1.973-5.867,3.941-8.389,5.861C49.764,78.574,49.289,78.5,48.813,78.43z    M59.225,69.512c-0.229-0.471-0.459-0.939-0.688-1.409c0.576-0.569,0.93-1.346,0.949-2.201c2.16-0.602,6.119-1.394,13.23-2.375   c0.121,0.285,0.273,0.555,0.453,0.803c-4.342,2.28-8.783,4.819-12.871,7.391c-0.314-0.643-0.625-1.283-0.936-1.92L59.225,69.512z    M74.25,44.766c-0.396-2.798-0.697-5.303-0.918-7.605c3.469-0.261,6.326-0.422,8.979-0.503c0.094,0.373,0.252,0.719,0.465,1.029   C79.713,40.144,76.85,42.517,74.25,44.766z M59.572,74.701c0.99,1.97,2.219,4.317,3.621,6.669c-0.006,0.007-0.014,0.011-0.02,0.017   c-0.07,0.072-0.123,0.155-0.186,0.232c-2.773-0.973-5.955-1.779-9.855-2.486C55.117,77.676,57.275,76.19,59.572,74.701z    M77.664,29.334c-1.652-1.077-3.359-2.19-4.715-3.286c0.143-3.193,0.578-5.931,1.277-8.215c0.121-0.046,0.236-0.101,0.35-0.158   c2.523,4.307,5.773,9.959,8.779,15.687C81.697,31.953,79.678,30.642,77.664,29.334z M68.918,12.035   c-3.805-0.758-8.346-1.398-13.545-1.905c-1.75-1.747-3.438-3.49-5.037-5.205c7.707,2.079,13.967,4.205,19.02,6.45   C69.189,11.581,69.043,11.8,68.918,12.035z M41.49,5.809c-1.66,1.071-3.48,2.173-5.281,3.246c-1.141-0.02-2.256-0.028-3.336-0.028   c-1.074,0-2.117,0.008-3.117,0.028c0.176-0.05,0.354-0.1,0.529-0.148C33.869,7.905,37.799,6.807,41.49,5.809z M16.85,21.175   c-2.33,1.72-4.195,3.316-5.617,4.814c1.777-2.896,4.197-5.718,6.654-8.312C17.533,18.858,17.188,20.023,16.85,21.175z    M46.672,84.322c1.305-1.166,2.748-2.363,4.324-3.58c3.018,0.496,5.596,1.034,7.885,1.648c-1.387,0.245-2.756,0.544-4.047,0.826   c-2.701,0.59-5.484,1.194-8.045,1.261C46.752,84.424,46.711,84.374,46.672,84.322z M65.326,80.414   c-0.131,0.009-0.258,0.021-0.385,0.044c-1.443-2.407-2.697-4.816-3.699-6.825c4.629-2.922,8.93-5.332,12.305-7.117   c-2.082,2.998-4.066,6.542-5.867,9.759l-0.119,0.215C66.777,77.89,66.031,79.219,65.326,80.414z M76.541,57.74h-0.002   c-0.088,0.002-0.17,0.022-0.258,0.029c-0.213-1.375-0.439-2.804-0.684-4.298l-0.068-0.427c-0.297-1.843-0.611-3.782-0.912-5.779   c3.043-2.66,6.383-5.443,9.949-8.293c0.047,0.013,0.092,0.031,0.139,0.042c-1.107,4.962-4.518,13.208-7.338,18.803   C77.1,57.77,76.824,57.74,76.541,57.74z"></path></g></svg>