<svg height='100px' width='100px'  fill="#970000" xmlns:x="http://ns.adobe.com/Extensibility/1.0/" xmlns:i="http://ns.adobe.com/AdobeIllustrator/10.0/" xmlns:graph="http://ns.adobe.com/Graphs/1.0/" xmlns="http://www.w3.org/2000/svg" xmlns:xlink="http://www.w3.org/1999/xlink" version="1.1" x="0px" y="0px" viewBox="0 0 70 70" style="enable-background:new 0 0 70 70;" xml:space="preserve"><metadata><?xpacket begin="&#65279;" id="W5M0MpCehiHzreSzNTczkc9d"?><x:xmpmeta xmlns:x="adobe:ns:meta/" x:xmptk="Adobe XMP Core 5.6-c145 79.163499, 2018/08/13-16:40:22        "></x:xmpmeta><?xpacket end="w"?></metadata><path d="M14.9267578,46.125h-3.6875c-0.5522461,0-1,0.4472656-1,1s0.4477539,1,1,1h3.6875c0.5522461,0,1-0.4472656,1-1  S15.4790039,46.125,14.9267578,46.125z"></path><path d="M67.9985352,6c0-2.2060547-1.7944336-4-4-4H6C3.7944336,2,2,3.7939453,2,6v43.4248047c0,2.2060547,1.7944336,4,4,4  h20.2623291l-1.1774902,5.7687988c-2.1713867,0.0330811-3.9290771,1.8045044-3.9290771,3.9831543V67c0,0.5527344,0.4477539,1,1,1  h25.6875c0.5522461,0,1-0.4472656,1-1v-3.8232422c0-2.1785889-1.7577515-3.9500732-3.9295654-3.9831543l-1.177124-5.7687988  h20.2619629c2.2055664,0,4-1.7939453,4-4v-7.3521118C67.9985352,42.0701294,68,42.0679932,68,42.0654297  s-0.0014648-0.0046997-0.0014648-0.0072632V6z M6,4h57.9985352c1.1030273,0,2,0.8974609,2,2v35.0654297H4V6  C4,4.8974609,4.8969727,4,6,4z M46.8432617,63.1767578V66h-23.6875v-2.8232422c0-1.0966797,0.8925781-1.9892578,1.9892578-1.9892578  h0.7578125h18.1928711h0.7578125C45.9506836,61.1875,46.8432617,62.0800781,46.8432617,63.1767578z M42.8710938,59.1875H27.1274414  l1.1762695-5.7626953h13.3916016L42.8710938,59.1875z M63.9985352,51.4248047H42.5117188H27.4873047H6c-1.1030273,0-2-0.8974609-2-2  v-6.359375h61.9985352v6.359375C65.9985352,50.5273438,65.1015625,51.4248047,63.9985352,51.4248047z"></path><polygon points="23.730896,22.8964844 30.8547974,22.8964844 30.8547974,29.8024292 32.7783813,29.8024292 32.7783813,15.0723267   30.8547974,15.0723267 30.8547974,21.2362671 23.730896,21.2362671 23.730896,15.0723267 21.8295288,15.0723267   21.8295288,29.8024292 23.730896,29.8024292 "></polygon><path d="M46.0502319,27.8130493c1.3773193-1.354126,2.1202393-3.3204346,2.1202393-5.7244263  c0-2.3826294-0.7651978-4.0873413-2.0765991-5.2884521c-1.2892456-1.2028809-3.2341309-1.8363647-5.9655762-1.8363647  c-1.5080566,0-2.8844604,0.1316528-4.0428467,0.3060303v14.4881592c0.961792,0.1102905,2.0979614,0.1761475,3.4530029,0.1761475  C42.4006348,29.9341431,44.6738892,29.1903076,46.0502319,27.8130493z M37.9867554,16.6685181  c0.5026855-0.1085815,1.2456055-0.1975708,2.2287598-0.1975708c4.0214844,0,5.987793,2.208313,5.9664307,5.6835327  c0,3.9769897-2.2073975,6.2493286-6.272522,6.2493286c-0.7429199,0-1.4421997-0.0213623-1.9226685-0.1085205V16.6685181z"></path></svg>