<?xml version="1.0" encoding="UTF-8" standalone="no"?>
<!DOCTYPE svg PUBLIC "-//W3C//DTD SVG 1.1//EN" "http://www.w3.org/Graphics/SVG/1.1/DTD/svg11.dtd">
<svg width="100%" height="100%" viewBox="0 0 1000 115" version="1.1" xmlns="http://www.w3.org/2000/svg" xmlns:xlink="http://www.w3.org/1999/xlink" xml:space="preserve" xmlns:serif="http://www.serif.com/" style="fill-rule:evenodd;clip-rule:evenodd;stroke-linejoin:round;stroke-miterlimit:2;">
    <g transform="matrix(1,0,0,1,0,-200)">
        <g transform="matrix(1.03785,0,0,0.59375,-33.9285,108.779)">
            <path d="M67.052,234.403L67.052,267.763L37.69,216.439L67.052,165.116L67.052,198.476L961.817,198.476L961.817,165.116L991.179,216.439L961.817,267.763L961.817,234.403L67.052,234.403Z"/>
        </g>
        <g transform="matrix(1,0,0,1,-4.52025,156.627)">
            <g transform="matrix(36,0,0,36,37.6905,146.672)">
                <path d="M0.665,-0.233C0.665,-0.243 0.665,-0.25 0.652,-0.25C0.641,-0.25 0.641,-0.244 0.64,-0.234C0.632,-0.091 0.525,-0.009 0.416,-0.009C0.355,-0.009 0.159,-0.043 0.159,-0.341C0.159,-0.64 0.354,-0.674 0.415,-0.674C0.524,-0.674 0.613,-0.583 0.633,-0.437C0.635,-0.423 0.635,-0.42 0.649,-0.42C0.665,-0.42 0.665,-0.423 0.665,-0.444L0.665,-0.681C0.665,-0.698 0.665,-0.705 0.654,-0.705C0.65,-0.705 0.646,-0.705 0.638,-0.693L0.588,-0.619C0.551,-0.655 0.5,-0.705 0.404,-0.705C0.217,-0.705 0.056,-0.546 0.056,-0.342C0.056,-0.135 0.218,0.022 0.404,0.022C0.567,0.022 0.665,-0.117 0.665,-0.233Z" style="fill-rule:nonzero;"/>
            </g>
            <g transform="matrix(36,0,0,36,63.6825,146.672)">
                <path d="M0.471,-0.214C0.471,-0.342 0.371,-0.448 0.25,-0.448C0.125,-0.448 0.028,-0.339 0.028,-0.214C0.028,-0.085 0.132,0.011 0.249,0.011C0.37,0.011 0.471,-0.087 0.471,-0.214ZM0.388,-0.222C0.388,-0.186 0.388,-0.132 0.366,-0.088C0.344,-0.043 0.3,-0.014 0.25,-0.014C0.207,-0.014 0.163,-0.035 0.136,-0.081C0.111,-0.125 0.111,-0.186 0.111,-0.222C0.111,-0.261 0.111,-0.315 0.135,-0.359C0.162,-0.405 0.209,-0.426 0.249,-0.426C0.293,-0.426 0.336,-0.404 0.362,-0.361C0.388,-0.318 0.388,-0.26 0.388,-0.222Z" style="fill-rule:nonzero;"/>
            </g>
            <g transform="matrix(36,0,0,36,81.6825,146.672)">
                <path d="M0.813,-0L0.813,-0.031C0.761,-0.031 0.736,-0.031 0.735,-0.061L0.735,-0.252C0.735,-0.338 0.735,-0.369 0.704,-0.405C0.69,-0.422 0.657,-0.442 0.599,-0.442C0.515,-0.442 0.471,-0.382 0.454,-0.344C0.44,-0.431 0.366,-0.442 0.321,-0.442C0.248,-0.442 0.201,-0.399 0.173,-0.337L0.173,-0.442L0.032,-0.431L0.032,-0.4C0.102,-0.4 0.11,-0.393 0.11,-0.344L0.11,-0.076C0.11,-0.031 0.099,-0.031 0.032,-0.031L0.032,-0L0.145,-0.003L0.257,-0L0.257,-0.031C0.19,-0.031 0.179,-0.031 0.179,-0.076L0.179,-0.26C0.179,-0.364 0.25,-0.42 0.314,-0.42C0.377,-0.42 0.388,-0.366 0.388,-0.309L0.388,-0.076C0.388,-0.031 0.377,-0.031 0.31,-0.031L0.31,-0L0.423,-0.003L0.535,-0L0.535,-0.031C0.468,-0.031 0.457,-0.031 0.457,-0.076L0.457,-0.26C0.457,-0.364 0.528,-0.42 0.592,-0.42C0.655,-0.42 0.666,-0.366 0.666,-0.309L0.666,-0.076C0.666,-0.031 0.655,-0.031 0.588,-0.031L0.588,-0L0.701,-0.003L0.813,-0Z" style="fill-rule:nonzero;"/>
            </g>
            <g transform="matrix(36,0,0,36,111.67,146.672)">
                <path d="M0.521,-0.216C0.521,-0.343 0.424,-0.442 0.312,-0.442C0.234,-0.442 0.192,-0.398 0.172,-0.376L0.172,-0.442L0.028,-0.431L0.028,-0.4C0.099,-0.4 0.106,-0.394 0.106,-0.35L0.106,0.118C0.106,0.163 0.095,0.163 0.028,0.163L0.028,0.194L0.14,0.191L0.253,0.194L0.253,0.163C0.186,0.163 0.175,0.163 0.175,0.118L0.175,-0.059C0.18,-0.043 0.222,0.011 0.298,0.011C0.417,0.011 0.521,-0.087 0.521,-0.216L0.521,-0.216ZM0.438,-0.216C0.438,-0.095 0.368,-0.011 0.294,-0.011C0.254,-0.011 0.216,-0.031 0.189,-0.072C0.175,-0.093 0.175,-0.094 0.175,-0.114L0.175,-0.337C0.204,-0.388 0.253,-0.417 0.304,-0.417C0.377,-0.417 0.438,-0.329 0.438,-0.216L0.438,-0.216Z" style="fill-rule:nonzero;"/>
            </g>
            <g transform="matrix(36,0,0,36,132.694,146.672)">
                <path d="M0.415,-0.119C0.415,-0.129 0.407,-0.131 0.402,-0.131C0.393,-0.131 0.391,-0.125 0.389,-0.117C0.354,-0.014 0.264,-0.014 0.254,-0.014C0.204,-0.014 0.164,-0.044 0.141,-0.081C0.111,-0.129 0.111,-0.195 0.111,-0.231L0.39,-0.231C0.412,-0.231 0.415,-0.231 0.415,-0.252C0.415,-0.351 0.361,-0.448 0.236,-0.448C0.12,-0.448 0.028,-0.345 0.028,-0.22C0.028,-0.086 0.133,0.011 0.248,0.011C0.37,0.011 0.415,-0.1 0.415,-0.119ZM0.349,-0.252L0.112,-0.252C0.118,-0.401 0.202,-0.426 0.236,-0.426C0.339,-0.426 0.349,-0.291 0.349,-0.252ZM0.346,-0.662C0.346,-0.68 0.328,-0.698 0.31,-0.698C0.295,-0.698 0.284,-0.687 0.28,-0.681L0.16,-0.528L0.177,-0.51L0.329,-0.632C0.338,-0.639 0.346,-0.65 0.346,-0.662Z" style="fill-rule:nonzero;"/>
            </g>
            <g transform="matrix(36,0,0,36,148.678,146.672)">
                <path d="M0.332,-0.124L0.332,-0.181L0.307,-0.181L0.307,-0.126C0.307,-0.052 0.277,-0.014 0.24,-0.014C0.173,-0.014 0.173,-0.105 0.173,-0.122L0.173,-0.4L0.316,-0.4L0.316,-0.431L0.173,-0.431L0.173,-0.615L0.148,-0.615C0.147,-0.533 0.117,-0.426 0.019,-0.422L0.019,-0.4L0.104,-0.4L0.104,-0.124C0.104,-0.001 0.197,0.011 0.233,0.011C0.304,0.011 0.332,-0.06 0.332,-0.124L0.332,-0.124Z" style="fill-rule:nonzero;"/>
            </g>
            <g transform="matrix(36,0,0,36,162.682,146.672)">
                <path d="M0.415,-0.119C0.415,-0.129 0.407,-0.131 0.402,-0.131C0.393,-0.131 0.391,-0.125 0.389,-0.117C0.354,-0.014 0.264,-0.014 0.254,-0.014C0.204,-0.014 0.164,-0.044 0.141,-0.081C0.111,-0.129 0.111,-0.195 0.111,-0.231L0.39,-0.231C0.412,-0.231 0.415,-0.231 0.415,-0.252C0.415,-0.351 0.361,-0.448 0.236,-0.448C0.12,-0.448 0.028,-0.345 0.028,-0.22C0.028,-0.086 0.133,0.011 0.248,0.011C0.37,0.011 0.415,-0.1 0.415,-0.119ZM0.349,-0.252L0.112,-0.252C0.118,-0.401 0.202,-0.426 0.236,-0.426C0.339,-0.426 0.349,-0.291 0.349,-0.252Z" style="fill-rule:nonzero;"/>
            </g>
            <g transform="matrix(36,0,0,36,178.666,146.672)">
                <path d="M0.535,-0L0.535,-0.031C0.483,-0.031 0.458,-0.031 0.457,-0.061L0.457,-0.252C0.457,-0.338 0.457,-0.369 0.426,-0.405C0.412,-0.422 0.379,-0.442 0.321,-0.442C0.248,-0.442 0.201,-0.399 0.173,-0.337L0.173,-0.442L0.032,-0.431L0.032,-0.4C0.102,-0.4 0.11,-0.393 0.11,-0.344L0.11,-0.076C0.11,-0.031 0.099,-0.031 0.032,-0.031L0.032,-0L0.145,-0.003L0.257,-0L0.257,-0.031C0.19,-0.031 0.179,-0.031 0.179,-0.076L0.179,-0.26C0.179,-0.364 0.25,-0.42 0.314,-0.42C0.377,-0.42 0.388,-0.366 0.388,-0.309L0.388,-0.076C0.388,-0.031 0.377,-0.031 0.31,-0.031L0.31,-0L0.423,-0.003L0.535,-0Z" style="fill-rule:nonzero;"/>
            </g>
            <g transform="matrix(36,0,0,36,198.682,146.672)">
                <path d="M0.415,-0.119C0.415,-0.129 0.405,-0.129 0.402,-0.129C0.393,-0.129 0.391,-0.125 0.389,-0.119C0.36,-0.026 0.295,-0.014 0.258,-0.014C0.205,-0.014 0.117,-0.057 0.117,-0.218C0.117,-0.381 0.199,-0.423 0.252,-0.423C0.261,-0.423 0.324,-0.422 0.359,-0.386C0.318,-0.383 0.312,-0.353 0.312,-0.34C0.312,-0.314 0.33,-0.294 0.358,-0.294C0.384,-0.294 0.404,-0.311 0.404,-0.341C0.404,-0.409 0.328,-0.448 0.251,-0.448C0.126,-0.448 0.034,-0.34 0.034,-0.216C0.034,-0.088 0.133,0.011 0.249,0.011C0.383,0.011 0.415,-0.109 0.415,-0.119Z" style="fill-rule:nonzero;"/>
            </g>
            <g transform="matrix(36,0,0,36,214.666,146.672)">
                <path d="M0.415,-0.119C0.415,-0.129 0.407,-0.131 0.402,-0.131C0.393,-0.131 0.391,-0.125 0.389,-0.117C0.354,-0.014 0.264,-0.014 0.254,-0.014C0.204,-0.014 0.164,-0.044 0.141,-0.081C0.111,-0.129 0.111,-0.195 0.111,-0.231L0.39,-0.231C0.412,-0.231 0.415,-0.231 0.415,-0.252C0.415,-0.351 0.361,-0.448 0.236,-0.448C0.12,-0.448 0.028,-0.345 0.028,-0.22C0.028,-0.086 0.133,0.011 0.248,0.011C0.37,0.011 0.415,-0.1 0.415,-0.119ZM0.349,-0.252L0.112,-0.252C0.118,-0.401 0.202,-0.426 0.236,-0.426C0.339,-0.426 0.349,-0.291 0.349,-0.252Z" style="fill-rule:nonzero;"/>
            </g>
            <g transform="matrix(36,0,0,36,242.638,146.672)">
                <path d="M0.535,-0L0.535,-0.031C0.465,-0.031 0.457,-0.038 0.457,-0.087L0.457,-0.442L0.31,-0.431L0.31,-0.4C0.38,-0.4 0.388,-0.393 0.388,-0.344L0.388,-0.166C0.388,-0.079 0.34,-0.011 0.267,-0.011C0.183,-0.011 0.179,-0.058 0.179,-0.11L0.179,-0.442L0.032,-0.431L0.032,-0.4C0.11,-0.4 0.11,-0.397 0.11,-0.308L0.11,-0.158C0.11,-0.08 0.11,0.011 0.262,0.011C0.318,0.011 0.362,-0.017 0.391,-0.079L0.391,0.011L0.535,-0Z" style="fill-rule:nonzero;"/>
            </g>
            <g transform="matrix(36,0,0,36,262.654,146.672)">
                <path d="M0.535,-0L0.535,-0.031C0.483,-0.031 0.458,-0.031 0.457,-0.061L0.457,-0.252C0.457,-0.338 0.457,-0.369 0.426,-0.405C0.412,-0.422 0.379,-0.442 0.321,-0.442C0.248,-0.442 0.201,-0.399 0.173,-0.337L0.173,-0.442L0.032,-0.431L0.032,-0.4C0.102,-0.4 0.11,-0.393 0.11,-0.344L0.11,-0.076C0.11,-0.031 0.099,-0.031 0.032,-0.031L0.032,-0L0.145,-0.003L0.257,-0L0.257,-0.031C0.19,-0.031 0.179,-0.031 0.179,-0.076L0.179,-0.26C0.179,-0.364 0.25,-0.42 0.314,-0.42C0.377,-0.42 0.388,-0.366 0.388,-0.309L0.388,-0.076C0.388,-0.031 0.377,-0.031 0.31,-0.031L0.31,-0L0.423,-0.003L0.535,-0Z" style="fill-rule:nonzero;"/>
            </g>
            <g transform="matrix(36,0,0,36,282.67,146.672)">
                <path d="M0.247,-0L0.247,-0.031C0.181,-0.031 0.177,-0.036 0.177,-0.075L0.177,-0.442L0.037,-0.431L0.037,-0.4C0.102,-0.4 0.111,-0.394 0.111,-0.345L0.111,-0.076C0.111,-0.031 0.1,-0.031 0.033,-0.031L0.033,-0L0.143,-0.003C0.178,-0.003 0.213,-0.001 0.247,-0ZM0.192,-0.604C0.192,-0.631 0.169,-0.657 0.139,-0.657C0.105,-0.657 0.085,-0.629 0.085,-0.604C0.085,-0.577 0.108,-0.551 0.138,-0.551C0.172,-0.551 0.192,-0.579 0.192,-0.604Z" style="fill-rule:nonzero;"/>
            </g>
            <g transform="matrix(36,0,0,36,292.678,146.672)">
                <path d="M0.508,-0.4L0.508,-0.431C0.485,-0.429 0.456,-0.428 0.433,-0.428L0.346,-0.431L0.346,-0.4C0.383,-0.399 0.394,-0.376 0.394,-0.357C0.394,-0.348 0.392,-0.344 0.388,-0.333L0.286,-0.078L0.174,-0.357C0.168,-0.37 0.168,-0.374 0.168,-0.374C0.168,-0.4 0.207,-0.4 0.225,-0.4L0.225,-0.431L0.116,-0.428C0.089,-0.428 0.049,-0.429 0.019,-0.431L0.019,-0.4C0.082,-0.4 0.086,-0.394 0.099,-0.363L0.243,-0.008C0.249,0.006 0.251,0.011 0.264,0.011C0.277,0.011 0.281,0.002 0.285,-0.008L0.416,-0.333C0.425,-0.356 0.442,-0.399 0.508,-0.4Z" style="fill-rule:nonzero;"/>
            </g>
            <g transform="matrix(36,0,0,36,310.678,146.672)">
                <path d="M0.415,-0.119C0.415,-0.129 0.407,-0.131 0.402,-0.131C0.393,-0.131 0.391,-0.125 0.389,-0.117C0.354,-0.014 0.264,-0.014 0.254,-0.014C0.204,-0.014 0.164,-0.044 0.141,-0.081C0.111,-0.129 0.111,-0.195 0.111,-0.231L0.39,-0.231C0.412,-0.231 0.415,-0.231 0.415,-0.252C0.415,-0.351 0.361,-0.448 0.236,-0.448C0.12,-0.448 0.028,-0.345 0.028,-0.22C0.028,-0.086 0.133,0.011 0.248,0.011C0.37,0.011 0.415,-0.1 0.415,-0.119ZM0.349,-0.252L0.112,-0.252C0.118,-0.401 0.202,-0.426 0.236,-0.426C0.339,-0.426 0.349,-0.291 0.349,-0.252Z" style="fill-rule:nonzero;"/>
            </g>
            <g transform="matrix(36,0,0,36,326.662,146.672)">
                <path d="M0.364,-0.381C0.364,-0.413 0.333,-0.442 0.29,-0.442C0.217,-0.442 0.181,-0.375 0.167,-0.332L0.167,-0.442L0.028,-0.431L0.028,-0.4C0.098,-0.4 0.106,-0.393 0.106,-0.344L0.106,-0.076C0.106,-0.031 0.095,-0.031 0.028,-0.031L0.028,-0L0.142,-0.003C0.182,-0.003 0.229,-0.003 0.269,-0L0.269,-0.031L0.248,-0.031C0.174,-0.031 0.172,-0.042 0.172,-0.078L0.172,-0.232C0.172,-0.331 0.214,-0.42 0.29,-0.42C0.297,-0.42 0.299,-0.42 0.301,-0.419C0.298,-0.418 0.278,-0.406 0.278,-0.38C0.278,-0.352 0.299,-0.337 0.321,-0.337C0.339,-0.337 0.364,-0.349 0.364,-0.381L0.364,-0.381Z" style="fill-rule:nonzero;"/>
            </g>
            <g transform="matrix(36,0,0,36,340.774,146.672)">
                <path d="M0.36,-0.128C0.36,-0.181 0.33,-0.211 0.318,-0.223C0.285,-0.255 0.246,-0.263 0.204,-0.271C0.148,-0.282 0.081,-0.295 0.081,-0.353C0.081,-0.388 0.107,-0.429 0.193,-0.429C0.303,-0.429 0.308,-0.339 0.31,-0.308C0.311,-0.299 0.322,-0.299 0.322,-0.299C0.335,-0.299 0.335,-0.304 0.335,-0.323L0.335,-0.424C0.335,-0.441 0.335,-0.448 0.324,-0.448C0.319,-0.448 0.317,-0.448 0.304,-0.436C0.301,-0.432 0.291,-0.423 0.287,-0.42C0.249,-0.448 0.208,-0.448 0.193,-0.448C0.071,-0.448 0.033,-0.381 0.033,-0.325C0.033,-0.29 0.049,-0.262 0.076,-0.24C0.108,-0.214 0.136,-0.208 0.208,-0.194C0.23,-0.19 0.312,-0.174 0.312,-0.102C0.312,-0.051 0.277,-0.011 0.199,-0.011C0.115,-0.011 0.079,-0.068 0.06,-0.153C0.057,-0.166 0.056,-0.17 0.046,-0.17C0.033,-0.17 0.033,-0.163 0.033,-0.145L0.033,-0.013C0.033,0.004 0.033,0.011 0.044,0.011C0.049,0.011 0.05,0.01 0.069,-0.009C0.071,-0.011 0.071,-0.013 0.089,-0.032C0.133,0.01 0.178,0.011 0.199,0.011C0.314,0.011 0.36,-0.056 0.36,-0.128L0.36,-0.128Z" style="fill-rule:nonzero;"/>
            </g>
            <g transform="matrix(36,0,0,36,354.958,146.672)">
                <path d="M0.415,-0.119C0.415,-0.129 0.407,-0.131 0.402,-0.131C0.393,-0.131 0.391,-0.125 0.389,-0.117C0.354,-0.014 0.264,-0.014 0.254,-0.014C0.204,-0.014 0.164,-0.044 0.141,-0.081C0.111,-0.129 0.111,-0.195 0.111,-0.231L0.39,-0.231C0.412,-0.231 0.415,-0.231 0.415,-0.252C0.415,-0.351 0.361,-0.448 0.236,-0.448C0.12,-0.448 0.028,-0.345 0.028,-0.22C0.028,-0.086 0.133,0.011 0.248,0.011C0.37,0.011 0.415,-0.1 0.415,-0.119ZM0.349,-0.252L0.112,-0.252C0.118,-0.401 0.202,-0.426 0.236,-0.426C0.339,-0.426 0.349,-0.291 0.349,-0.252Z" style="fill-rule:nonzero;"/>
            </g>
            <g transform="matrix(36,0,0,36,370.942,146.672)">
                <path d="M0.255,-0L0.255,-0.031C0.188,-0.031 0.177,-0.031 0.177,-0.076L0.177,-0.694L0.033,-0.683L0.033,-0.652C0.103,-0.652 0.111,-0.645 0.111,-0.596L0.111,-0.076C0.111,-0.031 0.1,-0.031 0.033,-0.031L0.033,-0L0.144,-0.003L0.255,-0Z" style="fill-rule:nonzero;"/>
            </g>
            <g transform="matrix(36,0,0,36,380.95,146.672)">
                <path d="M0.255,-0L0.255,-0.031C0.188,-0.031 0.177,-0.031 0.177,-0.076L0.177,-0.694L0.033,-0.683L0.033,-0.652C0.103,-0.652 0.111,-0.645 0.111,-0.596L0.111,-0.076C0.111,-0.031 0.1,-0.031 0.033,-0.031L0.033,-0L0.144,-0.003L0.255,-0Z" style="fill-rule:nonzero;"/>
            </g>
            <g transform="matrix(36,0,0,36,390.958,146.672)">
                <path d="M0.415,-0.119C0.415,-0.129 0.407,-0.131 0.402,-0.131C0.393,-0.131 0.391,-0.125 0.389,-0.117C0.354,-0.014 0.264,-0.014 0.254,-0.014C0.204,-0.014 0.164,-0.044 0.141,-0.081C0.111,-0.129 0.111,-0.195 0.111,-0.231L0.39,-0.231C0.412,-0.231 0.415,-0.231 0.415,-0.252C0.415,-0.351 0.361,-0.448 0.236,-0.448C0.12,-0.448 0.028,-0.345 0.028,-0.22C0.028,-0.086 0.133,0.011 0.248,0.011C0.37,0.011 0.415,-0.1 0.415,-0.119ZM0.349,-0.252L0.112,-0.252C0.118,-0.401 0.202,-0.426 0.236,-0.426C0.339,-0.426 0.349,-0.291 0.349,-0.252Z" style="fill-rule:nonzero;"/>
            </g>
        </g>
        <g transform="matrix(1,0,0,1,580.503,156.375)">
            <g transform="matrix(36,0,0,36,37.6905,146.672)">
                <path d="M0.716,-0.652L0.716,-0.683L0.599,-0.68L0.482,-0.683L0.482,-0.652C0.585,-0.652 0.585,-0.605 0.585,-0.578L0.585,-0.151L0.232,-0.67C0.223,-0.682 0.222,-0.683 0.203,-0.683L0.033,-0.683L0.033,-0.652L0.062,-0.652C0.077,-0.652 0.097,-0.651 0.112,-0.65C0.135,-0.647 0.136,-0.646 0.136,-0.627L0.136,-0.105C0.136,-0.078 0.136,-0.031 0.033,-0.031L0.033,-0L0.15,-0.003L0.267,-0L0.267,-0.031C0.164,-0.031 0.164,-0.078 0.164,-0.105L0.164,-0.625C0.169,-0.62 0.17,-0.619 0.174,-0.613L0.582,-0.013C0.591,-0.001 0.592,-0 0.599,-0C0.613,-0 0.613,-0.007 0.613,-0.026L0.613,-0.578C0.613,-0.605 0.613,-0.652 0.716,-0.652Z" style="fill-rule:nonzero;"/>
            </g>
            <g transform="matrix(36,0,0,36,64.6905,146.672)">
                <path d="M0.415,-0.119C0.415,-0.129 0.407,-0.131 0.402,-0.131C0.393,-0.131 0.391,-0.125 0.389,-0.117C0.354,-0.014 0.264,-0.014 0.254,-0.014C0.204,-0.014 0.164,-0.044 0.141,-0.081C0.111,-0.129 0.111,-0.195 0.111,-0.231L0.39,-0.231C0.412,-0.231 0.415,-0.231 0.415,-0.252C0.415,-0.351 0.361,-0.448 0.236,-0.448C0.12,-0.448 0.028,-0.345 0.028,-0.22C0.028,-0.086 0.133,0.011 0.248,0.011C0.37,0.011 0.415,-0.1 0.415,-0.119ZM0.349,-0.252L0.112,-0.252C0.118,-0.401 0.202,-0.426 0.236,-0.426C0.339,-0.426 0.349,-0.291 0.349,-0.252ZM0.346,-0.662C0.346,-0.68 0.328,-0.698 0.31,-0.698C0.295,-0.698 0.284,-0.687 0.28,-0.681L0.16,-0.528L0.177,-0.51L0.329,-0.632C0.338,-0.639 0.346,-0.65 0.346,-0.662Z" style="fill-rule:nonzero;"/>
            </g>
            <g transform="matrix(36,0,0,36,80.6745,146.672)">
                <path d="M0.415,-0.119C0.415,-0.129 0.405,-0.129 0.402,-0.129C0.393,-0.129 0.391,-0.125 0.389,-0.119C0.36,-0.026 0.295,-0.014 0.258,-0.014C0.205,-0.014 0.117,-0.057 0.117,-0.218C0.117,-0.381 0.199,-0.423 0.252,-0.423C0.261,-0.423 0.324,-0.422 0.359,-0.386C0.318,-0.383 0.312,-0.353 0.312,-0.34C0.312,-0.314 0.33,-0.294 0.358,-0.294C0.384,-0.294 0.404,-0.311 0.404,-0.341C0.404,-0.409 0.328,-0.448 0.251,-0.448C0.126,-0.448 0.034,-0.34 0.034,-0.216C0.034,-0.088 0.133,0.011 0.249,0.011C0.383,0.011 0.415,-0.109 0.415,-0.119Z" style="fill-rule:nonzero;"/>
            </g>
            <g transform="matrix(36,0,0,36,96.6585,146.672)">
                <path d="M0.415,-0.119C0.415,-0.129 0.407,-0.131 0.402,-0.131C0.393,-0.131 0.391,-0.125 0.389,-0.117C0.354,-0.014 0.264,-0.014 0.254,-0.014C0.204,-0.014 0.164,-0.044 0.141,-0.081C0.111,-0.129 0.111,-0.195 0.111,-0.231L0.39,-0.231C0.412,-0.231 0.415,-0.231 0.415,-0.252C0.415,-0.351 0.361,-0.448 0.236,-0.448C0.12,-0.448 0.028,-0.345 0.028,-0.22C0.028,-0.086 0.133,0.011 0.248,0.011C0.37,0.011 0.415,-0.1 0.415,-0.119ZM0.349,-0.252L0.112,-0.252C0.118,-0.401 0.202,-0.426 0.236,-0.426C0.339,-0.426 0.349,-0.291 0.349,-0.252Z" style="fill-rule:nonzero;"/>
            </g>
            <g transform="matrix(36,0,0,36,112.642,146.672)">
                <path d="M0.36,-0.128C0.36,-0.181 0.33,-0.211 0.318,-0.223C0.285,-0.255 0.246,-0.263 0.204,-0.271C0.148,-0.282 0.081,-0.295 0.081,-0.353C0.081,-0.388 0.107,-0.429 0.193,-0.429C0.303,-0.429 0.308,-0.339 0.31,-0.308C0.311,-0.299 0.322,-0.299 0.322,-0.299C0.335,-0.299 0.335,-0.304 0.335,-0.323L0.335,-0.424C0.335,-0.441 0.335,-0.448 0.324,-0.448C0.319,-0.448 0.317,-0.448 0.304,-0.436C0.301,-0.432 0.291,-0.423 0.287,-0.42C0.249,-0.448 0.208,-0.448 0.193,-0.448C0.071,-0.448 0.033,-0.381 0.033,-0.325C0.033,-0.29 0.049,-0.262 0.076,-0.24C0.108,-0.214 0.136,-0.208 0.208,-0.194C0.23,-0.19 0.312,-0.174 0.312,-0.102C0.312,-0.051 0.277,-0.011 0.199,-0.011C0.115,-0.011 0.079,-0.068 0.06,-0.153C0.057,-0.166 0.056,-0.17 0.046,-0.17C0.033,-0.17 0.033,-0.163 0.033,-0.145L0.033,-0.013C0.033,0.004 0.033,0.011 0.044,0.011C0.049,0.011 0.05,0.01 0.069,-0.009C0.071,-0.011 0.071,-0.013 0.089,-0.032C0.133,0.01 0.178,0.011 0.199,0.011C0.314,0.011 0.36,-0.056 0.36,-0.128L0.36,-0.128Z" style="fill-rule:nonzero;"/>
            </g>
            <g transform="matrix(36,0,0,36,126.826,146.672)">
                <path d="M0.36,-0.128C0.36,-0.181 0.33,-0.211 0.318,-0.223C0.285,-0.255 0.246,-0.263 0.204,-0.271C0.148,-0.282 0.081,-0.295 0.081,-0.353C0.081,-0.388 0.107,-0.429 0.193,-0.429C0.303,-0.429 0.308,-0.339 0.31,-0.308C0.311,-0.299 0.322,-0.299 0.322,-0.299C0.335,-0.299 0.335,-0.304 0.335,-0.323L0.335,-0.424C0.335,-0.441 0.335,-0.448 0.324,-0.448C0.319,-0.448 0.317,-0.448 0.304,-0.436C0.301,-0.432 0.291,-0.423 0.287,-0.42C0.249,-0.448 0.208,-0.448 0.193,-0.448C0.071,-0.448 0.033,-0.381 0.033,-0.325C0.033,-0.29 0.049,-0.262 0.076,-0.24C0.108,-0.214 0.136,-0.208 0.208,-0.194C0.23,-0.19 0.312,-0.174 0.312,-0.102C0.312,-0.051 0.277,-0.011 0.199,-0.011C0.115,-0.011 0.079,-0.068 0.06,-0.153C0.057,-0.166 0.056,-0.17 0.046,-0.17C0.033,-0.17 0.033,-0.163 0.033,-0.145L0.033,-0.013C0.033,0.004 0.033,0.011 0.044,0.011C0.049,0.011 0.05,0.01 0.069,-0.009C0.071,-0.011 0.071,-0.013 0.089,-0.032C0.133,0.01 0.178,0.011 0.199,0.011C0.314,0.011 0.36,-0.056 0.36,-0.128L0.36,-0.128Z" style="fill-rule:nonzero;"/>
            </g>
            <g transform="matrix(36,0,0,36,141.01,146.672)">
                <path d="M0.247,-0L0.247,-0.031C0.181,-0.031 0.177,-0.036 0.177,-0.075L0.177,-0.442L0.037,-0.431L0.037,-0.4C0.102,-0.4 0.111,-0.394 0.111,-0.345L0.111,-0.076C0.111,-0.031 0.1,-0.031 0.033,-0.031L0.033,-0L0.143,-0.003C0.178,-0.003 0.213,-0.001 0.247,-0ZM0.192,-0.604C0.192,-0.631 0.169,-0.657 0.139,-0.657C0.105,-0.657 0.085,-0.629 0.085,-0.604C0.085,-0.577 0.108,-0.551 0.138,-0.551C0.172,-0.551 0.192,-0.579 0.192,-0.604Z" style="fill-rule:nonzero;"/>
            </g>
            <g transform="matrix(36,0,0,36,151.018,146.672)">
                <path d="M0.332,-0.124L0.332,-0.181L0.307,-0.181L0.307,-0.126C0.307,-0.052 0.277,-0.014 0.24,-0.014C0.173,-0.014 0.173,-0.105 0.173,-0.122L0.173,-0.4L0.316,-0.4L0.316,-0.431L0.173,-0.431L0.173,-0.615L0.148,-0.615C0.147,-0.533 0.117,-0.426 0.019,-0.422L0.019,-0.4L0.104,-0.4L0.104,-0.124C0.104,-0.001 0.197,0.011 0.233,0.011C0.304,0.011 0.332,-0.06 0.332,-0.124L0.332,-0.124Z" style="fill-rule:nonzero;"/>
            </g>
            <g transform="matrix(36,0,0,36,165.022,146.672)">
                <path d="M0.415,-0.119C0.415,-0.129 0.407,-0.131 0.402,-0.131C0.393,-0.131 0.391,-0.125 0.389,-0.117C0.354,-0.014 0.264,-0.014 0.254,-0.014C0.204,-0.014 0.164,-0.044 0.141,-0.081C0.111,-0.129 0.111,-0.195 0.111,-0.231L0.39,-0.231C0.412,-0.231 0.415,-0.231 0.415,-0.252C0.415,-0.351 0.361,-0.448 0.236,-0.448C0.12,-0.448 0.028,-0.345 0.028,-0.22C0.028,-0.086 0.133,0.011 0.248,0.011C0.37,0.011 0.415,-0.1 0.415,-0.119ZM0.349,-0.252L0.112,-0.252C0.118,-0.401 0.202,-0.426 0.236,-0.426C0.339,-0.426 0.349,-0.291 0.349,-0.252ZM0.346,-0.662C0.346,-0.68 0.328,-0.698 0.31,-0.698C0.295,-0.698 0.284,-0.687 0.28,-0.681L0.16,-0.528L0.177,-0.51L0.329,-0.632C0.338,-0.639 0.346,-0.65 0.346,-0.662Z" style="fill-rule:nonzero;"/>
            </g>
            <g transform="matrix(36,0,0,36,192.994,146.672)">
                <path d="M0.415,-0.119C0.415,-0.129 0.407,-0.131 0.402,-0.131C0.393,-0.131 0.391,-0.125 0.389,-0.117C0.354,-0.014 0.264,-0.014 0.254,-0.014C0.204,-0.014 0.164,-0.044 0.141,-0.081C0.111,-0.129 0.111,-0.195 0.111,-0.231L0.39,-0.231C0.412,-0.231 0.415,-0.231 0.415,-0.252C0.415,-0.351 0.361,-0.448 0.236,-0.448C0.12,-0.448 0.028,-0.345 0.028,-0.22C0.028,-0.086 0.133,0.011 0.248,0.011C0.37,0.011 0.415,-0.1 0.415,-0.119ZM0.349,-0.252L0.112,-0.252C0.118,-0.401 0.202,-0.426 0.236,-0.426C0.339,-0.426 0.349,-0.291 0.349,-0.252Z" style="fill-rule:nonzero;"/>
            </g>
            <g transform="matrix(36,0,0,36,208.978,146.672)">
                <path d="M0.535,-0L0.535,-0.031C0.483,-0.031 0.458,-0.031 0.457,-0.061L0.457,-0.252C0.457,-0.338 0.457,-0.369 0.426,-0.405C0.412,-0.422 0.379,-0.442 0.321,-0.442C0.248,-0.442 0.201,-0.399 0.173,-0.337L0.173,-0.442L0.032,-0.431L0.032,-0.4C0.102,-0.4 0.11,-0.393 0.11,-0.344L0.11,-0.076C0.11,-0.031 0.099,-0.031 0.032,-0.031L0.032,-0L0.145,-0.003L0.257,-0L0.257,-0.031C0.19,-0.031 0.179,-0.031 0.179,-0.076L0.179,-0.26C0.179,-0.364 0.25,-0.42 0.314,-0.42C0.377,-0.42 0.388,-0.366 0.388,-0.309L0.388,-0.076C0.388,-0.031 0.377,-0.031 0.31,-0.031L0.31,-0L0.423,-0.003L0.535,-0Z" style="fill-rule:nonzero;"/>
            </g>
            <g transform="matrix(36,0,0,36,240.982,146.672)">
                <path d="M0.415,-0.119C0.415,-0.129 0.407,-0.131 0.402,-0.131C0.393,-0.131 0.391,-0.125 0.389,-0.117C0.354,-0.014 0.264,-0.014 0.254,-0.014C0.204,-0.014 0.164,-0.044 0.141,-0.081C0.111,-0.129 0.111,-0.195 0.111,-0.231L0.39,-0.231C0.412,-0.231 0.415,-0.231 0.415,-0.252C0.415,-0.351 0.361,-0.448 0.236,-0.448C0.12,-0.448 0.028,-0.345 0.028,-0.22C0.028,-0.086 0.133,0.011 0.248,0.011C0.37,0.011 0.415,-0.1 0.415,-0.119ZM0.349,-0.252L0.112,-0.252C0.118,-0.401 0.202,-0.426 0.236,-0.426C0.339,-0.426 0.349,-0.291 0.349,-0.252ZM0.346,-0.662C0.346,-0.68 0.328,-0.698 0.31,-0.698C0.295,-0.698 0.284,-0.687 0.28,-0.681L0.16,-0.528L0.177,-0.51L0.329,-0.632C0.338,-0.639 0.346,-0.65 0.346,-0.662Z" style="fill-rule:nonzero;"/>
            </g>
            <g transform="matrix(36,0,0,36,256.966,146.672)">
                <path d="M0.508,-0.4L0.508,-0.431C0.485,-0.429 0.456,-0.428 0.433,-0.428L0.346,-0.431L0.346,-0.4C0.383,-0.399 0.394,-0.376 0.394,-0.357C0.394,-0.348 0.392,-0.344 0.388,-0.333L0.286,-0.078L0.174,-0.357C0.168,-0.37 0.168,-0.374 0.168,-0.374C0.168,-0.4 0.207,-0.4 0.225,-0.4L0.225,-0.431L0.116,-0.428C0.089,-0.428 0.049,-0.429 0.019,-0.431L0.019,-0.4C0.082,-0.4 0.086,-0.394 0.099,-0.363L0.243,-0.008C0.249,0.006 0.251,0.011 0.264,0.011C0.277,0.011 0.281,0.002 0.285,-0.008L0.416,-0.333C0.425,-0.356 0.442,-0.399 0.508,-0.4Z" style="fill-rule:nonzero;"/>
            </g>
            <g transform="matrix(36,0,0,36,274.966,146.672)">
                <path d="M0.471,-0.214C0.471,-0.342 0.371,-0.448 0.25,-0.448C0.125,-0.448 0.028,-0.339 0.028,-0.214C0.028,-0.085 0.132,0.011 0.249,0.011C0.37,0.011 0.471,-0.087 0.471,-0.214ZM0.388,-0.222C0.388,-0.186 0.388,-0.132 0.366,-0.088C0.344,-0.043 0.3,-0.014 0.25,-0.014C0.207,-0.014 0.163,-0.035 0.136,-0.081C0.111,-0.125 0.111,-0.186 0.111,-0.222C0.111,-0.261 0.111,-0.315 0.135,-0.359C0.162,-0.405 0.209,-0.426 0.249,-0.426C0.293,-0.426 0.336,-0.404 0.362,-0.361C0.388,-0.318 0.388,-0.26 0.388,-0.222Z" style="fill-rule:nonzero;"/>
            </g>
            <g transform="matrix(36,0,0,36,292.966,146.672)">
                <path d="M0.255,-0L0.255,-0.031C0.188,-0.031 0.177,-0.031 0.177,-0.076L0.177,-0.694L0.033,-0.683L0.033,-0.652C0.103,-0.652 0.111,-0.645 0.111,-0.596L0.111,-0.076C0.111,-0.031 0.1,-0.031 0.033,-0.031L0.033,-0L0.144,-0.003L0.255,-0Z" style="fill-rule:nonzero;"/>
            </g>
            <g transform="matrix(36,0,0,36,302.974,146.672)">
                <path d="M0.535,-0L0.535,-0.031C0.465,-0.031 0.457,-0.038 0.457,-0.087L0.457,-0.442L0.31,-0.431L0.31,-0.4C0.38,-0.4 0.388,-0.393 0.388,-0.344L0.388,-0.166C0.388,-0.079 0.34,-0.011 0.267,-0.011C0.183,-0.011 0.179,-0.058 0.179,-0.11L0.179,-0.442L0.032,-0.431L0.032,-0.4C0.11,-0.4 0.11,-0.397 0.11,-0.308L0.11,-0.158C0.11,-0.08 0.11,0.011 0.262,0.011C0.318,0.011 0.362,-0.017 0.391,-0.079L0.391,0.011L0.535,-0Z" style="fill-rule:nonzero;"/>
            </g>
            <g transform="matrix(36,0,0,36,322.99,146.672)">
                <path d="M0.332,-0.124L0.332,-0.181L0.307,-0.181L0.307,-0.126C0.307,-0.052 0.277,-0.014 0.24,-0.014C0.173,-0.014 0.173,-0.105 0.173,-0.122L0.173,-0.4L0.316,-0.4L0.316,-0.431L0.173,-0.431L0.173,-0.615L0.148,-0.615C0.147,-0.533 0.117,-0.426 0.019,-0.422L0.019,-0.4L0.104,-0.4L0.104,-0.124C0.104,-0.001 0.197,0.011 0.233,0.011C0.304,0.011 0.332,-0.06 0.332,-0.124L0.332,-0.124Z" style="fill-rule:nonzero;"/>
            </g>
            <g transform="matrix(36,0,0,36,336.994,146.672)">
                <path d="M0.247,-0L0.247,-0.031C0.181,-0.031 0.177,-0.036 0.177,-0.075L0.177,-0.442L0.037,-0.431L0.037,-0.4C0.102,-0.4 0.111,-0.394 0.111,-0.345L0.111,-0.076C0.111,-0.031 0.1,-0.031 0.033,-0.031L0.033,-0L0.143,-0.003C0.178,-0.003 0.213,-0.001 0.247,-0ZM0.192,-0.604C0.192,-0.631 0.169,-0.657 0.139,-0.657C0.105,-0.657 0.085,-0.629 0.085,-0.604C0.085,-0.577 0.108,-0.551 0.138,-0.551C0.172,-0.551 0.192,-0.579 0.192,-0.604Z" style="fill-rule:nonzero;"/>
            </g>
            <g transform="matrix(36,0,0,36,347.002,146.672)">
                <path d="M0.471,-0.214C0.471,-0.342 0.371,-0.448 0.25,-0.448C0.125,-0.448 0.028,-0.339 0.028,-0.214C0.028,-0.085 0.132,0.011 0.249,0.011C0.37,0.011 0.471,-0.087 0.471,-0.214ZM0.388,-0.222C0.388,-0.186 0.388,-0.132 0.366,-0.088C0.344,-0.043 0.3,-0.014 0.25,-0.014C0.207,-0.014 0.163,-0.035 0.136,-0.081C0.111,-0.125 0.111,-0.186 0.111,-0.222C0.111,-0.261 0.111,-0.315 0.135,-0.359C0.162,-0.405 0.209,-0.426 0.249,-0.426C0.293,-0.426 0.336,-0.404 0.362,-0.361C0.388,-0.318 0.388,-0.26 0.388,-0.222Z" style="fill-rule:nonzero;"/>
            </g>
            <g transform="matrix(36,0,0,36,365.002,146.672)">
                <path d="M0.535,-0L0.535,-0.031C0.483,-0.031 0.458,-0.031 0.457,-0.061L0.457,-0.252C0.457,-0.338 0.457,-0.369 0.426,-0.405C0.412,-0.422 0.379,-0.442 0.321,-0.442C0.248,-0.442 0.201,-0.399 0.173,-0.337L0.173,-0.442L0.032,-0.431L0.032,-0.4C0.102,-0.4 0.11,-0.393 0.11,-0.344L0.11,-0.076C0.11,-0.031 0.099,-0.031 0.032,-0.031L0.032,-0L0.145,-0.003L0.257,-0L0.257,-0.031C0.19,-0.031 0.179,-0.031 0.179,-0.076L0.179,-0.26C0.179,-0.364 0.25,-0.42 0.314,-0.42C0.377,-0.42 0.388,-0.366 0.388,-0.309L0.388,-0.076C0.388,-0.031 0.377,-0.031 0.31,-0.031L0.31,-0L0.423,-0.003L0.535,-0Z" style="fill-rule:nonzero;"/>
            </g>
        </g>
    </g>
</svg>
