<svg height='100px' width='100px'  fill="#da7a29" xmlns="http://www.w3.org/2000/svg" xmlns:xlink="http://www.w3.org/1999/xlink" version="1.1" x="0px" y="0px" viewBox="0 0 512 512" style="enable-background:new 0 0 512 512;" xml:space="preserve"><title>Digital Brain</title><g><path d="M403.8,127c0,3.3,2.7,6,6,6H448c3.3,0,6-2.7,6-6s-2.7-6-6-6h-38.1C406.5,121,403.8,123.7,403.8,127z"></path><path d="M395.5,87.2L395.5,87.2c1.3,0,2.6-0.4,3.6-1.2l38.1-28.6c2.6-2,3.1-5.8,1-8.4c-2-2.5-5.6-3-8.2-1.2l-38.1,28.6   c-2.7,2-3.2,5.7-1.2,8.4C391.9,86.4,393.6,87.2,395.5,87.2z"></path><path d="M391.7,177.3c0.1,0.1,0.1,0.1,0.2,0.2l38.1,28.6c2.7,1.9,6.4,1.3,8.4-1.4c1.9-2.6,1.3-6.2-1.2-8.2l-38.1-28.6   c-2.6-2-6.4-1.6-8.4,1C388.7,171.5,389.1,175.3,391.7,177.3z"></path><path d="M71.7,127c0-3.3-2.7-6-6-6H27.5c-3.3,0-6,2.7-6,6s2.7,6,6,6h38.1C69,133,71.7,130.3,71.7,127z"></path><path d="M76.4,167.9L76.4,167.9l-38.1,28.6c-2.7,2-3.2,5.7-1.2,8.4c2,2.7,5.7,3.2,8.4,1.2l38.1-28.6c2.7-2,3.2-5.7,1.2-8.4   C82.8,166.4,79,165.9,76.4,167.9z"></path><path d="M83.6,76.4C83.6,76.4,83.6,76.4,83.6,76.4L45.4,47.9c-2.7-1.9-6.4-1.3-8.4,1.4c-1.9,2.6-1.3,6.2,1.2,8.2l0,0L76.4,86   c2.6,2,6.4,1.5,8.4-1.2C86.7,82.2,86.2,78.4,83.6,76.4z"></path><path d="M277.5,243.4c4,0,7.9-1.1,11.3-3.3c-5.3-6.1-8.2-13.9-8.2-21.9c-0.1-3.3,2.5-6.1,5.8-6.2c3.3-0.1,6.1,2.5,6.2,5.8   c0,0.1,0,0.3,0,0.4c0,12,9.7,21.7,21.7,21.7c12,0,21.7-9.7,21.7-21.7v-6.1c-2,0.1-2.9,0.2-4.3,0.2c-3.3,0-6-2.7-6.1-6   c0-3.3,2.6-6,5.9-6c0,0,0,0,0,0c17,0,30.7-13.8,30.7-30.7s-13.8-30.7-30.7-30.7c-3.3,0-6-2.7-6-6c0-3.3,2.7-6,6-6   c6.5,0,12.9,1.5,18.7,4.3c8.6-7.1,9.8-19.8,2.7-28.4c-1.3-1.5-2.8-2.9-4.4-4c-0.3-0.2-0.7-0.4-1-0.6c0,0,0,0.1,0,0.1   c-1.7,2.9-5.3,3.8-8.2,2.2s-3.8-5.3-2.2-8.2c8.5-14.7,3.4-33.5-11.3-41.9c-10.6-6.1-23.7-5.4-33.5,1.9c-2.7,2-6.4,1.4-8.4-1.3   s-1.4-6.4,1.3-8.4c0.9-0.7,1.8-1.3,2.8-1.9c4.3-8.3,1.1-18.5-7.1-22.8c-8.3-4.3-18.5-1.1-22.8,7.1c-1.3,2.4-1.9,5.1-1.9,7.9v189   C256,233.8,265.6,243.4,277.5,243.4z M283.4,93.5C283.4,93.5,283.4,93.5,283.4,93.5c2.4-2.3,6.2-2.3,8.5,0.1c0,0,0,0,0,0   c1.7,1.8,4.2,2.6,6.7,2.3c4.7-6.8,13.2-10,21.2-7.9c3.2,0.8,5.1,4.1,4.3,7.3c-0.8,3.2-4.1,5.1-7.3,4.3c-4.2-1.1-8.4,1.5-9.5,5.7   c-0.5,1.9-0.2,3.9,0.7,5.7c1.6,2.9,0.5,6.6-2.4,8.2c-2.9,1.6-6.6,0.5-8.2-2.4c-1.5-2.7-2.3-5.8-2.4-8.9c-4.5-0.5-8.6-2.6-11.8-5.8   C281,99.6,281,95.8,283.4,93.5z M279.2,164c3.5-2.5,7.5-4,11.7-4.4c-0.4-5.9,1.5-11.7,5.2-16.3c2-2.6,5.8-3.1,8.4-1   c2.6,2,3.1,5.8,1,8.4c0,0-0.1,0.1-0.1,0.1c-2.5,3.1-3.2,7.3-1.9,11.1c0.1,0,0.1,0.1,0.2,0.1c9,4.5,14.2,14.3,12.9,24.3   c-0.4,3.3-3.4,5.6-6.7,5.2c-3.3-0.4-5.6-3.4-5.2-6.7c0.8-6.4-3.7-12.3-10.1-13.2c-1.7-0.2-3.5-0.1-5.2,0.5   c-1.1,0.4-2.2,0.9-3.2,1.6c-2.7,1.9-6.5,1.2-8.4-1.5C276,169.6,276.6,165.9,279.2,164z"></path><path d="M402,316.5v6.4c0,13.3,10.7,24,24,24.1h30v-54h-30C412.7,293,402,303.3,402,316.5z"></path><path d="M181.3,218.2c0-3.3,2.7-6,6-6s6,2.7,6,6c0,8.1-2.9,15.8-8.2,21.9c10.1,6.3,23.3,3.2,29.6-6.9c2.1-3.4,3.3-7.4,3.3-11.4   v-189c0-9.3-7.6-16.9-16.9-16.9c-9.3,0-16.9,7.6-16.9,16.9c0,2.7,0.7,5.4,1.9,7.8c0.9,0.6,1.9,1.2,2.8,1.9c2.7,1.9,3.3,5.7,1.4,8.4   c-1.9,2.7-5.7,3.3-8.4,1.4c0,0-0.1-0.1-0.1-0.1c-13.7-10.1-32.9-7.1-42.9,6.5c-7.2,9.8-8,23-1.9,33.5c1.7,2.9,0.7,6.5-2.2,8.2   s-6.5,0.7-8.2-2.2c0,0,0-0.1,0-0.1c-0.3,0.2-0.7,0.4-1,0.6c-9.3,6.1-11.9,18.6-5.7,27.9c1.1,1.7,2.4,3.2,4,4.4   c5.8-2.8,12.2-4.3,18.7-4.3c3.3,0,6,2.7,6,6c0,3.3-2.7,6-6,6h0c-17,0-30.7,13.7-30.7,30.7s13.7,30.7,30.7,30.7c3.3,0,6,2.7,6,6   c-0.1,3.3-2.8,6-6.1,6c-1.4,0-2.2-0.1-4.2-0.2v6.1c0,11.9,9.7,21.6,21.6,21.6C171.6,239.9,181.3,230.2,181.3,218.2z M155.5,81   c-0.9-3.2,1-6.5,4.2-7.3c0,0,0.1,0,0.1,0h0c8-2.1,16.5,1.1,21.2,7.9c2.5,0.4,5-0.5,6.7-2.3c2.3-2.4,6.1-2.4,8.5-0.1   c2.4,2.3,2.4,6.1,0.1,8.5c-3.1,3.2-7.3,5.3-11.8,5.8c-0.1,3.1-0.9,6.2-2.4,8.9c-1.6,2.9-5.3,3.9-8.2,2.3c-2.9-1.6-3.9-5.2-2.3-8.1   c2.1-3.8,0.7-8.5-3.1-10.6c-0.7-0.4-1.4-0.7-2.2-0.8c-1.1-0.2-2.3-0.2-3.5,0.1C159.6,86.1,156.3,84.2,155.5,81z M171.3,176.4   c-0.7,1-1.2,2-1.6,3.2c-0.6,1.7-0.7,3.5-0.5,5.2c0.4,3.3-1.9,6.3-5.2,6.7c-3.3,0.4-6.3-1.9-6.7-5.2c0,0,0,0,0,0   c-1.3-10,3.9-19.7,12.9-24.3c0.1,0,0.1-0.1,0.2-0.1c1.3-3.8,0.6-8-1.9-11.1c-2.1-2.6-1.7-6.3,0.8-8.4s6.3-1.7,8.4,0.8   c0,0,0.1,0.1,0.1,0.1c3.7,4.6,5.5,10.4,5.2,16.3c4.2,0.4,8.3,1.9,11.7,4.4c2.7,1.9,3.3,5.7,1.4,8.4c0,0,0,0,0,0   c-1.9,2.7-5.7,3.3-8.4,1.4c0,0,0,0,0,0C182.5,170,175.1,171.1,171.3,176.4z"></path><path d="M490.5,303c0-3.3-2.7-6-6-6H462v12h22.5C487.8,309,490.5,306.3,490.5,303z"></path><path d="M484.5,330H462v12h22.5c3.3,0,6-2.7,6-6S487.8,330,484.5,330z"></path><path d="M339,370.6v65.9c0,26.2-21.3,47.5-47.5,47.5S244,462.7,244,436.5V396h-12v40.5c0,32.9,26.6,59.5,59.5,59.5   c32.9,0,59.5-26.7,59.5-59.5v-65.9c0-24.8,20.1-44.9,44.9-44.9c0,0,0.1,0,0.1,0v-12C365,313.7,339,339.2,339,370.6z"></path><path d="M294,374.4c0-0.1,0-0.2,0-0.2V371h-16.7c-3.3,0-6-2.7-6-6s2.7-6,6-6H294v-18h-72c-3.3,0-6-2.7-6-6s2.7-6,6-6h72v-18H182v18   h18c3.3,0,6,2.7,6,6s-2.7,6-6,6h-18v18h73.3c3.3,0,6,2.7,6,6s-2.7,6-6,6H182v3.1c-0.2,8,6.2,14.7,14.2,14.9c0.2,0,0.4,0,0.6,0h81.9   C287,389.2,293.8,382.6,294,374.4z"></path><path d="M309.2,251l-142.5,0.3c8.6,14.5,13.7,30.9,14.6,47.7h112.8C295.2,282,300.4,265.5,309.2,251z"></path></g></svg>