<?xml version="1.0" encoding="UTF-8"?>
<svg width="1200pt" height="1200pt" version="1.1" viewBox="0 0 1200 1200" xmlns="http://www.w3.org/2000/svg">
 <g fill="#d97928">
  <path d="m352.5 150v45h-22.5c-7.6562 0-15.301 0.67188-22.5 2.0273v-47.027c0-12.371 10.129-22.5 22.5-22.5s22.5 10.129 22.5 22.5z"/>
  <path d="m487.5 150v45h-45v-45c0-12.371 10.129-22.5 22.5-22.5s22.5 10.129 22.5 22.5z"/>
  <path d="m622.5 150v45h-45v-45c0-12.371 10.129-22.5 22.5-22.5s22.5 10.129 22.5 22.5z"/>
  <path d="m757.5 150v45h-45v-45c0-12.371 10.129-22.5 22.5-22.5s22.5 10.129 22.5 22.5z"/>
  <path d="m892.5 150v47.027c-7.1992-1.3438-14.844-2.0273-22.5-2.0273h-22.5v-45c0-12.371 10.129-22.5 22.5-22.5s22.5 10.129 22.5 22.5z"/>
  <path d="m352.5 1005v45c0 12.371-10.129 22.5-22.5 22.5s-22.5-10.129-22.5-22.5v-47.027c7.1992 1.3438 14.844 2.0273 22.5 2.0273z"/>
  <path d="m487.5 1005v45c0 12.371-10.129 22.5-22.5 22.5s-22.5-10.129-22.5-22.5v-45z"/>
  <path d="m622.5 1005v45c0 12.371-10.129 22.5-22.5 22.5s-22.5-10.129-22.5-22.5v-45z"/>
  <path d="m757.5 1005v45c0 12.371-10.129 22.5-22.5 22.5s-22.5-10.129-22.5-22.5v-45z"/>
  <path d="m892.5 1003v47.027c0 12.371-10.129 22.5-22.5 22.5s-22.5-10.129-22.5-22.5v-45h22.5c7.6562 0 15.301-0.67188 22.5-2.0273z"/>
  <path d="m1072.5 330c0 12.371-10.129 22.5-22.5 22.5h-45v-22.5c0-7.6562-0.67188-15.301-2.0273-22.5h47.027c12.371 0 22.5 10.129 22.5 22.5z"/>
  <path d="m1072.5 465c0 12.371-10.129 22.5-22.5 22.5h-45v-45h45c12.371 0 22.5 10.129 22.5 22.5z"/>
  <path d="m1072.5 600c0 12.371-10.129 22.5-22.5 22.5h-45v-45h45c12.371 0 22.5 10.129 22.5 22.5z"/>
  <path d="m1072.5 735c0 12.371-10.129 22.5-22.5 22.5h-45v-45h45c12.371 0 22.5 10.129 22.5 22.5z"/>
  <path d="m1072.5 870c0 12.371-10.129 22.5-22.5 22.5h-47.027c1.3438-7.1992 2.0273-14.855 2.0273-22.5v-22.5h45c12.371 0 22.5 10.129 22.5 22.5z"/>
  <path d="m197.03 307.5c-1.3438 7.1992-2.0273 14.844-2.0273 22.5v22.5h-45c-12.371 0-22.5-10.129-22.5-22.5s10.129-22.5 22.5-22.5z"/>
  <path d="m195 442.5v45h-45c-12.371 0-22.5-10.129-22.5-22.5s10.129-22.5 22.5-22.5z"/>
  <path d="m195 577.5v45h-45c-12.371 0-22.5-10.129-22.5-22.5s10.129-22.5 22.5-22.5z"/>
  <path d="m195 712.5v45h-45c-12.371 0-22.5-10.129-22.5-22.5s10.129-22.5 22.5-22.5z"/>
  <path d="m197.03 892.5h-47.027c-12.371 0-22.5-10.129-22.5-22.5s10.129-22.5 22.5-22.5h45v22.5c0 7.6445 0.67188 15.301 2.0273 22.5z"/>
  <path d="m870 240h-540c-49.703 0-90 40.297-90 90v540c0 49.703 40.297 90 90 90h540c49.703 0 90-40.297 90-90v-540c0-49.703-40.297-90-90-90zm-22.5 562.5c0 24.816-20.184 45-45 45h-405c-24.816 0-45-20.184-45-45v-405c0-24.816 20.184-45 45-45h405c24.816 0 45 20.184 45 45z"/>
  <path d="m397.5 397.5h405.01v405h-405.01z"/>
 </g>
</svg>
