<?xml version="1.0" encoding="UTF-8"?>
<svg width="1200pt" height="1200pt" version="1.1" viewBox="0 0 1200 1200" xmlns="http://www.w3.org/2000/svg">
 <path d="m1073.4 0h-946.88c-33.551 0.050781-65.715 13.398-89.438 37.125-23.727 23.723-37.074 55.887-37.125 89.438v815.62c0.050781 33.551 13.398 65.715 37.125 89.438 23.723 23.727 55.887 37.074 89.438 37.125h145.31v60.938c0 18.648 7.4062 36.531 20.594 49.719s31.07 20.594 49.719 20.594h515.62c18.648 0 36.531-7.4062 49.719-20.594s20.594-31.07 20.594-49.719v-60.938h145.31c33.551-0.050781 65.715-13.398 89.438-37.125 23.727-23.723 37.074-55.887 37.125-89.438v-815.62c-0.050781-33.551-13.398-65.715-37.125-89.438-23.723-23.727-55.887-37.074-89.438-37.125zm-178.12 117.19h150c10.047 0 19.332 5.3594 24.355 14.062 5.0273 8.7031 5.0273 19.422 0 28.125-5.0234 8.7031-14.309 14.062-24.355 14.062h-150c-10.047 0-19.332-5.3594-24.355-14.062-5.0273-8.7031-5.0273-19.422 0-28.125 5.0234-8.7031 14.309-14.062 24.355-14.062zm-450 0c7.4609 0 14.613 2.9648 19.887 8.2383 5.2734 5.2734 8.2383 12.426 8.2383 19.887s-2.9648 14.613-8.2383 19.887c-5.2734 5.2734-12.426 8.2383-19.887 8.2383s-14.613-2.9648-19.887-8.2383c-5.2734-5.2734-8.2383-12.426-8.2383-19.887s2.9648-14.613 8.2383-19.887c5.2734-5.2734 12.426-8.2383 19.887-8.2383zm-150 0c7.4609 0 14.613 2.9648 19.887 8.2383 5.2734 5.2734 8.2383 12.426 8.2383 19.887s-2.9648 14.613-8.2383 19.887c-5.2734 5.2734-12.426 8.2383-19.887 8.2383s-14.613-2.9648-19.887-8.2383c-5.2734-5.2734-8.2383-12.426-8.2383-19.887s2.9648-14.613 8.2383-19.887c5.2734-5.2734 12.426-8.2383 19.887-8.2383zm-150 0c7.4609 0 14.613 2.9648 19.887 8.2383 5.2734 5.2734 8.2383 12.426 8.2383 19.887s-2.9648 14.613-8.2383 19.887c-5.2734 5.2734-12.426 8.2383-19.887 8.2383s-14.613-2.9648-19.887-8.2383c-5.2734-5.2734-8.2383-12.426-8.2383-19.887s2.9648-14.613 8.2383-19.887c5.2734-5.2734 12.426-8.2383 19.887-8.2383zm157.5 426.56c2.1133-5.7617 5.4375-11.008 9.75-15.375l115.03-113.16c1.1523-1.0469 2.375-2.0195 3.6562-2.9062v117.38c0 7.7656-6.2969 14.062-14.062 14.062zm264 309.38c0 25.121-13.402 48.332-35.156 60.891-21.754 12.562-48.559 12.562-70.312 0-21.754-12.559-35.156-35.77-35.156-60.891 0-7.7656 6.2969-14.062 14.062-14.062s14.062 6.2969 14.062 14.062c0 15.07 8.0391 29 21.094 36.535s29.133 7.5352 42.188 0 21.094-21.465 21.094-36.535v-131.25c0-7.7656 6.2969-14.062 14.062-14.062s14.062 6.2969 14.062 14.062zm127.31-51.562h18.75c21.77 0 41.887 11.613 52.773 30.469 10.887 18.855 10.887 42.082 0 60.938-10.887 18.855-31.004 30.469-52.773 30.469h-28.125c-13.668-0.023438-26.77-5.4648-36.434-15.129-9.6641-9.6641-15.105-22.766-15.129-36.434 0-7.7656 6.2969-14.062 14.062-14.062s14.062 6.2969 14.062 14.062c0 6.2148 2.4688 12.176 6.8633 16.574 4.3984 4.3945 10.359 6.8633 16.574 6.8633h28.125c11.723 0 22.555-6.2539 28.418-16.406 5.8594-10.152 5.8594-22.66 0-32.812-5.8633-10.152-16.695-16.406-28.418-16.406h-18.75c-21.77 0-41.887-11.613-52.773-30.469-10.887-18.855-10.887-42.082 0-60.938 10.887-18.855 31.004-30.469 52.773-30.469h28.125c13.668 0.023438 26.77 5.4648 36.434 15.129 9.6641 9.6641 15.105 22.766 15.129 36.434 0 7.7656-6.2969 14.062-14.062 14.062s-14.062-6.2969-14.062-14.062c0-6.2148-2.4688-12.176-6.8633-16.574-4.3984-4.3945-10.359-6.8633-16.574-6.8633h-28.125c-11.723 0-22.555 6.2539-28.418 16.406-5.8594 10.152-5.8594 22.66 0 32.812 5.8633 10.152 16.695 16.406 28.418 16.406zm477.75 140.62c-0.03125 26.098-10.41 51.117-28.863 69.574-18.457 18.453-43.477 28.832-69.574 28.863h-145.31v-595.31c0-18.648-7.4062-36.531-20.594-49.719s-31.07-20.594-49.719-20.594h-400.59c-18.445-0.019531-36.16 7.2188-49.312 20.156l-115.03 113.25c-13.316 13.273-20.863 31.262-21 50.062v482.16h-145.31c-26.098-0.03125-51.117-10.41-69.574-28.863-18.453-18.457-28.832-43.477-28.863-69.574v-660.94h1143.8z" fill="#960000"/>
</svg>
