<?xml version="1.0" encoding="UTF-8" standalone="no"?>
<!DOCTYPE svg PUBLIC "-//W3C//DTD SVG 1.1//EN" "http://www.w3.org/Graphics/SVG/1.1/DTD/svg11.dtd">
<svg width="100%" height="100%" viewBox="0 0 690 603" version="1.1" xmlns="http://www.w3.org/2000/svg" xmlns:xlink="http://www.w3.org/1999/xlink" xml:space="preserve" xmlns:serif="http://www.serif.com/" style="fill-rule:evenodd;clip-rule:evenodd;stroke-linejoin:round;stroke-miterlimit:2;">
    <g transform="matrix(1,0,0,1,-246,-53)">
        <g id="noun_Browser_1198273" transform="matrix(6.80465,0,0,6.80465,590.986,355.124)">
            <g transform="matrix(1,0,0,1,-50,-50)">
                <g>
                    <g>
                        <g>
                            <path d="M95.313,6.25L4.688,6.25C2.098,6.25 0,8.348 0,10.938L0,89.063C0,91.652 2.098,93.75 4.688,93.75L95.313,93.75C97.902,93.75 100,91.652 100,89.063L100,10.938C100,8.348 97.902,6.25 95.313,6.25ZM37.5,10.938C40.089,10.938 42.188,13.036 42.188,15.625C42.188,18.214 40.089,20.313 37.5,20.313C34.911,20.313 32.813,18.214 32.813,15.625C32.813,13.036 34.911,10.938 37.5,10.938ZM23.438,10.938C26.027,10.938 28.125,13.036 28.125,15.625C28.125,18.214 26.027,20.313 23.438,20.313C20.848,20.313 18.75,18.214 18.75,15.625C18.75,13.036 20.848,10.938 23.438,10.938ZM9.375,10.938C11.964,10.938 14.063,13.036 14.063,15.625C14.063,18.214 11.964,20.313 9.375,20.313C6.786,20.313 4.688,18.214 4.688,15.625C4.688,13.036 6.786,10.938 9.375,10.938ZM95.313,89.063L4.688,89.063L4.688,25L95.313,25L95.313,89.063Z" style="fill-rule:nonzero;"/>
                        </g>
                    </g>
                </g>
            </g>
        </g>
        <g id="noun_Engine_2871251" transform="matrix(2.0008,0,0,2.0008,768.051,372.574)">
            <g transform="matrix(1,0,0,1,-50,-50)">
                <g>
                    <path d="M49.219,58.594L49.219,48.438L47.656,48.438L47.656,60.222C47.656,61.019 48.387,61.719 49.219,61.719L52.344,61.719C52.774,61.719 53.125,61.369 53.125,60.938C53.125,60.506 52.774,60.156 52.344,60.156L50.781,60.156C49.934,60.156 49.219,59.441 49.219,58.594Z" style="fill-rule:nonzero;"/>
                    <path d="M28.906,58.594L28.906,48.438L27.344,48.438L27.344,60.222C27.344,61.019 28.074,61.719 28.906,61.719L32.031,61.719C32.462,61.719 32.813,61.369 32.813,60.938C32.813,60.506 32.462,60.156 32.031,60.156L30.469,60.156C29.622,60.156 28.906,59.441 28.906,58.594Z" style="fill-rule:nonzero;"/>
                    <path d="M71.875,30.469C71.875,28.315 70.123,26.563 67.969,26.563C65.815,26.563 64.063,28.315 64.063,30.469C64.063,32.623 65.815,34.375 67.969,34.375C70.123,34.375 71.875,32.623 71.875,30.469ZM66.406,32.813C66.206,32.813 66.006,32.736 65.854,32.584C65.548,32.278 65.548,31.784 65.854,31.479L66.864,30.469L65.854,29.459C65.548,29.153 65.548,28.659 65.854,28.354C66.159,28.048 66.653,28.048 66.959,28.354L67.969,29.364L68.979,28.354C69.284,28.048 69.778,28.048 70.084,28.354C70.389,28.659 70.389,29.153 70.084,29.459L69.073,30.469L70.084,31.479C70.389,31.784 70.389,32.278 70.084,32.584C69.931,32.736 69.731,32.813 69.531,32.813C69.331,32.813 69.131,32.736 68.979,32.584L67.969,31.573L66.959,32.584C66.806,32.736 66.606,32.813 66.406,32.813Z" style="fill-rule:nonzero;"/>
                    <path d="M62.5,42.969L26.563,42.969C26.132,42.969 25.781,43.319 25.781,43.75L25.781,46.094C25.781,46.525 26.132,46.875 26.563,46.875L62.5,46.875C62.93,46.875 63.281,46.525 63.281,46.094L63.281,43.75C63.281,43.319 62.93,42.969 62.5,42.969Z" style="fill-rule:nonzero;"/>
                    <path d="M59.375,58.594L59.375,48.438L57.813,48.438L57.813,60.222C57.813,61.019 58.543,61.719 59.375,61.719L62.5,61.719C62.93,61.719 63.281,61.369 63.281,60.938C63.281,60.506 62.93,60.156 62.5,60.156L60.938,60.156C60.091,60.156 59.375,59.441 59.375,58.594Z" style="fill-rule:nonzero;"/>
                    <path d="M39.063,58.594L39.063,48.438L37.5,48.438L37.5,60.222C37.5,61.019 38.23,61.719 39.063,61.719L42.188,61.719C42.618,61.719 42.969,61.369 42.969,60.938C42.969,60.506 42.618,60.156 42.188,60.156L40.625,60.156C39.778,60.156 39.063,59.441 39.063,58.594Z" style="fill-rule:nonzero;"/>
                    <rect x="44.531" y="19.531" width="18.75" height="2.344"/>
                    <path d="M39.844,17.969L67.969,17.969C68.83,17.969 69.531,17.268 69.531,16.406L69.531,14.844C69.531,13.982 68.83,13.281 67.969,13.281L39.844,13.281C38.982,13.281 38.281,13.982 38.281,14.844L38.281,16.406C38.281,17.268 38.982,17.969 39.844,17.969Z" style="fill-rule:nonzero;"/>
                    <path d="M40.625,34.375C42.779,34.375 44.531,32.623 44.531,30.469C44.531,28.315 42.779,26.563 40.625,26.563C38.471,26.563 36.719,28.315 36.719,30.469C36.719,32.623 38.471,34.375 40.625,34.375ZM38.51,29.459C38.205,29.153 38.205,28.659 38.51,28.354C38.816,28.048 39.309,28.048 39.615,28.354L40.625,29.364L41.635,28.354C41.941,28.048 42.434,28.048 42.74,28.354C43.045,28.659 43.045,29.153 42.74,29.459L41.73,30.469L42.74,31.479C43.045,31.784 43.045,32.278 42.74,32.584C42.588,32.736 42.388,32.813 42.188,32.813C41.987,32.813 41.788,32.736 41.635,32.584L40.625,31.573L39.615,32.584C39.463,32.736 39.263,32.813 39.063,32.813C38.862,32.813 38.663,32.736 38.51,32.584C38.205,32.278 38.205,31.784 38.51,31.479L39.52,30.469L38.51,29.459Z" style="fill-rule:nonzero;"/>
                    <path d="M13.805,40.023C13.145,39.684 12.268,39.854 11.398,40.489L3.612,46.716C2.441,47.657 2.344,48.463 2.344,49.145L2.344,71.094C2.344,71.871 2.498,72.713 3.614,73.609C3.636,73.627 3.657,73.647 3.677,73.666L11.439,81.428C12.338,82.036 13.215,82.195 13.848,81.861C14.478,81.529 14.851,80.719 14.843,79.694L14.843,42.188C14.85,41.166 14.463,40.359 13.805,40.023Z" style="fill-rule:nonzero;"/>
                    <rect x="16.406" y="46.875" width="4.688" height="28.125"/>
                    <path d="M22.656,81.25C22.656,82.112 23.357,82.813 24.219,82.813L62.137,82.813L64.768,79.688L22.656,79.688L22.656,81.25Z" style="fill-rule:nonzero;"/>
                    <path d="M75.781,43.75C77.935,43.75 79.688,41.998 79.688,39.844C79.688,37.69 77.935,35.938 75.781,35.938C73.627,35.938 71.875,37.69 71.875,39.844C71.875,41.998 73.627,43.75 75.781,43.75ZM75.781,37.5C77.073,37.5 78.125,38.552 78.125,39.844C78.125,41.136 77.073,42.188 75.781,42.188C74.489,42.188 73.438,41.136 73.438,39.844C73.438,38.552 74.489,37.5 75.781,37.5Z" style="fill-rule:nonzero;"/>
                    <path d="M84.375,32.813L76.563,32.813C76.131,32.813 75.781,32.463 75.781,32.031L75.781,25C75.781,24.138 75.08,23.438 74.219,23.438L34.375,23.438C33.513,23.438 32.813,24.138 32.813,25L32.813,37.5C32.813,37.932 32.462,38.281 32.031,38.281L24.219,38.281C23.357,38.281 22.656,38.982 22.656,39.844L22.656,78.125L66.084,78.125L74.402,68.246C74.551,68.07 74.77,67.969 75,67.969L84.375,67.969C85.237,67.969 85.938,67.268 85.938,66.406L85.938,34.375C85.938,33.513 85.237,32.813 84.375,32.813ZM40.625,25C43.641,25 46.094,27.454 46.094,30.469C46.094,33.484 43.641,35.938 40.625,35.938C37.609,35.938 35.156,33.484 35.156,30.469C35.156,27.454 37.609,25 40.625,25ZM64.844,46.094C64.844,47.386 63.792,48.438 62.5,48.438L60.938,48.438L60.938,58.594L62.5,58.594C63.792,58.594 64.844,59.645 64.844,60.938C64.844,62.23 63.792,63.281 62.5,63.281L59.375,63.281C57.681,63.281 56.25,61.88 56.25,60.222L56.25,48.438L50.781,48.438L50.781,58.594L52.344,58.594C53.636,58.594 54.688,59.645 54.688,60.938C54.688,62.23 53.636,63.281 52.344,63.281L49.219,63.281C47.525,63.281 46.094,61.88 46.094,60.222L46.094,48.438L40.625,48.438L40.625,58.594L42.188,58.594C43.48,58.594 44.531,59.645 44.531,60.938C44.531,62.23 43.48,63.281 42.188,63.281L39.063,63.281C37.369,63.281 35.938,61.88 35.938,60.222L35.938,48.438L30.469,48.438L30.469,58.594L32.031,58.594C33.323,58.594 34.375,59.645 34.375,60.938C34.375,62.23 33.323,63.281 32.031,63.281L28.906,63.281C27.213,63.281 25.781,61.88 25.781,60.222L25.781,48.294C24.874,47.97 24.219,47.111 24.219,46.094L24.219,43.75C24.219,42.458 25.27,41.406 26.563,41.406L62.5,41.406C63.792,41.406 64.844,42.458 64.844,43.75L64.844,46.094ZM62.5,30.469C62.5,27.454 64.953,25 67.969,25C70.984,25 73.438,27.454 73.438,30.469C73.438,33.484 70.984,35.938 67.969,35.938C64.953,35.938 62.5,33.484 62.5,30.469ZM75.781,66.406C71.043,66.406 67.188,62.551 67.188,57.813C67.188,55.957 67.784,54.241 68.788,52.835L70.688,41.82C70.448,41.206 70.313,40.541 70.313,39.844C70.313,36.829 72.766,34.375 75.781,34.375C78.797,34.375 81.25,36.829 81.25,39.844C81.25,40.541 81.114,41.206 80.875,41.82L82.774,52.835C83.778,54.241 84.375,55.957 84.375,57.813C84.375,62.551 80.52,66.406 75.781,66.406Z" style="fill-rule:nonzero;"/>
                    <path d="M80.853,50.891L79.619,43.733C78.631,44.709 77.276,45.313 75.781,45.313C74.287,45.313 72.931,44.709 71.943,43.734L70.709,50.891C72.133,49.845 73.883,49.219 75.781,49.219C77.68,49.219 79.43,49.845 80.853,50.891Z" style="fill-rule:nonzero;"/>
                    <circle cx="75.781" cy="57.813" r="2.344"/>
                    <path d="M75.781,50.781C71.905,50.781 68.75,53.935 68.75,57.813C68.75,61.69 71.905,64.844 75.781,64.844C79.658,64.844 82.813,61.69 82.813,57.813C82.813,53.935 79.658,50.781 75.781,50.781ZM75.781,61.719C73.627,61.719 71.875,59.966 71.875,57.813C71.875,55.659 73.627,53.906 75.781,53.906C77.935,53.906 79.688,55.659 79.688,57.813C79.688,59.966 77.935,61.719 75.781,61.719Z" style="fill-rule:nonzero;"/>
                    <rect x="87.5" y="42.969" width="3.906" height="14.844"/>
                    <path d="M96.094,37.5L94.531,37.5C93.67,37.5 92.969,38.201 92.969,39.063L92.969,60.938C92.969,61.799 93.67,62.5 94.531,62.5L96.094,62.5C96.955,62.5 97.656,61.799 97.656,60.938L97.656,39.063C97.656,38.201 96.955,37.5 96.094,37.5Z" style="fill-rule:nonzero;"/>
                    <circle cx="75.781" cy="39.844" r="0.781"/>
                </g>
            </g>
        </g>
        <g id="noun_javascript_1637023" transform="matrix(1.90329,0,0,1.90329,392.109,371.804)">
            <g transform="matrix(1,0,0,1,-50,-50)">
                <path d="M52.188,62.5L52.188,66.25C52.188,67.5 51.719,68.594 50.781,69.531L48.438,71.875L50.781,74.375C51.719,75.156 52.188,76.406 52.188,77.656L52.188,81.25C52.188,84.688 55,87.5 58.438,87.5L60.938,87.5L60.938,84.375L58.438,84.375C56.719,84.375 55.313,82.969 55.313,81.25L55.313,77.5C55.313,75.469 54.375,73.438 52.969,72.031L52.812,71.875L52.969,71.563C54.531,70.156 55.313,68.125 55.313,66.094L55.313,62.5C55.313,60.781 56.719,59.375 58.438,59.375L60.938,59.375L60.938,56.25L58.438,56.25C55,56.25 52.188,59.062 52.188,62.5Z" style="fill-rule:nonzero;"/>
                <path d="M75.938,66.094L75.938,62.5C75.938,59.062 73.125,56.25 69.688,56.25L67.188,56.25L67.188,59.375L69.688,59.375C71.406,59.375 72.813,60.781 72.813,62.5L72.813,66.406C72.813,68.438 73.75,70.469 75.156,71.875L75.313,72.031L75.156,72.188C73.594,73.594 72.813,75.625 72.813,77.656L72.813,81.25C72.813,82.969 71.406,84.375 69.688,84.375L67.188,84.375L67.188,87.5L69.688,87.5C73.125,87.5 75.938,84.688 75.938,81.25L75.938,77.5C75.938,76.25 76.406,75.156 77.344,74.219L79.688,71.875L77.344,69.375C76.406,68.594 75.938,67.344 75.938,66.094Z" style="fill-rule:nonzero;"/>
                <path d="M74.219,3.125L17.188,3.125L17.188,21.875L10.938,21.875L10.938,50L17.188,50L17.188,96.875L89.063,96.875L89.063,22.969L74.219,3.125ZM75,9.375L84.375,21.875L75,21.875L75,9.375ZM14.063,25L50,25L50,46.875L14.063,46.875L14.063,25ZM20.313,93.75L20.313,50L53.125,50L53.125,21.875L20.313,21.875L20.313,6.25L71.875,6.25L71.875,25L85.938,25L85.938,93.75L20.313,93.75Z" style="fill-rule:nonzero;"/>
                <path d="M26.563,39.063C26.563,40 25.938,40.625 25,40.625C24.062,40.625 23.438,40 23.438,39.063L23.438,37.5L20.313,37.5L20.313,39.063C20.313,41.719 22.344,43.75 25,43.75C27.656,43.75 29.688,41.719 29.688,39.063L29.688,28.125L26.563,28.125L26.563,39.063Z" style="fill-rule:nonzero;"/>
                <path d="M37.5,31.25L39.063,31.25C40,31.25 40.625,31.875 40.625,32.813L43.75,32.813C43.75,30.156 41.719,28.125 39.063,28.125L37.5,28.125C34.844,28.125 32.813,30.156 32.813,32.813C32.813,35.469 34.844,37.5 37.5,37.5L39.063,37.5C40,37.5 40.625,38.125 40.625,39.063C40.625,40 40,40.625 39.063,40.625L37.5,40.625C36.563,40.625 35.938,40 35.938,39.063L32.813,39.063C32.813,41.719 34.844,43.75 37.5,43.75L39.063,43.75C41.719,43.75 43.75,41.719 43.75,39.063C43.75,36.406 41.719,34.375 39.063,34.375L37.5,34.375C36.563,34.375 35.938,33.75 35.938,32.813C35.938,31.875 36.563,31.25 37.5,31.25Z" style="fill-rule:nonzero;"/>
            </g>
        </g>
        <g id="Forward--small-" serif:id="Forward (small)" transform="matrix(5.31766,1.3877e-31,0,3.75279,-1010.98,-424.411)">
            <path d="M311.2,217.5L300,206.5L300,213L286,213L286,222L300,222L300,228.5L311.2,217.5Z" style="fill-rule:nonzero;"/>
        </g>
        <g transform="matrix(1,0,0,1,-13.344,-41.0585)">
            <g transform="matrix(48,0,0,48,365.744,552.462)">
                <path d="M0.665,-0.233C0.665,-0.243 0.665,-0.25 0.652,-0.25C0.641,-0.25 0.641,-0.244 0.64,-0.234C0.632,-0.091 0.525,-0.009 0.416,-0.009C0.355,-0.009 0.159,-0.043 0.159,-0.341C0.159,-0.64 0.354,-0.674 0.415,-0.674C0.524,-0.674 0.613,-0.583 0.633,-0.437C0.635,-0.423 0.635,-0.42 0.649,-0.42C0.665,-0.42 0.665,-0.423 0.665,-0.444L0.665,-0.681C0.665,-0.698 0.665,-0.705 0.654,-0.705C0.65,-0.705 0.646,-0.705 0.638,-0.693L0.588,-0.619C0.551,-0.655 0.5,-0.705 0.404,-0.705C0.217,-0.705 0.056,-0.546 0.056,-0.342C0.056,-0.135 0.218,0.022 0.404,0.022C0.567,0.022 0.665,-0.117 0.665,-0.233Z" style="fill-rule:nonzero;"/>
            </g>
            <g transform="matrix(48,0,0,48,400.4,552.462)">
                <path d="M0.471,-0.214C0.471,-0.342 0.371,-0.448 0.25,-0.448C0.125,-0.448 0.028,-0.339 0.028,-0.214C0.028,-0.085 0.132,0.011 0.249,0.011C0.37,0.011 0.471,-0.087 0.471,-0.214ZM0.388,-0.222C0.388,-0.186 0.388,-0.132 0.366,-0.088C0.344,-0.043 0.3,-0.014 0.25,-0.014C0.207,-0.014 0.163,-0.035 0.136,-0.081C0.111,-0.125 0.111,-0.186 0.111,-0.222C0.111,-0.261 0.111,-0.315 0.135,-0.359C0.162,-0.405 0.209,-0.426 0.249,-0.426C0.293,-0.426 0.336,-0.404 0.362,-0.361C0.388,-0.318 0.388,-0.26 0.388,-0.222Z" style="fill-rule:nonzero;"/>
            </g>
            <g transform="matrix(48,0,0,48,425.744,552.462)">
                <path d="M0.527,-0L0.527,-0.031C0.457,-0.031 0.449,-0.038 0.449,-0.087L0.449,-0.694L0.305,-0.683L0.305,-0.652C0.375,-0.652 0.383,-0.645 0.383,-0.596L0.383,-0.38C0.354,-0.416 0.311,-0.442 0.257,-0.442C0.139,-0.442 0.034,-0.344 0.034,-0.215C0.034,-0.088 0.132,0.011 0.246,0.011C0.31,0.011 0.355,-0.023 0.38,-0.055L0.38,0.011L0.527,-0ZM0.38,-0.118C0.38,-0.1 0.38,-0.098 0.369,-0.081C0.339,-0.033 0.294,-0.011 0.251,-0.011C0.206,-0.011 0.17,-0.037 0.146,-0.075C0.12,-0.116 0.117,-0.173 0.117,-0.214C0.117,-0.251 0.119,-0.311 0.148,-0.356C0.169,-0.387 0.207,-0.42 0.261,-0.42C0.296,-0.42 0.338,-0.405 0.369,-0.36C0.38,-0.343 0.38,-0.341 0.38,-0.323L0.38,-0.118Z" style="fill-rule:nonzero;"/>
            </g>
            <g transform="matrix(48,0,0,48,452.432,552.462)">
                <path d="M0.415,-0.119C0.415,-0.129 0.407,-0.131 0.402,-0.131C0.393,-0.131 0.391,-0.125 0.389,-0.117C0.354,-0.014 0.264,-0.014 0.254,-0.014C0.204,-0.014 0.164,-0.044 0.141,-0.081C0.111,-0.129 0.111,-0.195 0.111,-0.231L0.39,-0.231C0.412,-0.231 0.415,-0.231 0.415,-0.252C0.415,-0.351 0.361,-0.448 0.236,-0.448C0.12,-0.448 0.028,-0.345 0.028,-0.22C0.028,-0.086 0.133,0.011 0.248,0.011C0.37,0.011 0.415,-0.1 0.415,-0.119ZM0.349,-0.252L0.112,-0.252C0.118,-0.401 0.202,-0.426 0.236,-0.426C0.339,-0.426 0.349,-0.291 0.349,-0.252Z" style="fill-rule:nonzero;"/>
            </g>
            <g transform="matrix(48,0,0,48,309.992,600.462)">
                <path d="M0.465,-0.652L0.465,-0.683L0.336,-0.68C0.294,-0.68 0.206,-0.68 0.168,-0.683L0.168,-0.652L0.204,-0.652C0.302,-0.652 0.302,-0.639 0.302,-0.604L0.302,-0.148C0.302,-0.056 0.252,-0 0.199,-0C0.193,-0 0.125,-0 0.089,-0.058C0.141,-0.058 0.153,-0.088 0.153,-0.114C0.153,-0.15 0.125,-0.17 0.097,-0.17C0.075,-0.17 0.041,-0.156 0.041,-0.112C0.041,-0.038 0.112,0.022 0.201,0.022C0.303,0.022 0.376,-0.048 0.387,-0.123C0.388,-0.131 0.388,-0.133 0.388,-0.167L0.388,-0.611C0.388,-0.652 0.402,-0.652 0.465,-0.652Z" style="fill-rule:nonzero;"/>
            </g>
            <g transform="matrix(48,0,0,48,334.664,600.462)">
                <path d="M0.493,-0.089L0.493,-0.145L0.468,-0.145L0.468,-0.089C0.468,-0.031 0.443,-0.025 0.432,-0.025C0.399,-0.025 0.395,-0.07 0.395,-0.075L0.395,-0.275C0.395,-0.317 0.395,-0.356 0.359,-0.393C0.32,-0.432 0.27,-0.448 0.222,-0.448C0.14,-0.448 0.071,-0.401 0.071,-0.335C0.071,-0.305 0.091,-0.288 0.117,-0.288C0.145,-0.288 0.163,-0.308 0.163,-0.334C0.163,-0.346 0.158,-0.379 0.112,-0.38C0.139,-0.415 0.188,-0.426 0.22,-0.426C0.269,-0.426 0.326,-0.387 0.326,-0.298L0.326,-0.261C0.275,-0.258 0.205,-0.255 0.142,-0.225C0.067,-0.191 0.042,-0.139 0.042,-0.095C0.042,-0.014 0.139,0.011 0.202,0.011C0.268,0.011 0.314,-0.029 0.333,-0.076C0.337,-0.036 0.364,0.006 0.411,0.006C0.432,0.006 0.493,-0.008 0.493,-0.089ZM0.326,-0.14C0.326,-0.045 0.254,-0.011 0.209,-0.011C0.16,-0.011 0.119,-0.046 0.119,-0.096C0.119,-0.151 0.161,-0.234 0.326,-0.24L0.326,-0.14Z" style="fill-rule:nonzero;"/>
            </g>
            <g transform="matrix(48,0,0,48,357.32,600.462)">
                <path d="M0.508,-0.4L0.508,-0.431C0.485,-0.429 0.456,-0.428 0.433,-0.428L0.346,-0.431L0.346,-0.4C0.383,-0.399 0.394,-0.376 0.394,-0.357C0.394,-0.348 0.392,-0.344 0.388,-0.333L0.286,-0.078L0.174,-0.357C0.168,-0.37 0.168,-0.374 0.168,-0.374C0.168,-0.4 0.207,-0.4 0.225,-0.4L0.225,-0.431L0.116,-0.428C0.089,-0.428 0.049,-0.429 0.019,-0.431L0.019,-0.4C0.082,-0.4 0.086,-0.394 0.099,-0.363L0.243,-0.008C0.249,0.006 0.251,0.011 0.264,0.011C0.277,0.011 0.281,0.002 0.285,-0.008L0.416,-0.333C0.425,-0.356 0.442,-0.399 0.508,-0.4Z" style="fill-rule:nonzero;"/>
            </g>
            <g transform="matrix(48,0,0,48,379.976,600.462)">
                <path d="M0.493,-0.089L0.493,-0.145L0.468,-0.145L0.468,-0.089C0.468,-0.031 0.443,-0.025 0.432,-0.025C0.399,-0.025 0.395,-0.07 0.395,-0.075L0.395,-0.275C0.395,-0.317 0.395,-0.356 0.359,-0.393C0.32,-0.432 0.27,-0.448 0.222,-0.448C0.14,-0.448 0.071,-0.401 0.071,-0.335C0.071,-0.305 0.091,-0.288 0.117,-0.288C0.145,-0.288 0.163,-0.308 0.163,-0.334C0.163,-0.346 0.158,-0.379 0.112,-0.38C0.139,-0.415 0.188,-0.426 0.22,-0.426C0.269,-0.426 0.326,-0.387 0.326,-0.298L0.326,-0.261C0.275,-0.258 0.205,-0.255 0.142,-0.225C0.067,-0.191 0.042,-0.139 0.042,-0.095C0.042,-0.014 0.139,0.011 0.202,0.011C0.268,0.011 0.314,-0.029 0.333,-0.076C0.337,-0.036 0.364,0.006 0.411,0.006C0.432,0.006 0.493,-0.008 0.493,-0.089ZM0.326,-0.14C0.326,-0.045 0.254,-0.011 0.209,-0.011C0.16,-0.011 0.119,-0.046 0.119,-0.096C0.119,-0.151 0.161,-0.234 0.326,-0.24L0.326,-0.14Z" style="fill-rule:nonzero;"/>
            </g>
            <g transform="matrix(48,0,0,48,403.976,600.462)">
                <path d="M0.499,-0.186C0.499,-0.286 0.433,-0.368 0.349,-0.388L0.221,-0.419C0.159,-0.434 0.12,-0.488 0.12,-0.546C0.12,-0.616 0.174,-0.677 0.252,-0.677C0.419,-0.677 0.441,-0.513 0.447,-0.468C0.448,-0.462 0.448,-0.456 0.459,-0.456C0.472,-0.456 0.472,-0.461 0.472,-0.48L0.472,-0.681C0.472,-0.698 0.472,-0.705 0.461,-0.705C0.454,-0.705 0.453,-0.704 0.446,-0.692L0.411,-0.635C0.381,-0.664 0.34,-0.705 0.251,-0.705C0.14,-0.705 0.056,-0.617 0.056,-0.511C0.056,-0.428 0.109,-0.355 0.187,-0.328C0.198,-0.324 0.249,-0.312 0.319,-0.295C0.346,-0.288 0.376,-0.281 0.404,-0.244C0.425,-0.218 0.435,-0.185 0.435,-0.152C0.435,-0.081 0.385,-0.009 0.301,-0.009C0.272,-0.009 0.196,-0.014 0.143,-0.063C0.085,-0.117 0.082,-0.181 0.081,-0.217C0.08,-0.227 0.072,-0.227 0.069,-0.227C0.056,-0.227 0.056,-0.22 0.056,-0.202L0.056,-0.002C0.056,0.015 0.056,0.022 0.067,0.022C0.074,0.022 0.075,0.02 0.082,0.009C0.082,0.009 0.085,0.005 0.118,-0.048C0.149,-0.014 0.213,0.022 0.302,0.022C0.419,0.022 0.499,-0.076 0.499,-0.186Z" style="fill-rule:nonzero;"/>
            </g>
            <g transform="matrix(48,0,0,48,430.664,600.462)">
                <path d="M0.415,-0.119C0.415,-0.129 0.405,-0.129 0.402,-0.129C0.393,-0.129 0.391,-0.125 0.389,-0.119C0.36,-0.026 0.295,-0.014 0.258,-0.014C0.205,-0.014 0.117,-0.057 0.117,-0.218C0.117,-0.381 0.199,-0.423 0.252,-0.423C0.261,-0.423 0.324,-0.422 0.359,-0.386C0.318,-0.383 0.312,-0.353 0.312,-0.34C0.312,-0.314 0.33,-0.294 0.358,-0.294C0.384,-0.294 0.404,-0.311 0.404,-0.341C0.404,-0.409 0.328,-0.448 0.251,-0.448C0.126,-0.448 0.034,-0.34 0.034,-0.216C0.034,-0.088 0.133,0.011 0.249,0.011C0.383,0.011 0.415,-0.109 0.415,-0.119Z" style="fill-rule:nonzero;"/>
            </g>
            <g transform="matrix(48,0,0,48,451.976,600.462)">
                <path d="M0.364,-0.381C0.364,-0.413 0.333,-0.442 0.29,-0.442C0.217,-0.442 0.181,-0.375 0.167,-0.332L0.167,-0.442L0.028,-0.431L0.028,-0.4C0.098,-0.4 0.106,-0.393 0.106,-0.344L0.106,-0.076C0.106,-0.031 0.095,-0.031 0.028,-0.031L0.028,-0L0.142,-0.003C0.182,-0.003 0.229,-0.003 0.269,-0L0.269,-0.031L0.248,-0.031C0.174,-0.031 0.172,-0.042 0.172,-0.078L0.172,-0.232C0.172,-0.331 0.214,-0.42 0.29,-0.42C0.297,-0.42 0.299,-0.42 0.301,-0.419C0.298,-0.418 0.278,-0.406 0.278,-0.38C0.278,-0.352 0.299,-0.337 0.321,-0.337C0.339,-0.337 0.364,-0.349 0.364,-0.381L0.364,-0.381Z" style="fill-rule:nonzero;"/>
            </g>
            <g transform="matrix(48,0,0,48,470.792,600.462)">
                <path d="M0.247,-0L0.247,-0.031C0.181,-0.031 0.177,-0.036 0.177,-0.075L0.177,-0.442L0.037,-0.431L0.037,-0.4C0.102,-0.4 0.111,-0.394 0.111,-0.345L0.111,-0.076C0.111,-0.031 0.1,-0.031 0.033,-0.031L0.033,-0L0.143,-0.003C0.178,-0.003 0.213,-0.001 0.247,-0ZM0.192,-0.604C0.192,-0.631 0.169,-0.657 0.139,-0.657C0.105,-0.657 0.085,-0.629 0.085,-0.604C0.085,-0.577 0.108,-0.551 0.138,-0.551C0.172,-0.551 0.192,-0.579 0.192,-0.604Z" style="fill-rule:nonzero;"/>
            </g>
            <g transform="matrix(48,0,0,48,484.136,600.462)">
                <path d="M0.521,-0.216C0.521,-0.343 0.424,-0.442 0.312,-0.442C0.234,-0.442 0.192,-0.398 0.172,-0.376L0.172,-0.442L0.028,-0.431L0.028,-0.4C0.099,-0.4 0.106,-0.394 0.106,-0.35L0.106,0.118C0.106,0.163 0.095,0.163 0.028,0.163L0.028,0.194L0.14,0.191L0.253,0.194L0.253,0.163C0.186,0.163 0.175,0.163 0.175,0.118L0.175,-0.059C0.18,-0.043 0.222,0.011 0.298,0.011C0.417,0.011 0.521,-0.087 0.521,-0.216L0.521,-0.216ZM0.438,-0.216C0.438,-0.095 0.368,-0.011 0.294,-0.011C0.254,-0.011 0.216,-0.031 0.189,-0.072C0.175,-0.093 0.175,-0.094 0.175,-0.114L0.175,-0.337C0.204,-0.388 0.253,-0.417 0.304,-0.417C0.377,-0.417 0.438,-0.329 0.438,-0.216L0.438,-0.216Z" style="fill-rule:nonzero;"/>
            </g>
            <g transform="matrix(48,0,0,48,510.824,600.462)">
                <path d="M0.332,-0.124L0.332,-0.181L0.307,-0.181L0.307,-0.126C0.307,-0.052 0.277,-0.014 0.24,-0.014C0.173,-0.014 0.173,-0.105 0.173,-0.122L0.173,-0.4L0.316,-0.4L0.316,-0.431L0.173,-0.431L0.173,-0.615L0.148,-0.615C0.147,-0.533 0.117,-0.426 0.019,-0.422L0.019,-0.4L0.104,-0.4L0.104,-0.124C0.104,-0.001 0.197,0.011 0.233,0.011C0.304,0.011 0.332,-0.06 0.332,-0.124L0.332,-0.124Z" style="fill-rule:nonzero;"/>
            </g>
        </g>
        <g transform="matrix(1,0,0,1,345.918,-39.0056)">
            <g transform="matrix(48,0,0,48,325.04,552.462)">
                <path d="M0.174,-0.67C0.176,-0.69 0.159,-0.705 0.139,-0.705C0.119,-0.705 0.102,-0.69 0.104,-0.67L0.126,-0.423L0.152,-0.423L0.174,-0.67ZM0.27,-0.67C0.272,-0.69 0.255,-0.705 0.235,-0.705C0.215,-0.705 0.198,-0.69 0.2,-0.67L0.222,-0.423L0.248,-0.423L0.27,-0.67Z" style="fill-rule:nonzero;"/>
            </g>
            <g transform="matrix(48,0,0,48,342.992,552.462)">
                <path d="M0.879,-0L0.879,-0.031L0.855,-0.031C0.778,-0.031 0.776,-0.042 0.776,-0.078L0.776,-0.605C0.776,-0.641 0.778,-0.652 0.855,-0.652L0.879,-0.652L0.879,-0.683L0.71,-0.683C0.684,-0.683 0.684,-0.682 0.677,-0.664L0.458,-0.101L0.241,-0.661C0.232,-0.683 0.229,-0.683 0.206,-0.683L0.037,-0.683L0.037,-0.652L0.061,-0.652C0.138,-0.652 0.14,-0.641 0.14,-0.605L0.14,-0.105C0.14,-0.078 0.14,-0.031 0.037,-0.031L0.037,-0L0.154,-0.003L0.271,-0L0.271,-0.031C0.168,-0.031 0.168,-0.078 0.168,-0.105L0.168,-0.644L0.169,-0.644L0.41,-0.022C0.415,-0.009 0.42,-0 0.43,-0C0.441,-0 0.444,-0.008 0.448,-0.019L0.694,-0.652L0.695,-0.652L0.695,-0.078C0.695,-0.042 0.693,-0.031 0.616,-0.031L0.592,-0.031L0.592,-0C0.629,-0.003 0.697,-0.003 0.736,-0.003C0.775,-0.003 0.842,-0.003 0.879,-0Z" style="fill-rule:nonzero;"/>
            </g>
            <g transform="matrix(48,0,0,48,387.008,552.462)">
                <path d="M0.471,-0.214C0.471,-0.342 0.371,-0.448 0.25,-0.448C0.125,-0.448 0.028,-0.339 0.028,-0.214C0.028,-0.085 0.132,0.011 0.249,0.011C0.37,0.011 0.471,-0.087 0.471,-0.214ZM0.388,-0.222C0.388,-0.186 0.388,-0.132 0.366,-0.088C0.344,-0.043 0.3,-0.014 0.25,-0.014C0.207,-0.014 0.163,-0.035 0.136,-0.081C0.111,-0.125 0.111,-0.186 0.111,-0.222C0.111,-0.261 0.111,-0.315 0.135,-0.359C0.162,-0.405 0.209,-0.426 0.249,-0.426C0.293,-0.426 0.336,-0.404 0.362,-0.361C0.388,-0.318 0.388,-0.26 0.388,-0.222Z" style="fill-rule:nonzero;"/>
            </g>
            <g transform="matrix(48,0,0,48,411.008,552.462)">
                <path d="M0.332,-0.124L0.332,-0.181L0.307,-0.181L0.307,-0.126C0.307,-0.052 0.277,-0.014 0.24,-0.014C0.173,-0.014 0.173,-0.105 0.173,-0.122L0.173,-0.4L0.316,-0.4L0.316,-0.431L0.173,-0.431L0.173,-0.615L0.148,-0.615C0.147,-0.533 0.117,-0.426 0.019,-0.422L0.019,-0.4L0.104,-0.4L0.104,-0.124C0.104,-0.001 0.197,0.011 0.233,0.011C0.304,0.011 0.332,-0.06 0.332,-0.124L0.332,-0.124Z" style="fill-rule:nonzero;"/>
            </g>
            <g transform="matrix(48,0,0,48,429.68,552.462)">
                <path d="M0.415,-0.119C0.415,-0.129 0.407,-0.131 0.402,-0.131C0.393,-0.131 0.391,-0.125 0.389,-0.117C0.354,-0.014 0.264,-0.014 0.254,-0.014C0.204,-0.014 0.164,-0.044 0.141,-0.081C0.111,-0.129 0.111,-0.195 0.111,-0.231L0.39,-0.231C0.412,-0.231 0.415,-0.231 0.415,-0.252C0.415,-0.351 0.361,-0.448 0.236,-0.448C0.12,-0.448 0.028,-0.345 0.028,-0.22C0.028,-0.086 0.133,0.011 0.248,0.011C0.37,0.011 0.415,-0.1 0.415,-0.119ZM0.349,-0.252L0.112,-0.252C0.118,-0.401 0.202,-0.426 0.236,-0.426C0.339,-0.426 0.349,-0.291 0.349,-0.252Z" style="fill-rule:nonzero;"/>
            </g>
            <g transform="matrix(48,0,0,48,450.992,552.462)">
                <path d="M0.535,-0L0.535,-0.031C0.465,-0.031 0.457,-0.038 0.457,-0.087L0.457,-0.442L0.31,-0.431L0.31,-0.4C0.38,-0.4 0.388,-0.393 0.388,-0.344L0.388,-0.166C0.388,-0.079 0.34,-0.011 0.267,-0.011C0.183,-0.011 0.179,-0.058 0.179,-0.11L0.179,-0.442L0.032,-0.431L0.032,-0.4C0.11,-0.4 0.11,-0.397 0.11,-0.308L0.11,-0.158C0.11,-0.08 0.11,0.011 0.262,0.011C0.318,0.011 0.362,-0.017 0.391,-0.079L0.391,0.011L0.535,-0Z" style="fill-rule:nonzero;"/>
            </g>
            <g transform="matrix(48,0,0,48,477.68,552.462)">
                <path d="M0.364,-0.381C0.364,-0.413 0.333,-0.442 0.29,-0.442C0.217,-0.442 0.181,-0.375 0.167,-0.332L0.167,-0.442L0.028,-0.431L0.028,-0.4C0.098,-0.4 0.106,-0.393 0.106,-0.344L0.106,-0.076C0.106,-0.031 0.095,-0.031 0.028,-0.031L0.028,-0L0.142,-0.003C0.182,-0.003 0.229,-0.003 0.269,-0L0.269,-0.031L0.248,-0.031C0.174,-0.031 0.172,-0.042 0.172,-0.078L0.172,-0.232C0.172,-0.331 0.214,-0.42 0.29,-0.42C0.297,-0.42 0.299,-0.42 0.301,-0.419C0.298,-0.418 0.278,-0.406 0.278,-0.38C0.278,-0.352 0.299,-0.337 0.321,-0.337C0.339,-0.337 0.364,-0.349 0.364,-0.381L0.364,-0.381Z" style="fill-rule:nonzero;"/>
            </g>
            <g transform="matrix(48,0,0,48,496.496,552.462)">
                <path d="M0.174,-0.67C0.176,-0.69 0.159,-0.705 0.139,-0.705C0.119,-0.705 0.102,-0.69 0.104,-0.67L0.126,-0.423L0.152,-0.423L0.174,-0.67ZM0.27,-0.67C0.272,-0.69 0.255,-0.705 0.235,-0.705C0.215,-0.705 0.198,-0.69 0.2,-0.67L0.222,-0.423L0.248,-0.423L0.27,-0.67Z" style="fill-rule:nonzero;"/>
            </g>
            <g transform="matrix(48,0,0,48,309.992,600.462)">
                <path d="M0.465,-0.652L0.465,-0.683L0.336,-0.68C0.294,-0.68 0.206,-0.68 0.168,-0.683L0.168,-0.652L0.204,-0.652C0.302,-0.652 0.302,-0.639 0.302,-0.604L0.302,-0.148C0.302,-0.056 0.252,-0 0.199,-0C0.193,-0 0.125,-0 0.089,-0.058C0.141,-0.058 0.153,-0.088 0.153,-0.114C0.153,-0.15 0.125,-0.17 0.097,-0.17C0.075,-0.17 0.041,-0.156 0.041,-0.112C0.041,-0.038 0.112,0.022 0.201,0.022C0.303,0.022 0.376,-0.048 0.387,-0.123C0.388,-0.131 0.388,-0.133 0.388,-0.167L0.388,-0.611C0.388,-0.652 0.402,-0.652 0.465,-0.652Z" style="fill-rule:nonzero;"/>
            </g>
            <g transform="matrix(48,0,0,48,334.664,600.462)">
                <path d="M0.493,-0.089L0.493,-0.145L0.468,-0.145L0.468,-0.089C0.468,-0.031 0.443,-0.025 0.432,-0.025C0.399,-0.025 0.395,-0.07 0.395,-0.075L0.395,-0.275C0.395,-0.317 0.395,-0.356 0.359,-0.393C0.32,-0.432 0.27,-0.448 0.222,-0.448C0.14,-0.448 0.071,-0.401 0.071,-0.335C0.071,-0.305 0.091,-0.288 0.117,-0.288C0.145,-0.288 0.163,-0.308 0.163,-0.334C0.163,-0.346 0.158,-0.379 0.112,-0.38C0.139,-0.415 0.188,-0.426 0.22,-0.426C0.269,-0.426 0.326,-0.387 0.326,-0.298L0.326,-0.261C0.275,-0.258 0.205,-0.255 0.142,-0.225C0.067,-0.191 0.042,-0.139 0.042,-0.095C0.042,-0.014 0.139,0.011 0.202,0.011C0.268,0.011 0.314,-0.029 0.333,-0.076C0.337,-0.036 0.364,0.006 0.411,0.006C0.432,0.006 0.493,-0.008 0.493,-0.089ZM0.326,-0.14C0.326,-0.045 0.254,-0.011 0.209,-0.011C0.16,-0.011 0.119,-0.046 0.119,-0.096C0.119,-0.151 0.161,-0.234 0.326,-0.24L0.326,-0.14Z" style="fill-rule:nonzero;"/>
            </g>
            <g transform="matrix(48,0,0,48,357.32,600.462)">
                <path d="M0.508,-0.4L0.508,-0.431C0.485,-0.429 0.456,-0.428 0.433,-0.428L0.346,-0.431L0.346,-0.4C0.383,-0.399 0.394,-0.376 0.394,-0.357C0.394,-0.348 0.392,-0.344 0.388,-0.333L0.286,-0.078L0.174,-0.357C0.168,-0.37 0.168,-0.374 0.168,-0.374C0.168,-0.4 0.207,-0.4 0.225,-0.4L0.225,-0.431L0.116,-0.428C0.089,-0.428 0.049,-0.429 0.019,-0.431L0.019,-0.4C0.082,-0.4 0.086,-0.394 0.099,-0.363L0.243,-0.008C0.249,0.006 0.251,0.011 0.264,0.011C0.277,0.011 0.281,0.002 0.285,-0.008L0.416,-0.333C0.425,-0.356 0.442,-0.399 0.508,-0.4Z" style="fill-rule:nonzero;"/>
            </g>
            <g transform="matrix(48,0,0,48,379.976,600.462)">
                <path d="M0.493,-0.089L0.493,-0.145L0.468,-0.145L0.468,-0.089C0.468,-0.031 0.443,-0.025 0.432,-0.025C0.399,-0.025 0.395,-0.07 0.395,-0.075L0.395,-0.275C0.395,-0.317 0.395,-0.356 0.359,-0.393C0.32,-0.432 0.27,-0.448 0.222,-0.448C0.14,-0.448 0.071,-0.401 0.071,-0.335C0.071,-0.305 0.091,-0.288 0.117,-0.288C0.145,-0.288 0.163,-0.308 0.163,-0.334C0.163,-0.346 0.158,-0.379 0.112,-0.38C0.139,-0.415 0.188,-0.426 0.22,-0.426C0.269,-0.426 0.326,-0.387 0.326,-0.298L0.326,-0.261C0.275,-0.258 0.205,-0.255 0.142,-0.225C0.067,-0.191 0.042,-0.139 0.042,-0.095C0.042,-0.014 0.139,0.011 0.202,0.011C0.268,0.011 0.314,-0.029 0.333,-0.076C0.337,-0.036 0.364,0.006 0.411,0.006C0.432,0.006 0.493,-0.008 0.493,-0.089ZM0.326,-0.14C0.326,-0.045 0.254,-0.011 0.209,-0.011C0.16,-0.011 0.119,-0.046 0.119,-0.096C0.119,-0.151 0.161,-0.234 0.326,-0.24L0.326,-0.14Z" style="fill-rule:nonzero;"/>
            </g>
            <g transform="matrix(48,0,0,48,403.976,600.462)">
                <path d="M0.499,-0.186C0.499,-0.286 0.433,-0.368 0.349,-0.388L0.221,-0.419C0.159,-0.434 0.12,-0.488 0.12,-0.546C0.12,-0.616 0.174,-0.677 0.252,-0.677C0.419,-0.677 0.441,-0.513 0.447,-0.468C0.448,-0.462 0.448,-0.456 0.459,-0.456C0.472,-0.456 0.472,-0.461 0.472,-0.48L0.472,-0.681C0.472,-0.698 0.472,-0.705 0.461,-0.705C0.454,-0.705 0.453,-0.704 0.446,-0.692L0.411,-0.635C0.381,-0.664 0.34,-0.705 0.251,-0.705C0.14,-0.705 0.056,-0.617 0.056,-0.511C0.056,-0.428 0.109,-0.355 0.187,-0.328C0.198,-0.324 0.249,-0.312 0.319,-0.295C0.346,-0.288 0.376,-0.281 0.404,-0.244C0.425,-0.218 0.435,-0.185 0.435,-0.152C0.435,-0.081 0.385,-0.009 0.301,-0.009C0.272,-0.009 0.196,-0.014 0.143,-0.063C0.085,-0.117 0.082,-0.181 0.081,-0.217C0.08,-0.227 0.072,-0.227 0.069,-0.227C0.056,-0.227 0.056,-0.22 0.056,-0.202L0.056,-0.002C0.056,0.015 0.056,0.022 0.067,0.022C0.074,0.022 0.075,0.02 0.082,0.009C0.082,0.009 0.085,0.005 0.118,-0.048C0.149,-0.014 0.213,0.022 0.302,0.022C0.419,0.022 0.499,-0.076 0.499,-0.186Z" style="fill-rule:nonzero;"/>
            </g>
            <g transform="matrix(48,0,0,48,430.664,600.462)">
                <path d="M0.415,-0.119C0.415,-0.129 0.405,-0.129 0.402,-0.129C0.393,-0.129 0.391,-0.125 0.389,-0.119C0.36,-0.026 0.295,-0.014 0.258,-0.014C0.205,-0.014 0.117,-0.057 0.117,-0.218C0.117,-0.381 0.199,-0.423 0.252,-0.423C0.261,-0.423 0.324,-0.422 0.359,-0.386C0.318,-0.383 0.312,-0.353 0.312,-0.34C0.312,-0.314 0.33,-0.294 0.358,-0.294C0.384,-0.294 0.404,-0.311 0.404,-0.341C0.404,-0.409 0.328,-0.448 0.251,-0.448C0.126,-0.448 0.034,-0.34 0.034,-0.216C0.034,-0.088 0.133,0.011 0.249,0.011C0.383,0.011 0.415,-0.109 0.415,-0.119Z" style="fill-rule:nonzero;"/>
            </g>
            <g transform="matrix(48,0,0,48,451.976,600.462)">
                <path d="M0.364,-0.381C0.364,-0.413 0.333,-0.442 0.29,-0.442C0.217,-0.442 0.181,-0.375 0.167,-0.332L0.167,-0.442L0.028,-0.431L0.028,-0.4C0.098,-0.4 0.106,-0.393 0.106,-0.344L0.106,-0.076C0.106,-0.031 0.095,-0.031 0.028,-0.031L0.028,-0L0.142,-0.003C0.182,-0.003 0.229,-0.003 0.269,-0L0.269,-0.031L0.248,-0.031C0.174,-0.031 0.172,-0.042 0.172,-0.078L0.172,-0.232C0.172,-0.331 0.214,-0.42 0.29,-0.42C0.297,-0.42 0.299,-0.42 0.301,-0.419C0.298,-0.418 0.278,-0.406 0.278,-0.38C0.278,-0.352 0.299,-0.337 0.321,-0.337C0.339,-0.337 0.364,-0.349 0.364,-0.381L0.364,-0.381Z" style="fill-rule:nonzero;"/>
            </g>
            <g transform="matrix(48,0,0,48,470.792,600.462)">
                <path d="M0.247,-0L0.247,-0.031C0.181,-0.031 0.177,-0.036 0.177,-0.075L0.177,-0.442L0.037,-0.431L0.037,-0.4C0.102,-0.4 0.111,-0.394 0.111,-0.345L0.111,-0.076C0.111,-0.031 0.1,-0.031 0.033,-0.031L0.033,-0L0.143,-0.003C0.178,-0.003 0.213,-0.001 0.247,-0ZM0.192,-0.604C0.192,-0.631 0.169,-0.657 0.139,-0.657C0.105,-0.657 0.085,-0.629 0.085,-0.604C0.085,-0.577 0.108,-0.551 0.138,-0.551C0.172,-0.551 0.192,-0.579 0.192,-0.604Z" style="fill-rule:nonzero;"/>
            </g>
            <g transform="matrix(48,0,0,48,484.136,600.462)">
                <path d="M0.521,-0.216C0.521,-0.343 0.424,-0.442 0.312,-0.442C0.234,-0.442 0.192,-0.398 0.172,-0.376L0.172,-0.442L0.028,-0.431L0.028,-0.4C0.099,-0.4 0.106,-0.394 0.106,-0.35L0.106,0.118C0.106,0.163 0.095,0.163 0.028,0.163L0.028,0.194L0.14,0.191L0.253,0.194L0.253,0.163C0.186,0.163 0.175,0.163 0.175,0.118L0.175,-0.059C0.18,-0.043 0.222,0.011 0.298,0.011C0.417,0.011 0.521,-0.087 0.521,-0.216L0.521,-0.216ZM0.438,-0.216C0.438,-0.095 0.368,-0.011 0.294,-0.011C0.254,-0.011 0.216,-0.031 0.189,-0.072C0.175,-0.093 0.175,-0.094 0.175,-0.114L0.175,-0.337C0.204,-0.388 0.253,-0.417 0.304,-0.417C0.377,-0.417 0.438,-0.329 0.438,-0.216L0.438,-0.216Z" style="fill-rule:nonzero;"/>
            </g>
            <g transform="matrix(48,0,0,48,510.824,600.462)">
                <path d="M0.332,-0.124L0.332,-0.181L0.307,-0.181L0.307,-0.126C0.307,-0.052 0.277,-0.014 0.24,-0.014C0.173,-0.014 0.173,-0.105 0.173,-0.122L0.173,-0.4L0.316,-0.4L0.316,-0.431L0.173,-0.431L0.173,-0.615L0.148,-0.615C0.147,-0.533 0.117,-0.426 0.019,-0.422L0.019,-0.4L0.104,-0.4L0.104,-0.124C0.104,-0.001 0.197,0.011 0.233,0.011C0.304,0.011 0.332,-0.06 0.332,-0.124L0.332,-0.124Z" style="fill-rule:nonzero;"/>
            </g>
        </g>
    </g>
</svg>
